<svg width="500" height="500" viewBox="0 0 500 500" fill="none" xmlns="http://www.w3.org/2000/svg">
<rect width="500" height="500" rx="250" fill="#A5E5F7"/>
<path fill-rule="evenodd" clip-rule="evenodd" d="M203.92 157.508C155.335 174.249 120.43 220.368 120.43 274.639C120.43 343.044 175.883 398.498 244.288 398.498C298.123 398.498 343.936 364.152 361.01 316.177H324.186C309.174 344.994 279.029 364.671 244.288 364.671C194.565 364.671 154.256 324.362 154.256 274.639C154.256 239.43 174.467 208.942 203.92 194.142V157.508Z" fill="#02010A"/>
<path d="M294.891 306.266V101.5H313.871V306.266H294.891Z" fill="#02010A"/>
<path fill-rule="evenodd" clip-rule="evenodd" d="M349.097 229.911C340.682 246.952 324.363 257.432 306.66 257.432C281.006 257.432 258.26 235.426 258.26 203.338C258.26 171.25 281.006 149.244 306.66 149.244C324.032 149.244 340.071 159.336 348.616 175.817H379.267C368.953 143.749 340.956 120.773 306.66 120.773C263.157 120.773 229.789 157.739 229.789 203.338C229.789 248.937 263.157 285.903 306.66 285.903C341.293 285.903 369.503 262.473 379.566 229.911H349.097Z" fill="#02010A"/>
</svg>
