<svg width="500" height="500" viewBox="0 0 500 500" fill="none" xmlns="http://www.w3.org/2000/svg">
<circle cx="250" cy="250" r="250" fill="#A5E5F7"/>
<path fill-rule="evenodd" clip-rule="evenodd" d="M194.252 159.008C145.667 175.749 110.762 221.868 110.762 276.139C110.762 344.544 166.215 399.998 234.62 399.998C288.455 399.998 334.268 365.652 351.342 317.677H314.518C299.506 346.494 269.361 366.171 234.62 366.171C184.897 366.171 144.588 325.862 144.588 276.139C144.588 240.93 164.799 210.442 194.252 195.642V159.008Z" fill="black"/>
<path d="M269.485 100.002H231.051V287.372H269.485V224.132L283.15 210.468L332.472 287.372L363.042 287.372L301.049 192.568L312.147 181.471L379.094 287.372L409.665 287.372L330.042 163.575L391.41 102.207L337.075 102.207L269.485 169.784V100.002Z" fill="black"/>
</svg>
