<svg width="62" height="62" viewBox="0 0 62 62" fill="none" xmlns="http://www.w3.org/2000/svg">
<circle cx="31" cy="31" r="31" fill="#A5E5F7"/>
<path d="M48.3636 17.9558C47.8842 17.5484 41.5611 18.0134 41.5611 18.0134C40.5543 18.2099 40.5256 17.534 40.5256 17.534L40.4489 17.1984C40.4489 17.1984 38.9436 8.19069 32.1411 7.78321C32.1411 7.78321 27.3472 7.56748 23.0327 12.3662C23.0327 12.3662 20.0509 15.6835 19.4421 17.0498C19.2102 17.3598 18.8659 17.5664 18.4833 17.6251C18.4833 17.6251 12.3998 20.022 11.5657 20.6404C10.7316 21.2588 10.9856 21.9587 10.9856 21.9587C11.0046 22.8602 11.3379 23.7267 11.9278 24.4085C12.5178 25.0904 13.3274 25.5448 14.2167 25.6932C14.2167 25.6932 14.8447 25.9185 16.8102 23.7277L19.2072 21.4793C19.2072 21.4793 21.0864 26.9971 21.3692 27.2656C21.652 27.534 21.9109 27.8792 23.3299 27.7162C24.7489 27.5532 26.5034 26.4554 26.6329 24.8399C26.6329 24.8399 26.7815 24.4851 25.9378 23.6654C25.9378 23.6654 22.026 18.9194 21.9253 18.8139C21.8246 18.7085 21.6424 18.4928 22.0068 18.0421C22.3711 17.5915 25.9665 11.997 30.6358 11.6183C30.6358 11.6183 33.3827 11.2732 33.8908 14.6097C33.8908 14.6097 32.5342 14.1543 32.1554 14.3796C31.7767 14.6049 31.5083 14.8446 31.6329 15.8705V17.5436C31.6316 17.5579 31.6316 17.5724 31.6329 17.5867C31.6329 17.7689 31.5562 18.2003 30.5974 18.0134C30.5974 18.0134 24.2551 17.534 23.7949 17.9558C23.3347 18.3777 23.4545 18.5119 23.8764 19.0728L30.1564 27.3327C29.7279 27.6408 29.3943 28.0628 29.1935 28.5509C28.9926 29.0389 28.9326 29.5735 29.0202 30.094C29.2083 31.2251 30.1116 31.756 30.7667 31.9957C31.2189 32.1612 31.7694 31.9884 32.1799 32.24C32.2878 32.3062 32.3692 32.4154 32.3856 32.5916C32.4431 33.21 32.9608 35.2378 32.9321 35.6021C32.9033 35.9665 33.0327 36.0815 32.1411 36.2062C31.2494 36.3308 26.2925 36.6472 25.909 38.1956L31.1173 38.3839C31.7952 38.4084 32.52 38.4917 32.9863 38.9843V38.9843C33.2221 39.2333 33.3985 39.5324 33.5025 39.8591L33.6655 41.9828C33.6655 41.9828 33.6717 42.1023 33.6655 42.1707C33.6593 42.2391 33.6355 42.3047 33.5964 42.3612C33.5573 42.4177 33.5043 42.4631 33.4424 42.493C33.3806 42.5228 33.2772 42.5437 33.2772 42.5437L32.7067 42.5725C32.7067 42.5725 29.188 42.7642 28.5648 44.49L31.6029 44.5833C32.4883 44.6105 33.6839 44.6064 33.9098 45.4629C33.9227 45.5117 33.931 45.563 33.934 45.6166C33.9723 46.3165 33.9675 47.4239 33.9675 47.4239C33.9675 47.4239 33.9675 47.7499 33.3347 47.7499C32.7019 47.7499 30.305 48.2964 30.1132 49.6674C30.1132 49.6674 33.4162 49.7058 33.469 49.7297C33.6644 49.7968 33.8358 49.9198 33.9619 50.0834V50.0834C34.212 50.4079 34.2571 50.8539 34.2175 51.2617C34.2066 51.3739 34.1859 51.4851 34.1553 51.594C34.1002 51.7908 33.9549 52.0089 33.8366 52.1755V52.1755C33.7525 52.2938 33.7089 52.374 33.6586 52.5101C33.5593 52.7786 33.4295 53.2512 33.6176 53.5217C34.0394 54.0011 35.0557 54.2408 36.0673 54.2168C37.0788 54.1928 38.0903 54.0107 38.5121 53.5217C38.7854 53.1286 38.3875 52.3088 38.3875 52.3088C38.3875 52.3088 38.1478 51.9685 38.0807 51.8822C37.9024 51.4971 37.8569 51.0638 37.9513 50.6502C37.9664 50.4441 38.0417 50.247 38.1678 50.0834C38.2939 49.9198 38.4653 49.7968 38.6608 49.7297C38.7375 49.7058 42.0404 49.6674 42.0404 49.6674C41.8487 48.2868 39.4422 47.7499 38.8189 47.7499C38.1957 47.7499 38.2101 47.4431 38.2101 47.4431C38.2101 47.4431 38.2101 46.3357 38.2437 45.6358C38.2605 45.2855 38.5102 45.0373 38.7555 44.8767C39.0553 44.6804 39.4224 44.6386 39.7806 44.6292L43.6176 44.5284C42.9944 42.7834 39.4757 42.6108 39.4757 42.6108L38.9052 42.582C38.9052 42.582 38.8018 42.5598 38.74 42.5299C38.6782 42.5001 38.6251 42.4547 38.5861 42.3982C38.547 42.3417 38.5231 42.2761 38.5169 42.2077C38.5107 42.1393 38.5169 42.0212 38.5169 42.0212L38.6016 40.9185C38.6536 40.2402 38.7291 39.5175 39.1969 39.0234V39.0234V39.0234C39.6631 38.5309 40.3872 38.4468 41.0648 38.4223L46.2734 38.234C45.8756 36.6856 40.9187 36.3788 40.0414 36.2445C39.1641 36.1103 39.2792 36.0048 39.2504 35.6405C39.2216 35.2762 39.7298 33.2436 39.8017 32.6299C39.8124 32.5384 39.8403 32.4651 39.88 32.4064C40.2162 31.9098 41.0339 32.2012 41.5865 31.9681C42.2176 31.702 42.9898 31.1694 43.1622 30.1323C43.2509 29.6123 43.1919 29.0778 42.9919 28.5897C42.7919 28.1015 42.4589 27.6793 42.0309 27.371L48.2629 19.1112C48.704 18.5119 48.819 18.3633 48.3636 17.9558Z" fill="black"/>
</svg>
