<?xml version="1.0" encoding="UTF-8"?>
<!DOCTYPE svg PUBLIC "-//W3C//DTD SVG 1.1//EN" "http://www.w3.org/Graphics/SVG/1.1/DTD/svg11.dtd">
<svg xmlns="http://www.w3.org/2000/svg" version="1.1" width="500px" height="500px" style="shape-rendering:geometricPrecision; text-rendering:geometricPrecision; image-rendering:optimizeQuality; fill-rule:evenodd; clip-rule:evenodd" xmlns:xlink="http://www.w3.org/1999/xlink">
<g><path style="opacity:0.997" fill="#feda3f" d="M 227.5,4.5 C 318.759,-0.395235 392.259,32.9381 448,104.5C 499,179.498 508.334,259.498 476,344.5C 435.849,432.276 367.682,482.11 271.5,494C 180.218,499.384 106.718,466.217 51,394.5C -0.000443067,319.502 -9.33378,239.502 23,154.5C 63.3095,66.7114 131.476,16.7114 227.5,4.5 Z"/></g>
<g><path style="opacity:1" fill="#010100" d="M 247.5,62.5 C 248.873,62.3433 250.207,62.51 251.5,63C 267.994,74.0042 284.327,85.1708 300.5,96.5C 290.901,124.796 281.401,153.13 272,181.5C 263.434,186.896 255.934,193.562 249.5,201.5C 242.42,193.25 234.587,185.917 226,179.5C 216.833,152 207.667,124.5 198.5,97C 198.645,96.228 198.978,95.5613 199.5,95C 215.739,84.3912 231.739,73.5578 247.5,62.5 Z"/></g>
<g><path style="opacity:1" fill="#010100" d="M 173.5,104.5 C 174.978,104.238 176.311,104.571 177.5,105.5C 188.833,128.167 200.167,150.833 211.5,173.5C 186.572,170.965 168.572,180.965 157.5,203.5C 140.167,194.833 122.833,186.167 105.5,177.5C 105.167,176.833 104.833,176.167 104.5,175.5C 109.014,155.932 113.014,136.265 116.5,116.5C 135.852,113.498 154.852,109.498 173.5,104.5 Z"/></g>
<g><path style="opacity:1" fill="#010100" d="M 321.5,105.5 C 341.896,108.779 362.229,112.446 382.5,116.5C 385.733,136.332 389.733,155.999 394.5,175.5C 394.167,176.167 393.833,176.833 393.5,177.5C 376.167,186.167 358.833,194.833 341.5,203.5C 335.415,188.918 324.748,179.418 309.5,175C 302.033,173.744 294.7,173.244 287.5,173.5C 298.847,150.807 310.18,128.14 321.5,105.5 Z"/></g>
<g><path style="opacity:1" fill="#020100" d="M 95.5,198.5 C 115.106,205.035 134.772,211.369 154.5,217.5C 155.516,230.544 159.682,242.544 167,253.5C 171.113,259.947 175.613,266.114 180.5,272C 152.849,281.884 125.015,291.384 97,300.5C 84.5676,284.215 73.0676,267.215 62.5,249.5C 73.247,232.34 84.247,215.34 95.5,198.5 Z"/></g>
<g><path style="opacity:1" fill="#010100" d="M 400.5,198.5 C 401.822,198.33 402.989,198.663 404,199.5C 415.097,216.035 425.93,232.702 436.5,249.5C 425.887,266.551 414.887,283.384 403.5,300C 375.068,291.301 346.734,281.967 318.5,272C 332.578,256.401 341.578,238.235 345.5,217.5C 364.006,211.333 382.339,204.999 400.5,198.5 Z"/></g>
<g><path style="opacity:1" fill="#010100" d="M 186.5,280.5 C 196.851,291.518 206.851,302.852 216.5,314.5C 203.774,340.951 190.774,367.285 177.5,393.5C 176.833,393.833 176.167,394.167 175.5,394.5C 155.932,389.986 136.265,385.986 116.5,382.5C 113.324,364.12 109.824,345.786 106,327.5C 105.333,325.5 105.333,323.5 106,321.5C 132.972,307.931 159.806,294.264 186.5,280.5 Z"/></g>
<g><path style="opacity:1" fill="#010100" d="M 311.5,280.5 C 338.718,294.026 365.884,307.692 393,321.5C 393.667,323.833 393.667,326.167 393,328.5C 389.305,346.475 385.805,364.475 382.5,382.5C 363.132,385.907 343.799,389.573 324.5,393.5C 323.228,393.43 322.062,393.097 321,392.5C 307.892,366.618 295.059,340.618 282.5,314.5C 292.158,303.174 301.825,291.84 311.5,280.5 Z"/></g>
<g><path style="opacity:1" fill="#010100" d="M 224.5,323.5 C 231.609,329.436 238.609,335.603 245.5,342C 248.167,342.667 250.833,342.667 253.5,342C 260.136,336.366 266.469,330.366 272.5,324C 273.332,323.312 273.998,323.479 274.5,324.5C 283.265,350.296 291.932,376.13 300.5,402C 284.215,414.432 267.215,425.932 249.5,436.5C 231.986,425.912 214.986,414.578 198.5,402.5C 207.574,376.278 216.241,349.945 224.5,323.5 Z"/></g>
</svg>
