<svg xmlns="http://www.w3.org/2000/svg" viewBox="0 0 38.25 38.25"><defs><filter id="a" data-name="drop-shadow-1" filterUnits="userSpaceOnUse"><feOffset/><feGaussianBlur result="e" stdDeviation=".08"/><feFlood flood-color="#000" flood-opacity=".13"/><feComposite in2="e" operator="in"/><feComposite in="SourceGraphic"/></filter><filter id="b" data-name="drop-shadow-2" filterUnits="userSpaceOnUse"><feOffset/><feGaussianBlur result="g" stdDeviation=".08"/><feFlood flood-color="#000" flood-opacity=".13"/><feComposite in2="g" operator="in"/><feComposite in="SourceGraphic"/></filter><filter id="c" data-name="drop-shadow-3" filterUnits="userSpaceOnUse"><feOffset/><feGaussianBlur result="i" stdDeviation=".08"/><feFlood flood-color="#000" flood-opacity=".13"/><feComposite in2="i" operator="in"/><feComposite in="SourceGraphic"/></filter><filter id="d" data-name="drop-shadow-4" filterUnits="userSpaceOnUse"><feOffset/><feGaussianBlur result="k" stdDeviation=".08"/><feFlood flood-color="#000" flood-opacity=".13"/><feComposite in2="k" operator="in"/><feComposite in="SourceGraphic"/></filter></defs><g data-name="Layer 1"><path fill="#2775ca" d="M19 38c10.53 0 19-8.47 19-19S29.53 0 19 0 0 8.47 0 19s8.47 19 19 19Z"/><path fill="#fff" d="M24.23 22c0-2.76-1.67-3.71-5-4.1-2.37-.33-2.84-.96-2.84-2.07s.79-1.82 2.37-1.82c1.43 0 2.22.48 2.61 1.66.08.24.32.4.56.4h1.27c.31 0 .55-.24.55-.55v-.08a3.96 3.96 0 0 0-3.56-3.25v-1.9c0-.32-.24-.55-.64-.63h-1.18c-.32 0-.56.24-.64.63v1.82c-2.37.32-3.88 1.9-3.88 3.88 0 2.61 1.59 3.64 4.91 4.04 2.22.4 2.93.87 2.93 2.14s-1.1 2.13-2.61 2.13c-2.06 0-2.77-.87-3-2.06-.09-.31-.32-.47-.56-.47h-1.35a.54.54 0 0 0-.55.55v.08c.31 1.98 1.58 3.4 4.2 3.8v1.9c0 .32.23.56.63.64h1.18c.32 0 .56-.24.64-.64v-1.9c2.37-.4 3.96-2.06 3.96-4.2Z"/><path fill="#fff" d="M14.96 30.32a11.79 11.79 0 0 1-7.04-15.2 11.71 11.71 0 0 1 7.04-7.04c.32-.16.48-.4.48-.8v-1.1c0-.32-.16-.56-.48-.64a14.22 14.22 0 0 0-9.58 17.97 14.24 14.24 0 0 0 9.27 9.27c.31.15.63 0 .7-.32.09-.08.09-.16.09-.32v-1.1c0-.24-.24-.56-.48-.72Zm8.4-24.7c-.32-.16-.64 0-.72.32-.08.08-.08.16-.08.31v1.11c0 .32.24.64.48.8a11.79 11.79 0 0 1 7.04 15.2 11.71 11.71 0 0 1-7.04 7.04c-.32.16-.48.4-.48.8v1.1c0 .32.16.55.48.63.08 0 .23 0 .31-.08a14.22 14.22 0 0 0 9.27-17.89 14.36 14.36 0 0 0-9.27-9.34Z"/><circle cx="32.29" cy="32.29" r="5.71" fill="#fff" stroke="#000" stroke-miterlimit="10" stroke-width=".5"/><path d="m32.72 31.72 2.23-2.21-.85-.84-1.8 1.8-1.81-1.8-.84.84 2.22 2.21a.6.6 0 0 0 .85 0Z" filter="url(#a)"/><path d="m35.94 34.09-1.8-1.8 1.8-1.8-.84-.83-2.23 2.21a.6.6 0 0 0 0 .84l2.23 2.22.84-.84Z" filter="url(#b)"/><path d="m32.3 34.13 1.8 1.8.84-.85-2.22-2.21a.6.6 0 0 0-.85 0l-2.23 2.21.85.84 1.8-1.8Z" filter="url(#c)"/><path d="M31.72 32.72a.6.6 0 0 0 0-.84l-2.23-2.22-.84.84 1.8 1.8-1.8 1.79.84.84 2.23-2.21Z" filter="url(#d)"/></g></svg>