<?xml version="1.0" standalone="no"?>
<!DOCTYPE svg PUBLIC "-//W3C//DTD SVG 20010904//EN"
 "http://www.w3.org/TR/2001/REC-SVG-20010904/DTD/svg10.dtd">
<svg version="1.0" xmlns="http://www.w3.org/2000/svg"
 width="633.000000pt" height="633.000000pt" viewBox="0 0 633.000000 633.000000"
 preserveAspectRatio="xMidYMid meet">
<metadata>
Created by potrace 1.14, written by Peter Selinger 2001-2017
</metadata>
<g transform="translate(0.000000,633.000000) scale(0.100000,-0.100000)"
fill="#000000" stroke="none">
<path d="M4148 5255 c-2 -1 -39 -5 -83 -9 -44 -3 -90 -8 -101 -10 -12 -2 -37
-7 -55 -10 -74 -12 -97 -17 -171 -36 -166 -42 -438 -156 -529 -221 -15 -10
-30 -19 -33 -19 -3 0 -36 -21 -74 -46 -419 -289 -719 -713 -841 -1187 -16 -61
-32 -132 -36 -157 -3 -25 -8 -52 -10 -60 -5 -18 -13 -106 -20 -223 l-6 -87
377 2 377 3 3 35 c5 78 14 166 19 190 2 14 7 39 11 55 14 72 59 197 104 290
193 398 584 677 1025 731 69 8 247 8 308 0 122 -17 253 -52 347 -93 71 -31 87
-39 158 -80 343 -200 584 -560 639 -953 10 -69 10 -277 1 -350 -15 -120 -60
-271 -113 -385 -25 -52 -119 -211 -135 -225 -3 -3 -25 -30 -50 -60 -183 -224
-454 -385 -746 -444 -89 -18 -137 -24 -209 -25 l-50 -1 0 -375 c0 -326 2 -375
15 -376 45 -3 235 9 260 16 8 2 40 7 70 10 30 4 57 8 60 10 4 2 22 7 41 10
100 17 293 83 424 144 232 109 393 221 575 401 121 119 180 189 265 314 182
268 309 604 340 901 4 33 9 76 11 95 19 152 -3 436 -48 630 -142 608 -572
1140 -1132 1400 -213 99 -397 151 -656 185 -48 7 -327 15 -332 10z"/>
<path d="M1997 5214 c-1 -1 -42 -4 -92 -8 -49 -3 -99 -8 -110 -10 -11 -2 -40
-7 -65 -11 -25 -4 -56 -9 -70 -12 -14 -2 -75 -17 -136 -33 -244 -65 -511 -196
-709 -349 -32 -25 -68 -53 -79 -61 -58 -45 -246 -245 -309 -328 -69 -92 -147
-207 -147 -216 0 -2 -16 -33 -36 -68 -111 -195 -207 -505 -232 -743 -9 -90 -9
-359 0 -450 74 -729 564 -1387 1248 -1678 125 -52 296 -106 395 -123 17 -2 55
-9 85 -14 217 -38 504 -32 735 15 330 67 617 203 905 430 54 42 269 263 311
319 93 125 145 207 210 331 98 189 179 435 204 625 4 30 9 64 11 75 2 11 7 71
10 133 l7 112 -377 0 -376 0 -1 -27 c0 -16 -2 -41 -4 -58 -2 -16 -6 -57 -10
-90 -11 -109 -58 -271 -111 -381 -97 -202 -240 -375 -419 -507 -106 -78 -305
-175 -420 -204 -37 -9 -150 -31 -195 -38 -55 -9 -262 -9 -310 0 -127 21 -163
29 -234 52 -428 135 -756 473 -874 903 -12 41 -24 91 -27 110 -3 19 -8 49 -11
65 -3 17 -7 80 -9 140 -17 636 436 1200 1060 1319 111 22 132 24 197 25 l56 1
0 375 c0 206 -3 375 -7 376 -19 2 -62 4 -64 3z"/>
</g>
</svg>
