<?xml version="1.0" standalone="no"?>
<!DOCTYPE svg PUBLIC "-//W3C//DTD SVG 20010904//EN"
 "http://www.w3.org/TR/2001/REC-SVG-20010904/DTD/svg10.dtd">
<svg version="1.0" xmlns="http://www.w3.org/2000/svg"
 width="656.000000pt" height="656.000000pt" viewBox="0 0 656.000000 656.000000"
 preserveAspectRatio="xMidYMid meet">
<metadata>
Created by potrace 1.14, written by Peter Selinger 2001-2017
</metadata>
<g transform="translate(0.000000,656.000000) scale(0.100000,-0.100000)"
fill="#000000" stroke="none">
<path d="M1587 6546 c-22 -6 -35 -14 -31 -18 4 -5 -3 -8 -15 -8 -19 0 -20 -3
-11 -20 6 -11 9 -24 6 -28 -2 -4 12 -26 32 -50 37 -44 64 -55 157 -68 22 -3
45 -9 51 -15 6 -5 14 -6 17 -2 4 3 17 -2 29 -13 12 -10 18 -13 14 -6 -10 16
24 11 55 -9 33 -21 63 -28 81 -18 11 6 20 4 28 -6 7 -9 21 -13 30 -10 9 3 23
-1 30 -10 7 -8 16 -12 22 -9 5 3 14 2 21 -3 21 -17 101 -41 152 -47 29 -3 44
-2 37 3 -11 7 -11 9 2 14 10 4 25 -2 36 -13 11 -11 30 -22 42 -25 13 -2 66
-15 118 -28 90 -22 93 -23 65 -34 -22 -7 -35 -7 -48 1 -16 10 -65 -2 -151 -39
-14 -6 -17 -5 -12 3 4 7 3 12 -2 12 -14 0 -193 -78 -208 -91 -8 -7 -17 -9 -20
-6 -11 10 -260 -119 -283 -147 -7 -8 -46 -34 -87 -56 -51 -28 -107 -73 -176
-140 -56 -54 -105 -97 -109 -94 -4 2 -23 -14 -43 -36 -20 -22 -41 -40 -47 -40
-7 0 -37 -25 -67 -55 -30 -31 -59 -54 -64 -53 -6 2 -29 -15 -52 -38 -59 -59
-84 -89 -66 -80 8 4 3 -4 -12 -18 -16 -14 -28 -28 -28 -31 0 -3 -22 -29 -50
-57 -27 -28 -50 -55 -50 -60 0 -5 -24 -38 -54 -73 -30 -36 -57 -73 -61 -85 -3
-11 -11 -20 -16 -20 -5 0 -9 -6 -9 -13 0 -8 -9 -25 -20 -38 -32 -39 -34 -41
-70 -112 -19 -37 -43 -76 -52 -87 -21 -23 -72 -115 -83 -150 -4 -14 -22 -50
-39 -80 -32 -55 -72 -147 -81 -185 -2 -11 -21 -65 -41 -120 -41 -115 -65 -195
-57 -195 3 0 1 -6 -5 -13 -6 -7 -14 -32 -18 -55 -4 -23 -10 -42 -14 -42 -6 0
-28 -64 -36 -102 -1 -5 -3 -10 -4 -13 -7 -14 -22 -112 -25 -165 -1 -25 -7 -56
-12 -70 -5 -14 -9 -32 -8 -40 1 -8 -3 -21 -9 -29 -13 -16 -15 -627 -3 -741 4
-41 10 -93 12 -115 2 -22 5 -47 6 -55 3 -32 30 -146 39 -165 10 -23 21 -69 26
-107 2 -15 11 -46 20 -70 8 -24 17 -54 19 -67 2 -13 7 -27 12 -30 5 -3 17 -25
28 -49 11 -26 30 -49 47 -58 16 -8 26 -19 23 -23 -6 -10 23 -71 35 -71 4 0 13
7 20 15 7 8 17 12 22 9 6 -4 5 3 -1 15 -13 23 -2 28 17 9 18 -18 23 -5 7 25
-8 17 -10 29 -4 33 6 4 6 11 -2 20 -6 7 -9 21 -5 29 3 8 2 15 -2 15 -4 0 -9 8
-10 18 -2 23 -8 44 -16 62 -6 14 -11 68 -19 186 -2 28 -6 55 -10 60 -3 5 -8
34 -12 64 -3 30 -11 82 -17 115 -6 33 -12 71 -13 85 -5 42 -16 133 -23 175 -4
22 -6 81 -4 130 1 50 4 167 6 260 3 159 8 225 21 285 3 14 8 54 10 90 5 76 12
117 24 145 9 20 20 51 21 60 0 3 8 24 16 47 9 24 18 54 20 67 7 33 45 144 54
156 5 6 27 66 50 135 23 69 56 152 75 185 18 33 36 71 40 85 9 27 50 87 74
108 8 6 16 19 17 28 6 41 52 125 104 194 32 41 66 89 77 106 32 54 57 88 79
109 12 11 27 31 34 45 7 14 33 52 58 85 25 33 47 61 48 63 1 2 8 4 16 6 19 2
150 125 219 204 20 23 43 42 51 42 8 0 27 11 42 25 15 14 32 25 38 25 6 0 8 3
5 7 -4 3 4 13 17 22 69 46 145 102 151 110 6 11 125 73 125 66 0 -3 35 17 78
43 77 48 182 102 197 102 7 0 80 41 172 97 13 7 24 12 25 11 2 -2 17 7 35 20
34 24 62 30 46 10 -5 -7 -9 -20 -8 -28 1 -8 -7 -28 -18 -43 -10 -15 -20 -33
-21 -40 -1 -7 -14 -29 -29 -48 -35 -47 -77 -130 -71 -141 3 -4 1 -8 -4 -8 -5
0 -17 -16 -27 -36 -9 -20 -23 -43 -31 -52 -8 -10 -15 -21 -15 -27 0 -5 -5 -16
-11 -22 -7 -9 -7 -17 1 -27 8 -10 4 -20 -19 -44 -17 -18 -30 -41 -30 -52 0
-12 -4 -19 -9 -15 -5 3 -12 -4 -16 -15 -3 -11 -12 -26 -18 -33 -17 -18 -34
-46 -55 -87 -9 -19 -22 -38 -29 -43 -12 -8 -12 -84 1 -125 19 -58 157 3 182
80 3 11 16 37 27 56 12 20 22 41 23 47 1 5 3 21 5 35 4 24 29 59 39 54 8 -3
25 20 28 40 2 10 10 25 18 33 8 8 23 34 34 57 10 24 26 49 35 56 8 7 15 20 15
29 0 9 11 33 25 53 14 20 25 42 25 48 0 5 25 48 55 95 30 46 55 90 55 97 0 7
9 24 20 38 11 14 20 31 20 38 0 6 4 12 9 12 5 0 17 20 26 45 10 24 28 59 40
76 17 23 22 40 19 66 -10 82 -53 128 -128 140 -17 3 -39 9 -48 14 -9 5 -34 11
-55 15 -21 3 -43 12 -50 20 -6 9 -14 15 -17 14 -4 -1 -21 2 -39 6 -17 4 -39 8
-47 9 -8 1 -26 6 -40 13 -32 14 -81 26 -97 23 -6 -1 -14 3 -18 9 -3 5 -17 10
-31 10 -14 0 -35 5 -46 11 -11 6 -35 13 -52 15 -58 8 -71 11 -96 19 -14 4 -39
9 -55 9 -17 1 -37 6 -45 11 -8 5 -24 11 -35 12 -56 8 -74 12 -115 26 -40 13
-96 28 -110 29 -3 0 -14 4 -25 8 -11 4 -37 2 -58 -4z m923 -430 c0 -11 -65
-43 -79 -38 -10 4 -3 11 25 23 40 18 54 22 54 15z m-1963 -4196 c-3 -11 -1
-20 5 -20 5 0 6 -5 3 -11 -7 -11 -34 17 -35 36 0 6 5 3 10 -5 8 -13 10 -12 10
3 0 9 3 17 6 17 4 0 4 -9 1 -20z"/>
<path d="M4408 5655 c-1 -1 -34 -6 -72 -9 -38 -3 -78 -8 -90 -11 -11 -2 -34
-7 -51 -9 -16 -3 -45 -9 -63 -15 -18 -5 -36 -10 -40 -10 -49 -5 -296 -114
-359 -159 -17 -12 -36 -22 -41 -22 -6 0 -17 -6 -24 -13 -7 -7 -35 -28 -63 -47
-119 -80 -329 -271 -425 -385 -63 -75 -140 -176 -185 -245 -28 -41 -52 -77
-55 -80 -14 -13 -98 -167 -147 -270 -75 -158 -75 -158 -115 -277 -9 -25 -21
-36 -55 -49 -84 -32 -258 -136 -373 -222 -140 -105 -352 -313 -437 -428 -10
-14 -36 -49 -57 -77 -206 -275 -400 -693 -450 -971 -5 -27 -16 -81 -32 -161
-12 -63 -12 -372 1 -446 8 -41 16 -90 20 -109 11 -65 63 -206 100 -275 162
-300 424 -451 767 -441 64 2 120 6 125 9 5 3 28 8 52 12 70 10 213 60 318 112
54 26 103 51 108 56 6 4 46 30 90 58 44 27 82 54 83 59 2 6 8 10 13 10 10 0
17 6 123 94 139 117 310 303 439 478 67 91 173 268 229 383 25 50 49 99 56
110 6 11 25 58 43 103 23 59 41 90 61 105 17 12 33 22 36 22 25 2 303 170 322
194 3 4 16 14 30 23 101 65 317 281 451 451 44 56 87 110 95 120 8 9 14 19 14
21 0 2 25 42 56 88 45 66 195 335 200 358 0 3 8 22 17 43 42 93 50 114 53 137
1 14 14 59 29 100 14 41 27 82 29 90 2 8 5 22 8 30 10 28 40 165 44 205 3 22
7 58 10 80 13 97 6 340 -11 423 -33 161 -83 286 -158 397 -45 66 -134 159
-187 195 -19 13 -37 27 -40 31 -15 20 -250 118 -250 104 0 -2 -15 1 -32 6 -18
5 -67 12 -108 15 -41 3 -80 7 -87 9 -6 2 -13 2 -15 0z"/>
<path d="M6055 4580 c-4 -6 -12 -7 -18 -3 -7 3 -4 -3 6 -14 21 -24 22 -33 2
-33 -8 0 -15 4 -15 9 0 5 -6 11 -14 14 -11 4 -11 -5 0 -56 7 -34 16 -85 19
-112 4 -28 9 -61 11 -75 2 -14 6 -63 8 -110 2 -47 7 -92 10 -100 3 -8 8 -44
10 -80 3 -36 8 -78 11 -95 24 -116 22 -669 -1 -707 -3 -5 -1 -8 5 -8 10 0 7
-71 -4 -110 -3 -8 -7 -33 -11 -55 -3 -22 -10 -60 -16 -85 -6 -25 -12 -65 -14
-90 -1 -25 -3 -45 -4 -45 -1 0 -4 -15 -7 -34 -2 -19 -11 -43 -18 -55 -8 -12
-33 -77 -55 -146 -23 -68 -52 -145 -65 -170 -12 -25 -35 -76 -49 -115 -26 -68
-69 -159 -104 -220 -9 -16 -34 -59 -54 -95 -20 -36 -46 -74 -57 -84 -12 -11
-21 -24 -21 -30 0 -27 -53 -115 -96 -161 -26 -27 -63 -75 -82 -105 -20 -30
-50 -71 -68 -90 -43 -46 -74 -86 -74 -95 0 -17 -120 -155 -120 -139 -1 5 -8
-2 -16 -16 -9 -15 -13 -18 -9 -6 4 13 -8 7 -38 -20 -24 -21 -59 -52 -78 -67
-19 -16 -58 -51 -86 -79 -29 -28 -53 -47 -53 -44 0 4 -24 -6 -52 -22 -81 -44
-97 -55 -103 -72 -4 -10 1 -8 17 6 13 11 32 26 43 33 11 7 4 -1 -15 -18 -19
-18 -60 -46 -90 -63 -30 -18 -73 -45 -94 -60 -21 -15 -48 -28 -58 -28 -22 0
-125 -50 -171 -82 -18 -13 -33 -22 -34 -21 -2 1 -23 -6 -49 -17 -25 -11 -50
-20 -56 -20 -5 0 -22 -8 -36 -18 -15 -11 -84 -47 -154 -82 -71 -35 -128 -68
-128 -72 0 -4 -9 -8 -20 -8 -11 0 -20 -7 -20 -15 0 -8 -4 -15 -9 -15 -14 0 6
53 28 77 25 27 44 63 32 63 -12 0 30 84 58 116 12 13 19 24 16 24 -2 0 26 48
62 108 94 152 93 150 80 179 -8 17 -7 27 1 35 9 9 12 9 12 -2 0 -15 63 78 65
95 3 24 25 62 49 84 14 14 26 32 26 41 0 8 6 24 14 35 27 40 29 82 5 125 -24
43 -40 46 -95 17 -36 -19 -54 -41 -105 -124 -26 -41 -39 -74 -37 -88 3 -15 -6
-32 -29 -55 -19 -17 -36 -42 -39 -53 -2 -12 -8 -23 -14 -25 -6 -2 -8 -7 -5
-12 3 -4 -2 -13 -10 -20 -8 -7 -15 -17 -15 -23 0 -6 -12 -31 -27 -56 -15 -25
-28 -51 -29 -58 -1 -7 -11 -25 -23 -41 -20 -29 -40 -72 -37 -82 0 -3 -9 -16
-21 -30 -13 -13 -23 -30 -23 -37 0 -7 -4 -13 -9 -13 -5 0 -11 -8 -15 -17 -3
-10 -21 -45 -39 -78 -19 -33 -44 -80 -56 -105 -12 -25 -28 -54 -34 -65 -35
-64 -37 -72 -31 -114 4 -24 16 -54 27 -67 20 -23 81 -52 127 -61 29 -5 106
-28 165 -49 23 -8 50 -14 62 -14 12 0 24 -4 27 -8 2 -4 19 -9 37 -10 18 -2 58
-10 89 -19 30 -9 62 -17 70 -18 8 -1 22 -5 30 -8 8 -3 29 -9 45 -13 17 -4 32
-8 35 -9 3 -1 25 -5 50 -9 25 -5 52 -12 61 -17 9 -5 40 -11 68 -14 29 -2 61
-9 71 -15 11 -6 20 -8 20 -6 0 3 12 1 28 -5 15 -6 45 -13 67 -15 22 -3 44 -9
50 -13 18 -13 73 -13 97 0 35 19 46 33 46 61 -1 30 -55 96 -84 101 -10 2 -26
7 -34 10 -8 4 -37 8 -65 10 -27 2 -68 12 -90 22 -22 10 -50 17 -62 16 -13 -1
-30 5 -39 13 -15 16 -37 20 -81 17 -11 -1 -24 3 -28 8 -3 6 -19 11 -35 11 -16
0 -32 5 -35 11 -4 6 -13 8 -20 5 -7 -2 -16 2 -19 10 -3 9 -14 14 -23 12 -10
-1 -25 2 -33 7 -18 11 -29 14 -95 25 -27 4 -52 6 -54 4 -2 -2 1 -4 7 -4 7 0
12 -7 12 -15 0 -17 -29 -10 -46 11 -14 18 -99 44 -141 44 -17 0 -35 4 -38 10
-3 5 -3 10 2 11 4 0 18 2 30 5 12 2 24 0 27 -5 4 -5 22 -5 43 1 21 5 49 12 63
15 14 3 31 10 38 16 8 6 16 6 26 -2 10 -8 24 -5 57 12 24 13 58 27 74 31 17 4
48 15 70 25 22 10 63 26 90 36 28 10 79 33 113 51 35 19 69 34 75 34 5 0 17 7
26 15 23 22 110 79 159 104 23 12 63 42 90 67 61 60 141 124 154 124 12 0 48
38 48 50 0 5 12 11 26 14 14 4 41 22 60 41 19 19 39 35 44 35 6 0 10 5 10 11
0 5 4 8 9 5 10 -7 131 101 131 118 0 6 34 42 75 80 41 38 74 74 73 80 -2 6 21
36 51 66 30 30 65 73 79 94 13 22 32 48 42 58 9 10 30 42 45 71 16 29 31 54
35 57 4 3 13 16 20 29 6 13 28 44 47 70 20 25 52 80 73 121 39 81 72 142 80
150 12 12 50 102 50 118 0 10 4 22 9 28 11 11 81 194 112 289 12 39 32 99 45
135 12 36 25 83 29 105 4 22 10 44 13 50 3 5 7 28 9 50 2 45 20 120 35 149 5
10 12 52 14 94 3 41 7 80 11 85 8 14 13 135 14 332 0 275 -14 485 -38 555 -8
25 -17 54 -19 65 -15 82 -44 195 -54 210 -4 6 -13 28 -20 50 -14 44 -29 67
-39 61 -4 -3 -8 4 -9 15 -4 43 -6 49 -15 49 -5 0 -6 -7 -3 -16 5 -14 4 -15 -9
-4 -8 7 -15 21 -15 32 0 24 -26 52 -35 38z m25 -38 c0 -15 -2 -15 -10 -2 -13
20 -13 33 0 25 6 -3 10 -14 10 -23z m-2066 -4104 c-3 -4 -15 -8 -27 -8 -15 0
-18 3 -9 8 17 11 43 11 36 0z"/>
<path d="M465 1929 c10 -35 23 -45 18 -15 -3 15 -10 29 -15 32 -6 4 -7 -2 -3
-17z"/>
</g>
</svg>
