<svg xmlns="http://www.w3.org/2000/svg" viewBox="0 0 649.2 121.4"><defs><style>.cls-1{fill:#19d88a}</style></defs><g><path class="cls-1" d="M291.58 29.99c8.36 0 15.21 3.23 20.55 9.68 5.34 6.46 8.01 14.66 8.01 24.6v48.4h-16.66V66.81c0-6.24-1.72-11.4-5.16-15.47-3.44-4.07-7.7-6.11-12.78-6.11-5.71 0-10.4 2.04-14.05 6.11-3.65 4.07-5.48 9.23-5.48 15.47v45.86h-16.66V66.81c0-6.24-1.69-11.4-5.08-15.47s-7.62-6.11-12.7-6.11c-5.71 0-10.4 2.04-14.05 6.11-3.65 4.07-5.48 9.23-5.48 15.47v45.86h-16.66V31.58h16.66v19.84c2.22-6.67 5.58-11.9 10.08-15.71A23.67 23.67 0 0 1 237.91 30c6.45 0 12.03 2.04 16.74 6.11 4.71 4.07 8.01 9.55 9.92 16.43 1.9-6.88 5.26-12.35 10.08-16.43a25.37 25.37 0 0 1 16.9-6.11Z"/><path class="cls-1" d="M373.78 29.99c13.01 0 23.59 4.66 31.74 13.97 8.15 9.31 11.48 20.58 10 33.8h-67.13c1.16 6.56 4.18 11.88 9.05 15.95 4.86 4.07 10.74 6.11 17.62 6.11 5.29 0 10.02-1.29 14.2-3.89a26.83 26.83 0 0 0 9.76-10.55l13.97 6.19a41.96 41.96 0 0 1-15.39 16.5c-6.67 4.13-14.34 6.19-23.01 6.19-12.17 0-22.38-4.02-30.63-12.06-8.25-8.04-12.38-18.04-12.38-29.99s4.05-21.98 12.14-30.07S361.84 30 373.79 30Zm0 14.44a24.12 24.12 0 0 0-15.95 5.63 26.93 26.93 0 0 0-8.97 14.68h49.83a26.14 26.14 0 0 0-8.81-14.68c-4.5-3.75-9.87-5.63-16.11-5.63Z"/><path class="cls-1" d="M473.92 29.99c9.2 0 16.72 3.23 22.54 9.68 5.82 6.46 8.73 14.66 8.73 24.6v48.4h-16.66V66.81c0-6.24-2.01-11.4-6.03-15.47-4.02-4.07-8.99-6.11-14.92-6.11-6.67 0-12.12 2.04-16.35 6.11-4.23 4.07-6.35 9.23-6.35 15.47v45.86h-16.66V31.58h16.66v20.95c2.22-6.98 5.9-12.48 11.03-16.5 5.13-4.02 11.13-6.03 18.01-6.03Z"/><path class="cls-1" d="M518.11 31.58V5.24L534.77 0v31.58h22.85v14.76h-22.85v37.45c0 4.97 1.11 8.57 3.33 10.79s5.77 3.33 10.63 3.33h8.89v14.76h-8.89c-10.47 0-18.2-2.43-23.17-7.3-4.97-4.86-7.46-12.32-7.46-22.38V46.34"/><path class="cls-1" d="M575.56 102.2c-8.25-8.04-12.38-18.04-12.38-29.99s4.13-21.98 12.38-30.07S594.02 30 606.19 30s22.38 4.05 30.63 12.14 12.38 18.12 12.38 30.07-4.13 21.96-12.38 29.99c-8.25 8.04-18.46 12.06-30.63 12.06s-22.38-4.02-30.63-12.06Zm12.22-49.12c-4.97 5.13-7.46 11.51-7.46 19.12s2.48 13.97 7.46 19.04c4.97 5.08 11.11 7.62 18.41 7.62s13.57-2.54 18.49-7.62c4.92-5.08 7.38-11.43 7.38-19.04s-2.46-14.12-7.38-19.2-11.08-7.62-18.49-7.62-13.44 2.57-18.41 7.7Z"/><path class="cls-1" d="M106.38 120.32v-18.74c18.11 0 32.84-14.73 32.84-32.84S124.49 35.9 106.38 35.9 73.54 50.63 73.54 68.74H54.8c0-28.44 23.14-51.59 51.59-51.59s51.59 23.14 51.59 51.59-23.14 51.59-51.59 51.59Z"/><path class="cls-1" d="M51.59 121.4C23.14 121.4 0 98.26 0 69.82s23.14-51.59 51.59-51.59v18.74c-18.11 0-32.84 14.73-32.84 32.84s14.73 32.84 32.84 32.84 32.84-14.73 32.84-32.84h18.74a51.65 51.65 0 0 1-51.59 51.59Z"/></g></svg>