<svg width="108" height="24" viewBox="0 0 108 24" fill="none" xmlns="http://www.w3.org/2000/svg">
<g id="mento logo">
<g id="Vector">
<path d="M87.9585 9.13706V3.95939H81.1165V0H75.9699V3.95939H72.337V9.13706H75.9699V16.6904C75.9699 20.9543 79.179 24 83.4173 24H86.7475V18.8223H84.6283C82.5091 18.8223 81.1165 17.6041 81.1165 15.4721V9.13706H87.9585ZM102.853 18.8223V24H95.3454C91.107 24 87.9585 20.9543 87.9585 16.6904V9.13706H93.1051V15.4721C93.1051 17.6041 94.4372 18.8223 96.5564 18.8223H102.853ZM93.1051 9.13706V3.95939H100.613C104.851 3.95939 108 7.00508 108 11.269V18.8223H102.853V12.4873C102.853 10.3553 101.521 9.13706 99.4021 9.13706H93.1051Z" fill="#02010A"/>
<path d="M58.487 23.5688H53.1483V3.96716H58.487V6.20174C59.5001 4.63362 61.5265 3.53592 64.0594 3.53592C68.7746 3.53592 71.5803 6.98581 71.5803 12.0822V23.5688H66.2416V12.9839C66.2416 10.1613 65.0336 8.43633 62.8124 8.43633C60.3574 8.43633 58.487 10.2397 58.487 14.0032V23.5688Z" fill="#02010A"/>
<path fill-rule="evenodd" clip-rule="evenodd" d="M45.8612 17.1786H51.4337C50.2646 21.1382 46.4068 24 41.4578 24C35.4957 24 31.2482 19.6876 31.2482 13.7288C31.2482 7.88748 35.5736 3.53592 41.4968 3.53592C47.2251 3.53592 51.9403 7.65226 51.6675 15.0225H36.4699C36.7037 17.3355 38.4183 19.3348 41.7306 19.3348C43.6011 19.3348 45.2377 18.5116 45.8612 17.1786ZM41.3409 7.88748C43.1724 7.88748 45.1598 8.86756 45.8223 11.4942H36.6647C37.1713 9.338 38.8859 7.88748 41.3409 7.88748Z" fill="#02010A"/>
<path d="M0 23.5688H5.33863V14.0032C5.33863 10.2397 6.93633 8.43633 9.23545 8.43633C11.3397 8.43633 12.275 10.2005 12.275 13.1015V23.5688H17.6136V14.0032C17.6136 10.2397 19.2113 8.43633 21.5104 8.43633C23.6147 8.43633 24.5499 10.2005 24.5499 13.1015V23.5688H29.8886V12.1998C29.8886 6.9074 27.2387 3.53592 22.6015 3.53592C20.3803 3.53592 17.7695 4.71202 16.5615 7.14262C15.3924 4.86884 13.3661 3.53592 10.5214 3.53592C8.14434 3.53592 6.39077 4.67282 5.33863 6.20174V3.96716H0V23.5688Z" fill="#02010A"/>
</g>
</g>
</svg>
