<svg xmlns="http://www.w3.org/2000/svg" viewBox="0 17.15 157.98 104.25"><defs><style>.cls-1{fill:#2E3338}</style></defs><path class="cls-1" d="M106.38 120.32v-18.74c18.11 0 32.84-14.73 32.84-32.84S124.49 35.9 106.38 35.9 73.54 50.63 73.54 68.74H54.8c0-28.44 23.14-51.59 51.59-51.59s51.59 23.14 51.59 51.59-23.14 51.59-51.59 51.59Z"/><path class="cls-1" d="M51.59 121.4C23.14 121.4 0 98.26 0 69.82s23.14-51.59 51.59-51.59v18.74c-18.11 0-32.84 14.73-32.84 32.84s14.73 32.84 32.84 32.84 32.84-14.73 32.84-32.84h18.74a51.65 51.65 0 0 1-51.59 51.59Z"/></svg>