<svg xmlns="http://www.w3.org/2000/svg" viewBox="0 0 92.1 78.1"><defs><style>.cls-5{fill:#2e3338}</style></defs><g style="isolation:isolate"><g id="Layer_1" data-name="Layer 1"><path d="M72.7 41c-4.4 11.6-14.7 20.4-23 19.6s-12.2-10.2-8.5-21 13.2-19.7 22.2-19.7 13.7 9.4 9.3 21Z" transform="translate(-2.7 -10.3)" fill="#35d07f"/><path d="M56.4 59.5C52 71.2 41.7 80 33.4 79.2s-12.2-10.2-8.5-21 13.2-19.7 22.2-19.7 13.7 9.4 9.3 21Z" transform="translate(-2.7 -10.3)" fill="#fbcc5c" style="mix-blend-mode:multiply"/><path class="cls-5" d="M47.3 87.4h-.1a.4.4 0 0 1 .1 0l.3-.1.5-.1a1 1 0 0 1 .3 0h.1a.7.7 0 0 0-.3-.1H48a2 2 0 0 1 .4 0s.1 0 0 0c0 0 .2-.1 0-.1a3.6 3.6 0 0 1-.4 0h.5c.6-.1 0-.1-.2 0h-.7c.1 0 .4-.1.4 0h.2c.3-.1.1-.2-.3-.1-.3 0 0-.1.4 0l.4-.1h.1c.3-.1.3-.1 0-.1-.4 0 .9-.4 1.3-.4a.5.5 0 0 0 .2 0 4 4 0 0 1-.4 0l.3-.1h.2a.5.5 0 0 0 .2 0c.3-.1.3-.1 0-.1l.6-.1a3.3 3.3 0 0 0 .3-.1l.6-.2h.2l.2-.1a5.2 5.2 0 0 0 1-.2c-.4 0 0 0 0 0l.6-.2a1 1 0 0 1 .2 0 2.6 2.6 0 0 0 .4-.2l.2-.1a.2.2 0 0 1 .2 0c.1 0 .1 0 0 0l.3-.2h.1a1.1 1.1 0 0 1 .5-.2h.2a.9.9 0 0 1 .3-.1 2 2 0 0 0 .4-.2h.3-.1a.8.8 0 0 0 .1 0l.2-.1h.2l.2-.1.7-.3a5.3 5.3 0 0 0 .8-.4l.3-.1a1 1 0 0 0 .4-.2 4.9 4.9 0 0 1 .9-.4 5.1 5.1 0 0 0 .6-.3l.7-.3a4.8 4.8 0 0 1 .7-.5l.3-.1a.6.6 0 0 0-.1 0h.1a4.2 4.2 0 0 0 .5-.3 2.6 2.6 0 0 1 .3-.1l.1-.1h.2l.2-.2a.8.8 0 0 1 .3-.2 7.4 7.4 0 0 0 .9-.5 3 3 0 0 1 .5-.4 3.4 3.4 0 0 0 .5-.4l.3-.2a3 3 0 0 0 .8-.6 1.3 1.3 0 0 0 .2-.1l.8-.6.4-.3.1-.2.7-.5.8-.8 1-.9a3.8 3.8 0 0 1 .4-.6l.5-.4.1-.2a1.8 1.8 0 0 1 .5-.5 1.3 1.3 0 0 0 .1-.1 3.7 3.7 0 0 1 .8-1l.4-.5a5.3 5.3 0 0 0 .4-.5l.7-1c.2-.3.4-.6.3-.3l.3-.5a8.5 8.5 0 0 0 .6-.8 5 5 0 0 1 .7-1l.3-.6v-.2l.2-.3.1-.3c-.2.2-.2.2.1-.3a1.7 1.7 0 0 1 .4-.5l.2-.3a.7.7 0 0 1 .2-.3l.2-.3v-.1c-.3.2 0-.4.2-.6a3.3 3.3 0 0 0 .4-1l.3-.5c.2-.6.3-.9 0-.3-.3.6-.3.5 0-.4l.3-.5c0 .3.3-.3.4-1 .1-.2.1-.2 0 0 0 .4-.1.5-.2.5a4 4 0 0 1 .2-.4c.3-1 .4-1.3.2-.3-.2.7-.2.7 0 .1a3.2 3.2 0 0 0 .4-1.3v-.3c.2-.3.3-.2.2.1l.1-.3.2-.6-.1.3c-.1.3 0 0 0-.4.2-.6.3-1 .3-.5v-.3l.2-1v-1.4l.1-.4a4.6 4.6 0 0 1 .2-.9v-.6a2.8 2.8 0 0 1 .2-.6 1.6 1.6 0 0 1 0-.4v-.1l-.1.1a.8.8 0 0 1 0-.4.8.8 0 0 0 0-.1h.1a2.2 2.2 0 0 1 0-.4 1 1 0 0 0 0-.3l.1-.4v.2-.5a1 1 0 0 0 .1-.3v-1.4a.7.7 0 0 0 0-.3 4.6 4.6 0 0 1 .1-.9v-2c0-.2.1-.5.2-.2v.2a1.5 1.5 0 0 0 0 .4 1.7 1.7 0 0 0 0-.5 4.8 4.8 0 0 0 0-.6v-.2a2 2 0 0 0 0-.2c0-.1 0-.1 0 0v-1.1l.1.2v.2a2.6 2.6 0 0 0 .1.5 1 1 0 0 1 0 .3 1 1 0 0 0 .1.3 1.9 1.9 0 0 1 0 .2.3.3 0 0 0 0-.2v-.2a.5.5 0 0 0 0-.2v-.3l-.1-.5v-.2a2.1 2.1 0 0 0 0-.2l-.1-.3V41l.1.1.1.3.1.5a6 6 0 0 0 0-.7.6.6 0 0 1-.1-.2s0-.1 0 0a1.3 1.3 0 0 0 0-.4v-.1c0 .2 0 .2.2.2v-.2c0-.3 0-.3.1 0 0 .2 0 .2 0 0l.1.1v.1l.1.4v.6-1l.1.5c0 .1 0 .1 0 0v.3a2.3 2.3 0 0 0 0 .3 5.1 5.1 0 0 0 0-1l.1.2V41.4h.1a1 1 0 0 1 .1.4v.2a2.5 2.5 0 0 0 0 .4v-.1l.1-.2V42a1.4 1.4 0 0 1 .1.3v.5c0 .1.1 0 0 0l.1-.3a2.2 2.2 0 0 1 0 .3.4.4 0 0 0 .1 0q0 .1 0 0h.1a.8.8 0 0 0 0 .2 1.9 1.9 0 0 1 0 .3h.1v.2a3.2 3.2 0 0 0 0 .3l.1.3v.1a1.8 1.8 0 0 1 0 .2.7.7 0 0 1 .1.1v.4h.1a20.4 20.4 0 0 0 0 .5 1.2 1.2 0 0 0 0 .2 1.4 1.4 0 0 0 0 .3 2.4 2.4 0 0 0 .1.7 2.7 2.7 0 0 1 0 .8.5.5 0 0 0 0 .3v.4a1.6 1.6 0 0 1 0 .3.4.4 0 0 1 0 .1.9.9 0 0 0 0 .3v.4a3.2 3.2 0 0 1 0 .7 4.3 4.3 0 0 1 0 .8 4.5 4.5 0 0 0-.2.7c0 .4 0-.1 0 0a2.5 2.5 0 0 0 0 .3l-.2.4-.1 1V53v.3a2 2 0 0 0-.1.7c0 .4 0 .3-.1.3a2.4 2.4 0 0 0-.2.7 4 4 0 0 1 0 .6l-.2.4a3.3 3.3 0 0 1 0 .7l-.1.3v-.3l.3-1.2v-.3l.1-.6v.4a8.5 8.5 0 0 1-.5 2.4 1.7 1.7 0 0 0-.1.3c.2-.7.2-1 0-.7l-.2 1a4.2 4.2 0 0 0 0 .7s-.2.7-.6 1.6a11.5 11.5 0 0 1-.6 1.8v.1-.3c.2-.3.2-.3 0 0l-.3.6c-.2.3 0 .1 0 0l.4-1c.2-.5.1-.6-.1 0a11.1 11.1 0 0 0-.6 1.5l-.2.7-.1.4c.3-.6.3-.6 0 0v.4l-.1.2a8.3 8.3 0 0 1-.5 1l-.3.5-.1.2-.1.3-.2.5a6.9 6.9 0 0 1-.5.9 8.6 8.6 0 0 1-.6.8l-.2.3c.2-.3.1-.3 0 0a10.7 10.7 0 0 0-.8 1.5l-.1.3a4.1 4.1 0 0 0-.5.5l-.4.5-.2.2a4.3 4.3 0 0 1-.3.5l-.3.3a2.3 2.3 0 0 0-.2.3 2 2 0 0 1-.2.1l-.2.3-.1.2-.2.3a10 10 0 0 0-.7.8c-.1.2-.2.3 0 .2l-1 1-1 .9a7 7 0 0 1-1.1 1l-.1.1a14 14 0 0 1-1.4 1.1c-.7.6-1 .9-.7.5l-.3.2a.7.7 0 0 1-.1 0l-.8.7a1.8 1.8 0 0 0-.3.3 4.1 4.1 0 0 1-.9.7l-.8.5a1.4 1.4 0 0 1-.6.4l-1 .6a6.9 6.9 0 0 0-.6.4 1 1 0 0 1 .3-.2 2 2 0 0 1-.5.3 2.4 2.4 0 0 0 .4-.1l.2-.2-.9.6-.5.3-.3.2h-.2a1.4 1.4 0 0 1-.6.3h-.2a1.5 1.5 0 0 1-.2.2.9.9 0 0 0-.1 0 2.7 2.7 0 0 0-.4.3 6.3 6.3 0 0 1-1 .4l-.2.1.5-.3a1.6 1.6 0 0 0-.3.1l-.1.1a3 3 0 0 1-.5.3 1.2 1.2 0 0 0-.3.1 3 3 0 0 1-.6.3 2.3 2.3 0 0 1-.4.1 5.5 5.5 0 0 0-.8.3l-.9.3h-.1a.9.9 0 0 1-.2 0 1.2 1.2 0 0 0-.2.1l-.2.1a1.6 1.6 0 0 1 .2 0 1.2 1.2 0 0 1 .1 0 1.2 1.2 0 0 1-.3 0l-1.2.4a5.8 5.8 0 0 1-.5.1.6.6 0 0 0-.3 0l-.2.1h-.4l-.3.2H52.6a2.4 2.4 0 0 1-.4 0 2.8 2.8 0 0 0-.3.1h-1.1l-.2.1h.2v-.1a.2.2 0 0 0-.1 0 .4.4 0 0 0-.1 0h-.1a.3.3 0 0 1-.1 0h-.1a2.2 2.2 0 0 0-.4.1.7.7 0 0 1-.1 0h.2c.3-.1.2-.1 0 0-.1 0-.1 0 0 0a1.2 1.2 0 0 1-.4 0 .7.7 0 0 0 .1 0H49.1h.3v-.1a.6.6 0 0 0-.1 0h-.1a1.6 1.6 0 0 1-.4.1H49 49l.1-.1h-.5.2-.4a2.3 2.3 0 0 1-.4 0l-.2.1a2.9 2.9 0 0 1-.3 0h-.2.6a2.4 2.4 0 0 0-.3 0h-.1a1.2 1.2 0 0 0 .1 0l.2-.1h-.1a.7.7 0 0 0-.1 0h-.3a.7.7 0 0 1 .3 0h-.2a2 2 0 0 0-.2 0h.1a1.2 1.2 0 0 1-.1 0l.2-.1h.2-.2a1.4 1.4 0 0 0 .2 0l.1-.1a1 1 0 0 1 .1 0c.2-.1.2-.1-.1 0h-.1.1l.2-.2-.3.1h-.1.5-.2a1.2 1.2 0 0 0 .2-.1h-.2l-.5.1h.3l.3-.1h-.5c.3 0 .1 0 0 0l.5-.1h.3H47.3h.3c.2-.1-.1 0-.1 0-.4 0-.4-.1 0-.2l.8-.1h-.1a1.4 1.4 0 0 0-.3 0h-.6Z" transform="translate(-2.7 -10.3)"/><path class="cls-5" d="M75 52.9c-.2-.1-.2-.2-.1 0l-.1-.1v-.2a1 1 0 0 0 0-.1v.1a.4.4 0 0 0-.1.2.3.3 0 0 1 0-.2v-.1h.1a.8.8 0 0 0-.1 0 .5.5 0 0 0-.1.1V52.2h.1-.1v-.1a.1.1 0 0 0 0-.1v-.2s0-.1 0 0v-.5a.2.2 0 0 0 .1-.2.1.1 0 0 1 0-.1h.1V51l.1-.1.1-.1.1-.3h.1a.2.2 0 0 1 0-.1h.1a.5.5 0 0 1 .1-.3c0-.1 0-.1.1 0V50c.1-.2.1-.1.2-.1l.1-.1a1.8 1.8 0 0 0 .2-.2v-.2h.1l.1-.2a.2.2 0 0 1 .1 0V49l.1-.2s0-.1 0 0h-.2v.2c-.1 0 0 0 0-.1l.3-.3v.2l.1-.2v-.2a1.4 1.4 0 0 1 .3-.3l.3-.4c-.1.1-.1.1 0 .1h.1l-.1.2c-.1.2 0 .1 0 0l.3-.3a1 1 0 0 1 0-.2v-.1c-.2 0-.2 0 0 0a.2.2 0 0 0 0-.2.4.4 0 0 1-.2 0l.1-.2a.4.4 0 0 0 .1 0V47l.1-.2a.4.4 0 0 1 .1-.2l.2-.2h.1a2 2 0 0 0 .2-.5l.2-.1.1-.1.1-.2.2-.1v-.2l.2-.2v-.1l.2-.3.2-.2a1.4 1.4 0 0 1 .2-.3.8.8 0 0 1 .3-.3c.1-.1.2-.2.2 0v-.1a1.3 1.3 0 0 0 .2-.3V43a1.1 1.1 0 0 1 .2-.2l.1-.1.2-.2a.4.4 0 0 0 0-.2s0 .1 0 0c-.1 0 0 0 0-.1l.1-.2h.1a.1.1 0 0 1 0-.2c.2 0 .2 0 .2-.2l.1-.2h.1v.1a1 1 0 0 1 .1-.2h.1a.3.3 0 0 1 0-.2h.1a.3.3 0 0 1 0-.1s0-.1.1-.2l.1-.2a1.5 1.5 0 0 1 .1-.1c.1-.1.1-.1.1 0v-.1l.1-.1h.1a.2.2 0 0 1 0-.1l.1-.1V40h.1l.2-.2a1 1 0 0 1 .2-.3 1 1 0 0 1-.1.2 3.5 3.5 0 0 1 .3-.4.5.5 0 0 0 .1 0c.1 0 .1 0 0 0a1.4 1.4 0 0 1 .4-.3H84.2c.4 0 .5 0 .3-.1a.2.2 0 0 0 0-.1l.2.1a.8.8 0 0 0 .2 0c.3.2.3.2.1.2v.1c.2 0 .2.1.1.1l.2.4a1 1 0 0 0 .2.2l.2.2h.1l.2.2a.2.2 0 0 0 .2.3l.6.7c.3.3.2 0 .3.1l.7 1 .1.2a1.1 1.1 0 0 1 .1 0V43l-.3-.4.2.4a3 3 0 0 0 .3.3.5.5 0 0 1 .2 0v.1-.1a1.4 1.4 0 0 0-.1-.2s-.1-.1 0-.2l.2.2v.1l.2.1v.2h.2v.1l.6.5V44.3l.2.1c0 .1 0 .2.2.2 0 0 .1 0 0 0l.2.2H90V45.1a.4.4 0 0 0 .1 0c0-.1 0 0 .1 0 .1.1.2 0 .2 0v.1l.2.1c0 .1 0 .1-.2 0 0 .1 0 .1 0 0 0 .2 0 .2 0 0-.1 0-.1 0 0 .2v.2a.3.3 0 0 1 .2 0c.2.1.2.1 0 0 0 0 0-.2 0 0 .2 0 .3 0 .2.1l.1.2c0 .2.2.4.2.3l.4.2v.1c.1 0 .1 0 0 0v-.1h.1l.1.2.2.4v.1l.1.2h.1a1 1 0 0 1 .1.1c.1.2.2 0 .2 0l-.1-.2.1.1a1 1 0 0 0 .1.2v.1c-.1-.2-.1-.2 0 0v.1l.1.1a.3.3 0 0 1 .1 0l.1.2v.2c.1 0 0 0 0 0l.4.4a.2.2 0 0 1 .1 0c0-.1 0-.1.1 0 0 0 0 .1 0 0v.2h.1c.1 0 0 0 0 0l.1.2a.2.2 0 0 1 .2 0v.1l.1.1a.6.6 0 0 1 .1.2h.1l.2.2v.1l.1.2c0 .1.1.1 0 .1a.2.2 0 0 0 .1.1v.1a.1.1 0 0 0 0 .1v.2h.1c-.1 0-.1 0 0 0V51c0 .1 0 .1 0 0v.1a.6.6 0 0 1 .2.5.5.5 0 0 1-.1.3.5.5 0 0 0 0-.2.6.6 0 0 0 0-.3.6.6 0 0 0 0-.2.6.6 0 0 1 0 .2.6.6 0 0 1 0 .1.6.6 0 0 1 0 .1.5.5 0 0 0 0-.2.5.5 0 0 0 0-.2h-.1a.6.6 0 0 1 .1.1.8.8 0 0 1 0 .2v.1a.5.5 0 0 1 0 .3.6.6 0 0 0 0-.1.8.8 0 0 0 0-.3.7.7 0 0 1 0 .2.6.6 0 0 1-.2.3s0-.1 0-.1l.1-.3a.5.5 0 0 0-.1-.3.5.5 0 0 1 0 .4.4.4 0 0 0 0-.3.7.7 0 0 0 0-.1.4.4 0 0 1 0 .1v-.1c-.1 0-.1 0 0 0a.4.4 0 0 1 0 .2v-.1c-.1-.1-.1 0-.1 0a.3.3 0 0 1 0 .3.3.3 0 0 0 0-.3.3.3 0 0 1 0 .3.3.3 0 0 0 0-.3.2.2 0 0 1 0 .2c0-.2 0 0 0 0a.2.2 0 0 0 0-.1.2.2 0 0 0-.1 0v-.1a.1.1 0 0 1 0 .2c0 .1-.1 0-.1 0 0-.1 0 0 0 0l-.1-.1c.1 0 0 0 0 0v.2H94v-.1h-.1c0 .1 0 .1 0 0v.1h-.1c0-.1 0 0 0 0v.1c0-.1 0 0 0 0l-.1-.1s-.1 0 0 0h-.5a.4.4 0 0 1-.2-.2l-.1-.1a1 1 0 0 1-.2-.2V51h-.2c0-.1-.1-.1 0 0h-.1v-.2a.2.2 0 0 1-.1-.1l-.1-.1a.2.2 0 0 1 0-.1H92a.3.3 0 0 1 0-.2h-.2v-.1l-.2-.1v-.2a.6.6 0 0 1-.1 0v-.1l-.3-.1v-.1l-.1-.2-.1-.1-.2-.2V49c-.2-.2-.2-.3-.3-.2l-.1-.1-.2-.2v-.1l-.2-.2a.3.3 0 0 1-.2-.2V48l-.3-.2a2.5 2.5 0 0 0-.3-.4h-.1L89 47a.5.5 0 0 1-.3-.2l-.1-.2-.1-.1-.2-.2-.2-.1-.2-.3a1.6 1.6 0 0 0-.2-.3l-.1-.1-.2-.2a1 1 0 0 0-.2-.2.3.3 0 0 1-.1-.2l-.2-.2-.1-.1-.2-.2-.2-.2v-.1a1 1 0 0 0-.4-.4l-.3-.3-.1-.2a.7.7 0 0 0-.2-.3c0-.1-.1-.1-.1 0l-.1-.2c-.1 0-.2-.2 0-.1h-.1a1 1 0 0 1-.1-.2l-.2-.2a3 3 0 0 1-.4-.5 1.2 1.2 0 0 1-.2-.1c0-.1 0-.1 0 0v-.2c0 .1 0 0-.1 0a.1.1 0 0 1 0 .2H84l-.1.1v.2l-.2.2a1.4 1.4 0 0 1-.1.1.5.5 0 0 1-.1.1.3.3 0 0 1-.1.1.3.3 0 0 1-.1.2l-.2.2-.1.2a1 1 0 0 0-.2.2v.2l-.2.1v.3h-.1l-.1.1a.2.2 0 0 1 0 .1h-.1v.1s-.1.1-.1 0l-.2.2v.2a.2.2 0 0 0-.1.1c0 .1 0 .1 0 0a.2.2 0 0 0-.2.3l-.2.2a.7.7 0 0 0-.1 0v.1l-.2.2-.1.2a1.3 1.3 0 0 1-.2.3.2.2 0 0 1 0 .1.5.5 0 0 1-.2.2v.1a.1.1 0 0 0-.1 0c0 .2-.2.4-.2.3v.1a.4.4 0 0 0-.2.2l-.1.3H80l-.1.3c0 .2-.2.3-.2.2v.2h-.1v.2l-.2.2c0-.1 0 0 0 0h-.1l-.1.1c.1 0 0 .2 0 .2a.2.2 0 0 0-.2.2.8.8 0 0 1 0 .1c-.2.1-.2.2 0 .1v.1l-.2.1-.2.2c.2-.1.2 0 .1 0-.1.2-.2.2-.1 0 0-.1 0-.1 0 0a.2.2 0 0 0-.2.2v.1H78s0 .1 0 0c.1 0 0 0 0 .1v.1H78l-.1.3v.4h-.1l-.2.2v.2c-.1 0-.1.1-.2 0v.2h-.1v.1h-.1v.2c-.1 0-.1 0 0 0-.1 0-.1.1 0 .1H77l-.1.1v.1h-.1v.1h-.1v.2h-.2c0 .3-.2.4-.2.3 0 0 0-.1 0 0h-.1l-.2.1c0 .1-.1.1-.1 0v.1h-.1l-.1.1h-.2v-.2.2h-.1v.1h-.2c-.1 0-.1 0 0-.1v-.1a.4.4 0 0 0-.1.1H75h.1-.1Z" transform="translate(-2.7 -10.3)"/><path class="cls-5" d="M92 48.5Z" transform="translate(-2.7 -10.3)"/><path class="cls-5" d="M48 11.2h.1a.4.4 0 0 1-.1 0s0 0 0 .1h-.3l-.5.2a1 1 0 0 1-.3 0h-.1a.7.7 0 0 0 .3 0h.2a2 2 0 0 1-.4.1s-.1 0 0 0c0 0-.2 0 0 0a3.6 3.6 0 0 1 .4 0l-.5.1c-.6.1 0 0 .2 0h.7H47h.3c.3 0 0 .2-.4.2h-.4c-.3 0-.4.1-.1.1.4 0-.9.4-1.3.4a.5.5 0 0 0-.2.1 4 4 0 0 1 .4 0h-.5a.5.5 0 0 0-.2.1c-.3 0-.2 0 0 0l-.5.2a3.3 3.3 0 0 0-.4.1l-.5.2H43l-.2.1a5.2 5.2 0 0 0-1 .3c.4 0 0 0 0 0l-.6.2a1.1 1.1 0 0 1-.2 0 2.6 2.6 0 0 0-.4.2l-.2.1a.2.2 0 0 1-.2 0c-.2.1-.2.1 0 .1l-.3.1-.1.1a1.1 1.1 0 0 1-.5.2h-.2a.9.9 0 0 1-.3.1 2 2 0 0 0-.4.2c-.3.1-.3.1-.2 0a.8.8 0 0 0-.1 0c-.2 0-.2.1-.2.2.1 0 .1 0 0 0h-.4v.1l-.7.3a5.3 5.3 0 0 0-.7.4l-.4.1a1 1 0 0 0-.3.2 4.9 4.9 0 0 1-.9.5 5.1 5.1 0 0 0-.6.3l-.6.3a4.8 4.8 0 0 1-.8.5l-.2.2a.6.6 0 0 0 0-.1 4.2 4.2 0 0 0-.6.4 2.6 2.6 0 0 1-.3.1v.1c-.2 0-.2.1-.2 0l-.3.2a.8.8 0 0 1-.3.3 7.5 7.5 0 0 0-.8.5 3 3 0 0 1-.5.3 3.4 3.4 0 0 0-.5.5l-.2.2a3 3 0 0 0-.8.6 1.3 1.3 0 0 0-.2.2l-.8.6-.4.3-.1.2-.6.5-.9.9-.8.9a3.8 3.8 0 0 1-.5.6l-.5.5v.1a1.8 1.8 0 0 1-.5.5 1.3 1.3 0 0 0-.2.2 3.7 3.7 0 0 1-.7 1l-.4.5a5.3 5.3 0 0 0-.3.5l-.7 1-.3.4-.3.5a8.6 8.6 0 0 0-.5.8 5 5 0 0 1-.7 1.1l-.3.6v.2l-.1.2-.1.4-.2.3a1.7 1.7 0 0 1-.3.5l-.2.3a.7.7 0 0 1-.2.2l-.2.4v.1c.3-.2 0 .4-.1.6a3.3 3.3 0 0 0-.4 1l-.2.6c-.3.5-.3.8 0 .3l-.1.3-.3.6c.1-.3-.2.2-.3.9-.1.3-.1.3 0 0l.1-.5a4 4 0 0 1 0 .5c-.3 1-.5 1.2-.2.3 0-.7 0-.7-.1-.1a3.2 3.2 0 0 0-.3 1.3l-.1.3c-.1.3-.2.2-.1-.1l-.1.3-.2.6.1-.3c.1-.3 0 0 0 .4-.2.6-.2 1-.2.6s0-.4-.1.2a2.7 2.7 0 0 0 0 1l-.1.4v1.4a4.6 4.6 0 0 1-.2.9v.7a2.8 2.8 0 0 1-.1.6 1.6 1.6 0 0 1 0 .3v.2-.2c.1 0 .1 0 0 0a.8.8 0 0 1 0 .4.8.8 0 0 0 0 .2V49v.1a2.1 2.1 0 0 1 0 .3 1 1 0 0 0 0 .4l-.1.3v-.1.4a1 1 0 0 0 0 .3v1.4a.7.7 0 0 0 0 .3 4.6 4.6 0 0 1 0 1v1.8a.4.4 0 0 1 0 .1c0 .3 0 .5-.1.3V55.4a1.4 1.4 0 0 0-.2-.4 1.7 1.7 0 0 0 .1.6 4.8 4.8 0 0 0 .1.5v.2a2 2 0 0 0 0 .3v.4c0 .2 0 .2 0 0v.6c0 .2 0 0-.1-.1V57.2a2.6 2.6 0 0 0-.1-.5 1 1 0 0 1 0-.3 1 1 0 0 0-.1-.2 1.9 1.9 0 0 1 0-.2.3.3 0 0 0 0 .2v.1a.5.5 0 0 0 0 .2v.4l.1.5v.1a2.2 2.2 0 0 0 0 .3l.2.3v.8s-.1-.2-.1 0l-.2-.4-.1-.5a6 6 0 0 0 .1.7.6.6 0 0 1 .1.3s0 .1 0 0a1.3 1.3 0 0 0 0 .3v.2c0-.3 0-.2-.2-.3v.3c0 .3 0 .3 0 0-.2-.3-.2-.3-.1 0l-.1-.2-.1-.5-.1-.5v1-.8a2.2 2.2 0 0 0-.1-.3 5.1 5.1 0 0 0 0 1V58.8l-.1-.2a1 1 0 0 1-.2-.4v-.2a2.5 2.5 0 0 0 0-.4v.4h-.1a1.4 1.4 0 0 1-.1-.3v-.5c0-.1 0 0 0 0v.3a2.2 2.2 0 0 1-.2-.2.4.4 0 0 0 0-.1q0-.1 0 0a.8.8 0 0 0-.1-.1 1.9 1.9 0 0 1 0-.4.4.4 0 0 0-.1.1v-.6c0 .2-.1 0-.2-.2V56a1.8 1.8 0 0 1 0-.3.7.7 0 0 1 0-.1l-.1-.2v-.2l-.1-.4a1.2 1.2 0 0 0 0-.2v-.1a1.4 1.4 0 0 0 0-.3 2.4 2.4 0 0 0-.2-.6 2.7 2.7 0 0 1 0-.9.5.5 0 0 0 0-.3V52a1.6 1.6 0 0 1 0-.3.9.9 0 0 0 0-.4V51a3.2 3.2 0 0 1 0-.7 4.3 4.3 0 0 1 0-.8 4.5 4.5 0 0 0 0-.8c0-.4 0 .2 0 0a2.5 2.5 0 0 0 .1-.3l.1-.4.1-1v.1-.3a2 2 0 0 0 0-.7c.1-.4.1-.3.2-.3a2.4 2.4 0 0 0 0-.6 4 4 0 0 1 .2-.7V44a3.3 3.3 0 0 1 .1-.7v-.3.3l-.2 1.2v.3l-.1.6V45a8.5 8.5 0 0 1 .4-2.4 1.7 1.7 0 0 0 .1-.3v.7l.2-1a4.2 4.2 0 0 0 0-.7s.2-.7.5-1.7a11.5 11.5 0 0 1 .5-1.8l.1-.1-.1.3c-.1.4-.1.4 0 .1l.3-.7c0-.3 0-.1 0 0 0 .4-.2.7-.4 1 0 .5 0 .6.2 0A11.1 11.1 0 0 0 14 37l.2-.7c.2-.6.2-.7 0-.4-.2.6-.3.6 0 0l.1-.4c-.2.2 0-.2 0-.2a8.4 8.4 0 0 1 .5-1l.3-.5v-.2l.2-.4.2-.4a6.9 6.9 0 0 1 .4-1 8.7 8.7 0 0 1 .5-.8l.2-.3c-.1.3 0 .3 0 0a10.7 10.7 0 0 0 .8-1.5l.1-.3a4.1 4.1 0 0 0 .4-.6l.4-.5.2-.2a4.3 4.3 0 0 1 .3-.5l.2-.3a2.3 2.3 0 0 0 .3-.3 2 2 0 0 1 .1-.2l.3-.3c-.2.2 0-.2.3-.4a10 10 0 0 0 .6-.8v-.1c.1-.2.2-.2 0-.1l1-1 .9-1a7 7 0 0 1 1-1.1l.2-.1a14 14 0 0 1 1.3-1.2l.7-.5.3-.2a.7.7 0 0 1 .1 0l.8-.8a1.8 1.8 0 0 0 .3-.3 4.1 4.1 0 0 1 .8-.6l.8-.6a1.4 1.4 0 0 1 .6-.4l1-.6a7 7 0 0 0 .6-.5 1 1 0 0 1-.3.2 2 2 0 0 1 .5-.3h-.1a2.4 2.4 0 0 0-.3.2l-.3.1.9-.6.5-.3.4-.2.1-.1a1.4 1.4 0 0 1 .6-.3h.2a1.5 1.5 0 0 1 .2-.2.9.9 0 0 0 .1 0 2.7 2.7 0 0 0 .4-.3 6.3 6.3 0 0 1 .9-.4l.3-.2-.6.3a1.6 1.6 0 0 0 .3 0 .7.7 0 0 0 .1-.1 3 3 0 0 1 .6-.3 1.2 1.2 0 0 0 .3-.2 3 3 0 0 1 .5-.3 2.3 2.3 0 0 1 .4-.1 5.5 5.5 0 0 0 .8-.3l.9-.3h.1a.9.9 0 0 1 .2-.2 1.2 1.2 0 0 0 .2 0l.2-.1a1.6 1.6 0 0 1-.2 0 1.3 1.3 0 0 1-.1 0 1.2 1.2 0 0 1 .2 0l1.2-.5a5.8 5.8 0 0 1 .6-.1.6.6 0 0 0 .3 0l.2-.1h.1l.3-.1.3-.1h.3c-.1 0 0 0 0 0 .3-.1.4-.2.3 0a2.4 2.4 0 0 1 .3-.2 2.8 2.8 0 0 0 .4 0h.2c-.2 0 0 .1.2 0H44.4v-.1h.2-.2a.2.2 0 0 0 .2 0h.1a.3.3 0 0 1 .1 0h.2a2.2 2.2 0 0 0 .3 0 .7.7 0 0 1 .2 0h-.2c-.3 0-.3 0 0 0a1.2 1.2 0 0 1 .3 0 .7.7 0 0 0-.1 0c.4 0 .5-.1.4 0l.3-.1a.9.9 0 0 1-.1 0h-.2v.1h.2a1.6 1.6 0 0 1 .4-.1h-.3v.1c-.1 0-.1 0 0 0h.5-.3c.4-.1.7-.2.4 0a2.3 2.3 0 0 1 .4-.1H47.5a3 3 0 0 1 .3-.1h.1l-.5.1a2.4 2.4 0 0 0 .2 0h.2a1.2 1.2 0 0 0-.2 0h-.2H48h-.1a.7.7 0 0 1-.2 0h.2a2 2 0 0 0 .2 0h-.2a1.2 1.2 0 0 1 .2 0 .4.4 0 0 0-.1 0l-.2.1h-.2.3a1.4 1.4 0 0 0-.3.1 1 1 0 0 1-.2.1h.2l-.3.1h.5-.5.1a1.2 1.2 0 0 0-.1 0h.2l.5-.1h-.4a3.2 3.2 0 0 0-.3.2c.6-.2.8-.1.6 0-.3 0-.1 0 0 0h-.6l-.3.1h.9c.6-.2.5-.2-.2 0-.2 0 0 0 0 0 .4 0 .5 0 0 .1l-.7.2h.1a1.4 1.4 0 0 0 .2 0h.2l.5-.1Z" transform="translate(-2.7 -10.3)"/><path class="cls-5" d="M22.6 47.5c0 .1.1.1 0 0h.1v.2a1 1 0 0 0 0 .2c0-.1 0-.1 0 0v-.1h.1a.4.4 0 0 0 0-.2s0-.1 0 0a.3.3 0 0 1 0 .2l-.1.1a.8.8 0 0 0 .2 0 .5.5 0 0 0 0-.2.4.4 0 0 1 0 .1V48.2h-.1.1v.1c0 .1 0 .1 0 0v.1l.1.1v.1h-.1v.4a.2.2 0 0 0 0 .1.2.2 0 0 0 0 .2.1.1 0 0 1-.2.1v.1h-.1v.1l-.1.1-.1.2-.1.1c0 .1 0 .1 0 0a.5.5 0 0 1-.2.4H22l-.2.2h-.1a1.8 1.8 0 0 0-.2.3v.2h-.1l-.1.1a.2.2 0 0 1-.1.1v.1l-.1.2s.1-.1.1 0l.1-.1v-.2c.1 0 0 .1 0 .2-.2.2-.2.3-.3.2v-.1l-.1.2v.2a1.4 1.4 0 0 1-.3.3l-.3.3c.1 0 .1 0 0 0h-.1c-.1 0 0 0 0 0l.1-.2c.1-.1 0-.2 0 0s-.3.2-.3.3a1 1 0 0 1 0 .2v.1c.1-.1.2 0 0 0a.2.2 0 0 0 0 .1.4.4 0 0 1 .2 0l-.1.2a.4.4 0 0 0-.1.1.3.3 0 0 0 0 .1l-.1.2a.4.4 0 0 1-.2.2l-.1.1h-.1a2 2 0 0 0-.3.5v.1h-.1l-.2.2v.1l-.1.1a.1.1 0 0 1-.1.1h-.1v.2l-.1.2-.2.3-.2.2a1.4 1.4 0 0 1-.2.3.8.8 0 0 1-.3.3l-.2.1h-.1a1.3 1.3 0 0 0-.1.3v.1l-.1.2a1.1 1.1 0 0 1-.2.2v.1l-.2.2a.4.4 0 0 0 0 .2h-.1s0 .1 0 0h.1v.2l-.2.1v.1a.1.1 0 0 1-.1.1l-.2.2-.1.2a1 1 0 0 1-.2.1.3.3 0 0 1-.1.2.3.3 0 0 1-.1.2s0 0 0 .1l-.2.2a1.5 1.5 0 0 1 0 .1h-.1v.1l-.2.2a.2.2 0 0 1-.1 0c0 .2 0 .2-.1.1.1.1.1.1 0 .2 0 0 0 .1 0 0l-.3.3a1 1 0 0 1-.1.2 1 1 0 0 1 0-.2 3.5 3.5 0 0 1-.3.5H14a1.4 1.4 0 0 1-.3.2c-.3 0-.3 0 0 0h-.6c-.3 0-.5 0-.2.2h-.3a.8.8 0 0 0-.2-.2c-.2-.1-.2-.1 0 0l-.1-.2c-.2 0-.1 0-.1-.1l-.2-.4a1 1 0 0 0-.2-.2l-.2-.2-.3-.2a.2.2 0 0 0-.1-.3l-.7-.7c-.2-.3-.1 0-.2-.1l-.8-1v-.2a1.1 1.1 0 0 1-.2 0c.1 0 .1 0 0-.1v-.2h.1c0 .2.2.4.3.4 0 0 0-.2-.3-.4a3 3 0 0 0-.2-.3h-.1a.5.5 0 0 1-.1 0V57v.1a1.4 1.4 0 0 0 0 .2c.1 0 .2.1.1.2l-.2-.3c-.2 0-.3 0-.3-.2V57l-.1-.1h-.1l-.5-.6c-.1 0-.1 0 0-.1l-.1-.1c-.2-.1-.2-.1-.1-.2l-.2-.1h-.1l-.1-.2s0-.1 0 0V55.2a.4.4 0 0 0 0-.1v.1c0 .1-.1 0-.2 0l-.1-.1H7l-.2-.1v-.1H7.1 7h.1c0-.1 0-.1 0 0 .1 0 .1 0 0-.1v-.2a.3.3 0 0 1-.2 0c-.2-.2-.2-.2 0 0 0 0 0 .1 0 0l-.3-.1V54.2l-.3-.3-.3-.1v-.2h-.1v.2-.1l-.1-.1c-.2-.2-.3-.4-.2-.5l-.2-.2a1 1 0 0 1-.1-.2c-.1-.1-.2 0-.2 0l.1.2h-.1a1 1 0 0 0-.2-.3H5c.1.1.1.1 0 0v-.2h-.2l-.1-.2V51.9c-.1 0-.1 0 0 0l-.4-.3a.2.2 0 0 1-.1 0v-.1.1H4v-.2H4v-.1l-.1-.1a.2.2 0 0 1-.2-.1l-.1-.2a.6.6 0 0 1-.1-.1v-.1h-.1l-.2-.2v-.1l-.1-.1V50a.2.2 0 0 0 0-.1H3v-.2c0-.1 0 0 0 0v-.2s-.1 0 0 0l-.1-.1c0-.1 0-.1 0 0V49.1a.6.6 0 0 1-.2-.5.5.5 0 0 1 .1-.3.5.5 0 0 0 0 .2.6.6 0 0 0 0 .4.6.6 0 0 0 0 .2H3a.6.6 0 0 1-.1-.3.4.4 0 0 1 0-.2.5.5 0 0 0 0 .2.5.5 0 0 0 .1.3.6.6 0 0 1 0-.2.8.8 0 0 1-.1-.2.5.5 0 0 1 0-.3.8.8 0 0 0 0 .3.5.5 0 0 0 0 .1.7.7 0 0 1 0-.3.6.6 0 0 1 .2-.2.5.5 0 0 1 .1 0c-.1 0 0 0 0 0H3v.1l-.1.2a.5.5 0 0 0 .1.4.4.4 0 0 1 0-.1.5.5 0 0 1 0-.3.4.4 0 0 0 0 .2.7.7 0 0 0 0 .1c.1 0 .1 0 0 0a.4.4 0 0 1 0-.1c.1.1 0 .1 0 .1h.1a.3.3 0 0 1 0-.3.3.3 0 0 0 0 .2v.1a.3.3 0 0 1 0-.4.3.3 0 0 0 0 .3.2.2 0 0 1 0-.2c0 .2 0 .1 0 0a.2.2 0 0 0 0 .1.2.2 0 0 0 .1.1.1.1 0 0 1 0-.1c0-.2.2-.1.1-.1a.1.1 0 0 0 0 .1h.1c-.1 0 0 0 0 0l.1-.1h.2v-.2.1c0-.1.1 0 .1 0H4l.3.1h.2a.4.4 0 0 1 0 .1l.1.1a.2.2 0 0 1 .1 0 1 1 0 0 1 .2.2v.1H5v.1h.1v.2a.2.2 0 0 1 .1 0v.1q.1 0 0 0h.1a.2.2 0 0 1 0 .2h.1a.3.3 0 0 1 .1.1s.1.1 0 .1h.1l.2.2v.1a.6.6 0 0 1 .1.1l.3.2v.1l.1.2h.1l.2.3.3.3.1.1.2.2v.1l.2.2a.3.3 0 0 1 .2.2l.3.3a2.5 2.5 0 0 0 .3.3l.1.2h.1a.5.5 0 0 1 .3.3l.1.2s.1 0 0 0l.1.1.2.1.1.2.3.3a1.6 1.6 0 0 0 .2.3l.1.1.1.1a1 1 0 0 0 .3.3.3.3 0 0 1 .1.2l.2.2v.1h.1l.1.2.3.2v.1a1 1 0 0 0 .3.4c0-.1.2 0 .3.3l.2.2a.7.7 0 0 0 .1.3c.1.1.2.1.2 0v.2h.1c0 .1.1.2 0 .1a1 1 0 0 1 .2.2l.2.2a3 3 0 0 1 .4.5 1.2 1.2 0 0 1 .1.1c0 .1 0 .1 0 0l.1.1v.1h.1a.1.1 0 0 1 0-.1l.2-.2c-.1 0 0 0 0 0v-.2l.2-.1a1.4 1.4 0 0 1 0-.2.5.5 0 0 1 .2-.1.3.3 0 0 1 0-.1.3.3 0 0 1 .2-.2l.1-.1.2-.2a1 1 0 0 0 .1-.3l.2-.2v-.1l.1-.3.2-.1v-.1h.1V56l.2-.1.2-.1a.2.2 0 0 0 0-.2.2.2 0 0 0 .2-.2l.2-.3.1-.1.1-.2.2-.2a1.3 1.3 0 0 1 .2-.2.2.2 0 0 1 0-.2.5.5 0 0 1 .2-.1v-.2a.1.1 0 0 0 .1 0c0-.2.1-.3.2-.3v-.1a.4.4 0 0 0 .1-.1l.2-.3s0-.2 0 0l.2-.2.1-.2.2-.2v-.1s.1 0 0 0l.1-.2V52l.2-.1h.1l.1-.2c-.1 0 0-.2 0-.2a.2.2 0 0 0 .2-.2c.2-.2.2-.3 0-.2v-.1c.2-.1.2-.1.2 0l.2-.2s0-.1 0 0h-.1c.1-.3.2-.3.1 0a.2.2 0 0 0 .2-.3h.2l.1-.1c-.1 0 0 0 0 0v-.2c0 .1 0 .1.1 0 .1-.2.2-.2.1-.3 0-.1.1-.4 0-.4h.1l.2-.2v-.1l.2-.1V49h.1s.1 0 0 0l.1-.1v-.1c.1 0 .1 0 0 0v-.1c.1 0 .1 0 0 0l.2-.1.1-.1c0-.1 0-.1 0 0 0 0 .1-.1 0-.1h.1l.1-.2h.1V48l.2-.2h.1l.2-.1c0-.2.1-.2.1 0l.1-.2H22v-.1V47.9v-.2h.1v-.1H22.3v.2a.4.4 0 0 0 0-.2l.2.1h-.1.2c0-.1-.1-.1 0 0Z" transform="translate(-2.7 -10.3)"/><path class="cls-5" d="M5.5 51.8Z" transform="translate(-2.7 -10.3)"/></g></g></svg>