<svg xmlns="http://www.w3.org/2000/svg" viewBox="0 0 76.2 82.3"><defs><style>.cls-5{fill:#2e3338}</style></defs><g style="isolation:isolate"><g id="Layer_1" data-name="Layer 1"><path d="M66.4 33.5C62 45 51.6 53.9 43.3 53s-12.1-10.2-8.4-21S48 12.4 57 12.4s13.7 9.4 9.3 21Z" transform="translate(-4.5 -1)" fill="#35d07f"/><path d="M50 52c-4.3 11.7-14.7 20.5-23 19.7s-12.1-10.2-8.4-21S31.7 31 40.8 31s13.7 9.4 9.3 21Z" transform="translate(-4.5 -1)" fill="#fbcc5c" style="mix-blend-mode:multiply"/><path class="cls-5" d="M8.2 60c0 .1 0 0 0 0A.4.4 0 0 1 8 60l-.2-.2-.2-.6a1.1 1.1 0 0 1 0-.2l-.1-.2a.7.7 0 0 0 0 .3l.1.3a2 2 0 0 1-.1-.4s0-.1 0 0c0 0-.1-.2-.1 0a3.8 3.8 0 0 1 .1.4l-.1-.5c-.2-.6-.1 0 0 .3l.1.6a.8.8 0 0 1 0-.4l-.1-.1c-.1-.4-.1-.2 0 .2 0 .3-.1 0-.2-.4v-.4h-.1c-.1-.3-.1-.4 0-.1 0 .4-.6-.8-.7-1.3a.5.5 0 0 0-.1-.1V57a4.4 4.4 0 0 1 .1.5c0 .2-.1-.2-.2-.3V57a.6.6 0 0 0 0-.2c-.2-.3-.2-.3-.1 0l-.2-.6a3.6 3.6 0 0 0 0-.4c-.1.1-.2-.2-.2-.6s-.1-.5-.1-.2v-.2a6 6 0 0 0-.3-1c0 .3 0 0 0 0l-.2-.7a1.2 1.2 0 0 1 0-.2 3.5 3.5 0 0 1-.1-.5l-.1-.2a.2.2 0 0 1 0-.2c0-.2 0-.2 0 0v-.3l-.1-.2a1.3 1.3 0 0 1 0-.5v-.3a1 1 0 0 1-.1-.3 2.2 2.2 0 0 0 0-.4v-.3l-.1-.3v-.1c0-.1 0 0 0 0v-.4c-.2-.5-.1-.8-.1-.7a6 6 0 0 0 0-1 1.4 1.4 0 0 1 0-.4 1.1 1.1 0 0 0 0-.4 5.5 5.5 0 0 1-.1-1 5.7 5.7 0 0 0 0-.8V44a5.4 5.4 0 0 1 0-1l.1-.3a.7.7 0 0 0 0 .1v-.1a4.8 4.8 0 0 0 .1-.7 3 3 0 0 1 0-.3V41a.7.7 0 0 1 .1-.4 2.1 2.1 0 0 0 .1-.4l.1-.6a3.4 3.4 0 0 1 .2-.6 3.8 3.8 0 0 0 0-.7v-.4a3.5 3.5 0 0 0 .2-1 1.3 1.3 0 0 1 .1-.3l.3-1L6 35v-.3l.3-.8.3-1.2.5-1.3a4.2 4.2 0 0 1 .2-.7l.3-.7v-.2a2 2 0 0 1 .3-.7v-.1a4.2 4.2 0 0 1 .6-1.2l.3-.6a6 6 0 0 0 .3-.6 6.4 6.4 0 0 1 .6-1.3l.2-.3.4-.5.3-.6a2.1 2.1 0 0 0 .2-.3 5.6 5.6 0 0 1 .7-1.2l.4-.5v-.1s.1-.1 0-.1l.3-.3.1-.3.2-.3a2 2 0 0 1 .5-.5l.2-.3a.7.7 0 0 1 .2-.2l.3-.4c-.2.2.1-.5.4-.6a3.8 3.8 0 0 0 .7-.8l.5-.5c.4-.5.6-.7.1-.3-.5.5-.5.4.2-.3l.5-.5.8-.7c.2-.2.2-.2 0 0a3.6 3.6 0 0 1-.4.4s0-.2.3-.4c.8-.7 1-1 .3-.2-.5.5-.5.5 0 .2a3.6 3.6 0 0 0 1-1v-.1l.3-.1c.3-.3.3-.2 0 0l.3-.1.5-.5-.3.2.3-.3.5-.4c-.2.3-.2.3.3-.1l.8-.7.2-.3.8-.8.3-.2.8-.6.6-.3a3.1 3.1 0 0 1 .6-.3 1.7 1.7 0 0 1 .3-.3v-.1c0-.1.1 0 .1 0h-.2a1 1 0 0 1 .4-.1.9.9 0 0 0 .1-.1 2.5 2.5 0 0 1 .4-.2 1.1 1.1 0 0 0 .3-.2l.3-.2-.1.1.3-.2h.1a2.4 2.4 0 0 0 .3-.2l.6-.3.3-.1.4-.2a.8.8 0 0 0 .3 0 5 5 0 0 1 .9-.5l.6-.2 1-.5s-.1.1.2 0a.4.4 0 0 1 .1 0h.1c.2-.1.5-.2.2 0H31a1.5 1.5 0 0 0-.4.3 2 2 0 0 0 .6-.2l.5-.3h.2l.2-.1c.1 0 .1 0 0 0l.4-.1h.6l.1-.1-.2.1-.2.1a2.5 2.5 0 0 0-.5.2 1.2 1.2 0 0 1-.2.1 1 1 0 0 0-.3.1 2 2 0 0 1-.2.1.3.3 0 0 0 .2 0L32 7a.5.5 0 0 0 .2 0l.3-.2.5-.2h.1a2.3 2.3 0 0 0 .3-.1c.2-.2.2-.2.3-.1s0 0 .2-.1H34.5c-.1 0-.2 0 0 0l-.4.2-.4.2.7-.2a.6.6 0 0 1 .2-.1s.1 0 0 0a1.4 1.4 0 0 0 .3 0h.2c-.3 0-.2 0-.2.2h.2c.3 0 .3 0 0 0-.2.1-.2.1 0 0l-.1.2h-.1l-.4.1-.5.2h.3l.2-.1h.4c.1 0 .1 0 0 0h-.5c0 .1 0 .1 0 0l-.2.1a2.2 2.2 0 0 0-.3.1 6.4 6.4 0 0 0 .9-.2l-.1.1h-.1l-.2.1a1 1 0 0 1-.3.2h-.2a2 2 0 0 0-.4.2h.4a1.4 1.4 0 0 1-.3.2 3.4 3.4 0 0 0-.4 0c-.2.1 0 .1 0 0h.2a2.2 2.2 0 0 1-.2.2q-.1 0 0 0a.7.7 0 0 0-.1.1 1.8 1.8 0 0 1-.4.2.3.3 0 0 0 .1 0h-.2a2.4 2.4 0 0 0-.3.2l-.2.1-.1.1a1.9 1.9 0 0 1-.2 0 .6.6 0 0 1-.1.1l-.1.1-.2.1a2 2 0 0 0-.4.2 1.1 1.1 0 0 0-.1.1s0 0-.1 0a1.2 1.2 0 0 0-.3.2 2.1 2.1 0 0 0-.5.3 2.4 2.4 0 0 1-.7.4H29l-.2.2h-.2a1.4 1.4 0 0 1-.2.2.4.4 0 0 1-.1 0 .8.8 0 0 0-.3.1l-.3.2a7 7 0 0 0-.5.3 3.7 3.7 0 0 1-.7.4 4 4 0 0 0-.6.4c-.3.2.1-.1 0 0a2.2 2.2 0 0 0-.3 0l-.3.2-.8.4-.2.2-.5.4-.3.2a2.1 2.1 0 0 0-.5.3 3.6 3.6 0 0 1-.5.4l-.3.2a3 3 0 0 1-.5.4l-.3.2.3-.1 1-.7.2-.2.4-.4-.3.3a7.5 7.5 0 0 1-1.8 1.4l-.3.1.5-.4a2.8 2.8 0 0 0-.7.5 3.8 3.8 0 0 0-.5.6s-.4.5-1.1 1.1a13.2 13.2 0 0 0-1.3 1.3c-.2.1-.1 0-.1 0l.2-.2c.2-.2.2-.2 0-.1l-.5.5c-.2.2-.1.1 0 0l.7-.8c.3-.3.3-.4-.1 0a10.2 10.2 0 0 0-1 1.2l-.4.5c-.4.5-.5.6-.2.4.4-.5.5-.5 0 0l-.2.3-.1.2a7.4 7.4 0 0 0-.7.7l-.3.5-.1.1-.2.3-.2.4a6 6 0 0 1-.6.8 5.5 5.5 0 0 0-.6.8l-.2.2c.1-.3.1-.3 0 0a9.4 9.4 0 0 0-.7 1.5v.3a3.7 3.7 0 0 0-.5.5l-.3.5c0-.2 0 0-.2.2a3.9 3.9 0 0 1-.2.5l-.1.4a2 2 0 0 0-.2.3 1.8 1.8 0 0 1-.1.1l-.2.4v.1l-.2.3a7.5 7.5 0 0 0-.4 1v.1l-.4 1.2a4.7 4.7 0 0 1-.5 1.2l-.5 1.4v.1a12.4 12.4 0 0 1-.5 1.6c-.2.8-.3 1.2-.3.8l-.1.2a.6.6 0 0 1 0 .1 7.3 7.3 0 0 0-.2 1 1.7 1.7 0 0 0 0 .5 3.7 3.7 0 0 1-.1 1l-.2.9a1.7 1.7 0 0 1 0 .6l-.1.1v1a6.2 6.2 0 0 0 0 .7.9.9 0 0 1 0-.3 1.7 1.7 0 0 1 0 .6V43a2.1 2.1 0 0 0 0-.3v-.4a3 3 0 0 1 0 1v1.2a2.7 2.7 0 0 1 0 .6l-.1.2a1.4 1.4 0 0 1 0 .2.8.8 0 0 0 0 .1 2.4 2.4 0 0 0 0 .5 5.5 5.5 0 0 1 0 .9v.3-.6a1.4 1.4 0 0 0 0 .3v.1a2.6 2.6 0 0 1 0 .6 1 1 0 0 0 0 .3l.1.6a2 2 0 0 1 .1.4 4.8 4.8 0 0 0 .1.8v.9a.8.8 0 0 1 .1.2 1 1 0 0 0 0 .3v.2a1.4 1.4 0 0 1 0-.2 1.1 1.1 0 0 1 0-.2v.1a1 1 0 0 1 .1.2l.2 1.2a5 5 0 0 1 0 .5.5.5 0 0 0 .1.3V53.6l.1.2.1.3v.4c0 .2.1.3 0 .2a2.1 2.1 0 0 1 0 .3 2.5 2.5 0 0 0 .1.4v.6l.1.3.1.2v-.1h-.1s0-.1 0 0a.2.2 0 0 0 0 .1.4.4 0 0 0 0 .1.3.3 0 0 1 0 .1v.1a2 2 0 0 0 .2.4.6.6 0 0 1 0 .1V57c-.2-.2-.2-.2 0 0v.1a1.1 1.1 0 0 1 0 .2l.1.3v.3h.1a.8.8 0 0 1 0-.1l-.2-.2a.6.6 0 0 0 0 .1l.1.1a1.4 1.4 0 0 1 .1.3l-.1-.2v.3l.1.2-.1-.3c.2.4.3.7.1.4a2.2 2.2 0 0 1 .1.4l.1.2a2.7 2.7 0 0 1 .1.3v.1l-.2-.5a2.2 2.2 0 0 0 .1.3v.1a1.1 1.1 0 0 0 0-.1l-.1-.2v.1a.6.6 0 0 0 0 .1l.2.3a.6.6 0 0 1-.1-.3s-.1 0 0 .2a1.8 1.8 0 0 0 0 .2v-.1a1.1 1.1 0 0 1 0 .1l-.1-.2-.1-.2v.2a1.3 1.3 0 0 0 0-.2h-.1a1 1 0 0 1 0-.2c-.1-.1-.1-.1 0 .2l-.2-.2.1.3v.1-.2l-.1-.3v.2a1.1 1.1 0 0 0 0-.2v.2l.2.5-.1-.3a3 3 0 0 0-.1-.3c.2.6.2.7 0 .5 0-.3 0-.1 0 0l-.1-.4v-.1l-.1-.3v.4a20.7 20.7 0 0 0 .1.3c0-.3 0 0 0 0 .1.4 0 .5-.1 0l-.3-.6c.1.2 0 .2 0 0a1.5 1.5 0 0 0 0 .3l.1.1.2.5Z" transform="translate(-4.5 -1)"/><path class="cls-5" d="M27.9 19.7h-.1a1 1 0 0 0 0-.2v.2h-.1v-.1l.1-.1h-.1l.2.2-.3-.1V19.2a.2.2 0 0 0 0-.1l-.1-.1V18.5a.2.2 0 0 0 0-.2.1.1 0 0 1 .1-.2.1.1 0 0 1 .1-.1v-.1h.1v-.2l.1-.1.1-.1a.2.2 0 0 1 0-.1.5.5 0 0 1 .2-.3c0-.1 0-.1 0 0V17l.2-.2a1.8 1.8 0 0 0 .2-.3l.1-.2.1-.1a.2.2 0 0 1 .1-.2l.1-.2s0-.1 0 0h-.1v.1l-.2.1V16l.3-.3h.1v.2l.1-.2v-.2a1.4 1.4 0 0 1 .2-.4l.3-.4v.1c-.1 0-.1 0 0 0h.1a1.2 1.2 0 0 1-.1.2s0 .1 0 0l.2-.3a1 1 0 0 1 0-.2v-.2c-.1.2-.1.1 0 0a.4.4 0 0 1-.2 0l.1-.3a.4.4 0 0 0 .1 0v-.1a.3.3 0 0 0 0-.1v-.1a.4.4 0 0 1 .2-.2l.1-.2h.1a2 2 0 0 0 .2-.6l.2-.1v-.1h.1v-.2c0-.1 0-.1.1 0V12l.1-.2.2-.3.1-.3.2-.3a1.4 1.4 0 0 1 .2-.3.8.8 0 0 1 .2-.3l.2-.2h.1a1.3 1.3 0 0 0 0-.2v-.1l.1-.3a1.1 1.1 0 0 1 .2-.2v-.1l.2-.2a.4.4 0 0 0 0-.2c0-.1 0-.1 0 0-.1 0 0 0 0-.2 0 0 .1-.2 0-.1h.1v-.1a.1.1 0 0 1 .1-.1L33 8l.1-.2V8a1 1 0 0 1 .2-.2.3.3 0 0 1 .1-.2.3.3 0 0 1 .1-.2v-.1l.1-.2a1.5 1.5 0 0 1 .1-.2h.1v-.2h.1a.1.1 0 0 0 .1 0 .1.1 0 0 1 0-.1h.1v-.1a.2.2 0 0 0-.2 0l-.1.1.1-.1v-.2s0 .1-.1 0h-.1a.2.2 0 0 0-.2 0l-1-.3h-.3l-1-.3h-.3a1.1 1.1 0 0 1-.1-.1l-.1-.2c.2 0 .4.1.4 0h-.4a3 3 0 0 0-.4-.2.5.5 0 0 1-.1 0H30v.1a1.4 1.4 0 0 0 .3.2h.1s0 .1 0 0h-.6l-.1-.1h-.2a2.1 2.1 0 0 1-.8-.1l-.1-.1-.1-.1h-.2a.2.2 0 0 0-.2-.1c0 .1-.2 0-.1 0h-.2s-.1 0 0 0v-.1l-.2-.2-.1.1h-.4.1v-.1c.1 0 .1 0 0 0-.1-.1 0-.1 0-.1.1 0 .1 0 0 0l-.2-.1a.3.3 0 0 1-.2 0c-.2 0-.2 0 0 0 .1 0 .2.1 0 .1h-.2v-.1h-.2a.2.2 0 0 0 0-.1c0-.1-.4-.2-.3 0s-.3 0-.4 0l-.1-.1h-.1l.2.1h-.1c-.1 0 0 0 0 0s-.1-.1-.2 0L25 4h-.3c0-.1 0-.1 0 0a1 1 0 0 1-.2-.1c-.2 0-.2.1 0 .1v.1h-.1a1 1 0 0 0-.2-.1c.2 0 .2 0 0 0l-.1-.2h-.4l-.2-.2h-.5a.2.2 0 0 1-.1 0c0 .1 0 .1 0 0h-.1v-.1a.3.3 0 0 1-.1 0h-.2a.2.2 0 0 1-.2 0l-.2-.1a.6.6 0 0 1-.2 0v-.1H21.6l-.1-.1s-.1 0 0 0h-.2V3h-.1a.2.2 0 0 0-.1-.2s0-.1 0 0a.1.1 0 0 0 0-.1.1.1 0 0 1-.1 0c0-.1 0 0 0 0H21v-.1h-.1c.1 0 0 0 0 0v-.1h-.1v-.1c-.1 0-.2 0 0 0v-.1h-.2l.1-.5-.1.4.1-.4v.4-.4.3-.3.2V2 2v-.2.2-.2.1V2 2v-.1a.1.1 0 0 1 .1 0s-.1 0 0 0c0 0-.1 0 0 0h-.1s-.2 0 0-.2h.2H20.5c-.1.1-.1 0-.1 0a.3.3 0 0 1 .2-.2h.2s-.1 0 0 0c0 0 .1 0 0 0 .2 0 .1-.1 0-.1 0-.1 0 0 0 0 .1 0 0 0 0-.1h.2s.2-.2.3-.1c-.1 0 0-.1 0-.1h.1a.4.4 0 0 1 .2 0 .2.2 0 0 1 .1 0 1 1 0 0 1 .3 0s0 .1 0 0c0 .1 0 0 0 0h.1v.1h.4a.2.2 0 0 1 .1.1h.1a.2.2 0 0 1 .1 0l.1.1a.3.3 0 0 1 .1 0h.2l.2.1h.1a.6.6 0 0 1 .1.1h.4v.1c.1.1.3.1.2 0l.1.1h.3l.2.1h.4a.8.8 0 0 0 .3.1h.1c0 .2 0 .2.2.2a.3.3 0 0 1 .3 0h.4a2.5 2.5 0 0 0 .5.2.1.1 0 0 1 .1 0c0 .1 0 .1.2 0a.5.5 0 0 1 .3.1h.2l.2.1a.3.3 0 0 1 .2 0 .8.8 0 0 0 .2 0l.4.2a1.6 1.6 0 0 0 .3.1h.4a1 1 0 0 0 .4.2.3.3 0 0 1 .2 0l.2.1a.3.3 0 0 0 .1 0h.1l.2.1h.3l.1.1a1 1 0 0 0 .5.2c0-.1.2 0 .4 0l.3.1a.7.7 0 0 0 .2.1c.2.1.2.1.2 0h.2V4c.1 0 .2 0 0 0l.1.1a1 1 0 0 1 .2 0l.3.1a3 3 0 0 1 .6.1 1.4 1.4 0 0 1 .2.1.4.4 0 0 1 .2.1s0 .1.1 0l.6.1a3.5 3.5 0 0 1 .6.3V5h.2v.3c.2.2.2.2.2 0a.4.4 0 0 1 .1.3l.1.6c0-.1.2 0 0 .7l-.4.5-.1.3-.2.3v.2l-.2.2a1.4 1.4 0 0 1 0 .2.5.5 0 0 1-.2.1.3.3 0 0 1 0 .1.3.3 0 0 1-.1.2l-.2.2v.2a1 1 0 0 0-.2.2l-.1.3v.1l-.1.2c0 .1 0 .1 0 0l-.2.2v.1l-.1.1-.2.3a.2.2 0 0 0-.1.2v.1a.2.2 0 0 0-.2.2l-.2.3v.1l-.2.2v.2a1.3 1.3 0 0 1-.2.3.2.2 0 0 1-.1.2.6.6 0 0 1-.1 0V13a.1.1 0 0 0-.1 0l-.1.3-.1.1a.4.4 0 0 0 0 .2l-.2.3s0 .1 0 0l-.2.1v.2l-.2.3-.1.1V14.9l-.2.1-.1.1V15.3a.2.2 0 0 0-.2.2.8.8 0 0 1 0 .1c-.2.2-.2.3 0 .1v.2c-.1.1-.1.1-.1 0 0 0-.2 0-.2.2 0 .1 0 .1 0 0 .1 0 .1 0 0 0 0 .3-.2.3 0 0h-.1a.2.2 0 0 0-.2.3c0 .1-.1.1 0 0h-.2v.2c0-.1 0 0 0 0v.1l-.1.1v.3c-.1.1-.1.4 0 .4h-.1l-.2.2v.1l-.1.2v.1H30v.2s0 .1 0 0v.1c-.1 0-.1 0 0 0-.1 0-.1.1 0 .1H30v.1h-.1v.1h-.1v.1l-.1.2h-.1s0 .1 0 0v.1l-.2.2h-.1l-.2.2c0 .1-.1.2-.1 0v.2h-.2c0 .1 0 .1 0 0l-.1.1h-.1V19.4v.4H28.2v-.2a.4.4 0 0 0-.1.1v.1a.4.4 0 0 1-.1 0 .3.3 0 0 1-.3 0l.1-.1c0-.1 0 0 0 0Z" transform="translate(-4.5 -1)"/><path class="cls-5" d="M24.3 3Z" transform="translate(-4.5 -1)"/><path class="cls-5" d="M77.5 25.8v-.1a.4.4 0 0 1 .1.1l.2.3.1.5a1.1 1.1 0 0 1 .1.3v.1a.7.7 0 0 0 0-.3v-.3a2 2 0 0 1 .1.4s0 .2 0 0c0 .1.1.3 0 .1a3.8 3.8 0 0 1 0-.4l.1.5c.2.5 0 0 0-.3-.2-.4-.2-.7-.1-.6a.8.8 0 0 1 0 .3v.2c.2.3.2.1 0-.3 0-.2.2 0 .2.5l.1.3v.1c.1.3.2.3.1 0 0-.4.5.9.6 1.3a.5.5 0 0 0 .1.2 4.3 4.3 0 0 1 0-.4v.3l.1.2a.6.6 0 0 0 0 .2c.2.3.1.3.1 0l.1.6a3.6 3.6 0 0 0 .1.4l.1.6c0 .4.1.5.1.2v.2a6 6 0 0 0 .3 1c0-.3 0 0 0 0l.2.7v.1a1.2 1.2 0 0 1 0 .2 3.5 3.5 0 0 1 0 .4l.1.3a.2.2 0 0 1 0 .1v.5l.1.1a1.3 1.3 0 0 1 0 .5v.2a1 1 0 0 1 0 .3 2.2 2.2 0 0 0 0 .5v.3-.1a.9.9 0 0 0 0 .1c0 .2 0 .3.1.2v.5c.1.5 0 .9 0 .8a6 6 0 0 0 0 .9 1.4 1.4 0 0 1 0 .4 1.1 1.1 0 0 0 0 .4 5.5 5.5 0 0 1 0 1 5.7 5.7 0 0 0 0 .8l-.1.8a5.4 5.4 0 0 1 0 1l-.1.2a4.8 4.8 0 0 0-.1.7 3 3 0 0 1 0 .3v.2l-.1.2v.3a.7.7 0 0 1 0 .4 2.1 2.1 0 0 0-.2.3l-.1.6a3.4 3.4 0 0 1-.2.7 3.8 3.8 0 0 0-.1.7v.3a3.5 3.5 0 0 0-.3 1 1.3 1.3 0 0 1 0 .3l-.4 1-.2.5v.3l-.3.8L78 53l-.5 1.2a4.2 4.2 0 0 1-.3.8l-.3.6v.2a2 2 0 0 1-.3.7l-.1.1a4.2 4.2 0 0 1-.6 1.2l-.4.6a6 6 0 0 0-.2.6 6.5 6.5 0 0 1-.7 1.2l-.2.3-.4.5-.4.6a2 2 0 0 0-.2.3 5.6 5.6 0 0 1-.7 1.2l-.4.5-.1.2-.2.2-.2.4-.2.2a2 2 0 0 1-.4.5c.1-.3 0 0-.3.2a.7.7 0 0 1-.2.3l-.4.3v.1c.3-.2 0 .4-.3.6a3.8 3.8 0 0 0-.8.7l-.5.5c-.4.4-.6.7-.2.3.6-.5.6-.4-.2.3l-.4.4-.8.7c-.3.2-.3.2 0 0a3.6 3.6 0 0 1 .4-.3l-.4.3c-.8.7-1 .9-.3.2.5-.5.5-.5 0-.1a3.6 3.6 0 0 0-1 .9l-.3.2c-.3.2-.3.1 0-.1l-.4.2-.4.4.2-.2c.3-.2 0 0-.2.3l-.5.4c.2-.3.2-.3-.3.1l-.9.7-.2.3-.8.7-.3.2-.9.5-.6.4a3.1 3.1 0 0 1-.5.3 1.7 1.7 0 0 1-.4.2v.1h-.1.2a1 1 0 0 1-.4.2.9.9 0 0 0-.2 0h.1-.1a2.5 2.5 0 0 1-.3.2 1.1 1.1 0 0 0-.3.2c-.3.2-.3.2-.4.1h.2l-.3.1-.1.1a2.4 2.4 0 0 0-.3.1l-.7.3-.3.1-.4.1a.8.8 0 0 0-.3.2 5 5 0 0 1-.9.3l-.6.2c-.6.4-1.3.6-1 .4h-.3a.4.4 0 0 1 0 .1h-.4l.2-.1h.1a1.5 1.5 0 0 0 .4-.2 2 2 0 0 0-.6.2 7 7 0 0 0-.5.2c-.1 0-.2.1-.2 0l-.2.1c-.1 0-.1 0 0 0l-.5.1c-.2 0-.2 0 0 0h-.7H50.7l.1-.1a2.5 2.5 0 0 0 .5-.2 1.2 1.2 0 0 1 .3 0 1 1 0 0 0 .3-.2 2 2 0 0 1 .2 0 .3.3 0 0 0-.2 0h-.2a.5.5 0 0 0-.2 0l-.3.2-.5.2h-.1a2.3 2.3 0 0 0-.3 0l-.3.2h-.8s.1 0 0 0l.3-.2c.3 0 .5-.2.5-.2l-.7.3a.6.6 0 0 1-.2 0s-.1 0 0 0a1.4 1.4 0 0 0-.4 0h-.1c.2 0 .2 0 .2-.2h-.2c-.3 0-.3 0 0 0 .2-.1.2-.1 0 0-.2 0 0-.1.1-.2.1 0 0 0 0 0l.5-.1.5-.2-.3.1H48.8c-.1 0-.1 0 0 0h.7a2.2 2.2 0 0 0 .3-.2 6.4 6.4 0 0 0-1 .2h.2l.1-.1.2-.1a1 1 0 0 1 .3-.2h.2a2 2 0 0 0 .4-.1h-.4a1.4 1.4 0 0 1 .3-.2h.1a3.4 3.4 0 0 0 .3 0c.2-.1 0-.1 0-.1h-.2a2.2 2.2 0 0 1 .2-.1.4.4 0 0 0 .1 0l-.1-.1a.7.7 0 0 0 .2 0 1.8 1.8 0 0 1 .3-.2.3.3 0 0 0-.1 0h.2a2.4 2.4 0 0 0 .3-.2l.3-.1a2 2 0 0 1 .3-.2c.3 0 .4-.1.2 0v-.1h.2v-.1a2 2 0 0 0 .3-.2 1.1 1.1 0 0 0 .2 0v-.1h.1a1.2 1.2 0 0 0 .3-.1 2.1 2.1 0 0 0 .5-.3 2.4 2.4 0 0 1 .7-.4h.3l.1-.1.2-.1a1.4 1.4 0 0 1 .2-.1.4.4 0 0 1 .1 0 .8.8 0 0 0 .3-.2h.3c.1-.2.3-.3.6-.4a3.7 3.7 0 0 1 .6-.4 4 4 0 0 0 .7-.3c.3-.2-.2 0 0 0a2.2 2.2 0 0 0 .3-.1h.3l.8-.5.2-.2.6-.3.2-.2a2.1 2.1 0 0 0 .6-.3 3.6 3.6 0 0 1 .5-.4l.3-.2a3 3 0 0 1 .5-.4l.3-.2-.3.2-1 .6-.2.2-.4.3.2-.3a7.5 7.5 0 0 1 2-1.2l.2-.2-.5.5a2.8 2.8 0 0 0 .7-.6 3.8 3.8 0 0 0 .5-.5l1.2-1a13.2 13.2 0 0 0 1.4-1.3c.1-.1 0 0 0 0l-.1.2c-.3.2-.3.2 0 .1l.4-.5c.2-.2.2-.1 0 0l-.7.8c-.3.3-.3.4.1 0a10.2 10.2 0 0 0 1.1-1.1l.4-.6c.4-.5.5-.5.2-.3-.5.4-.5.4 0 0l.2-.3c-.2.1.2-.2.1-.2a7.4 7.4 0 0 0 .7-.8l.4-.4.1-.1c0-.2.1-.2.2-.3l.2-.4a6 6 0 0 1 .6-.8 5.5 5.5 0 0 0 .6-.7c.2-.3.3-.3.3-.2-.2.2-.2.3 0 0a9.4 9.4 0 0 0 .7-1.5l.1-.3a3.7 3.7 0 0 0 .5-.5l.3-.5.1-.2a3.9 3.9 0 0 1 .3-.5l.1-.3a2 2 0 0 0 .2-.3 1.8 1.8 0 0 1 .1-.2l.2-.3v-.1c0 .3 0 0 .2-.3a7.5 7.5 0 0 0 .5-.9v-.2l.5-1.2a4.7 4.7 0 0 1 .5-1.1l.6-1.4v-.1a12.4 12.4 0 0 1 .5-1.6c.3-.8.4-1.2.4-.8l.1-.2a.6.6 0 0 1 0-.1 7.3 7.3 0 0 0 .2-1 1.7 1.7 0 0 0 0-.4 3.7 3.7 0 0 1 .2-1l.2-1a1.7 1.7 0 0 1 .1-.6l.2-1a6.2 6.2 0 0 0 0-.7.9.9 0 0 1 0 .3 1.7 1.7 0 0 1 0-.6 2 2 0 0 0-.1.4v.3a3 3 0 0 1 0-1l.1-.6V41.2a2.7 2.7 0 0 1 .1-.5v-.2a1.4 1.4 0 0 1 0-.2.8.8 0 0 0 0-.2 2.4 2.4 0 0 0 0-.4 5.5 5.5 0 0 1 0-1v-.2.6a1.4 1.4 0 0 0 0-.3.6.6 0 0 0 0-.1 2.6 2.6 0 0 1 0-.6 1 1 0 0 0 0-.4v-.5a2 2 0 0 1 0-.4 4.8 4.8 0 0 0-.1-.8v-1a.8.8 0 0 1 0-.2 1 1 0 0 0 0-.2v-.2a1.4 1.4 0 0 1-.1.2 1.1 1.1 0 0 1 0 .1 1 1 0 0 1 0-.3c-.1-.2 0-.6-.2-1.1a5 5 0 0 1 0-.6.5.5 0 0 0 0-.2c-.1 0-.1-.3 0-.2V32l-.2-.2v-.6c0 .1 0 0 0 0V31a2.1 2.1 0 0 1 0-.3 2.5 2.5 0 0 0 0-.3h-.1v-1l-.2-.2.2.1v.1a.2.2 0 0 0 0-.2V29a.3.3 0 0 1-.1-.1v-.1a2 2 0 0 0-.1-.4.6.6 0 0 1 0-.1v.2c.2.2.2.2 0 0 0-.1 0-.1 0 0a1.1 1.1 0 0 1 0-.3V28l-.2-.3a.8.8 0 0 1 .1.1v.2h.1a.6.6 0 0 0 0-.1v-.1a1.4 1.4 0 0 1-.2-.3l.1.2v-.5.3c-.1-.4-.2-.7 0-.4a2.2 2.2 0 0 1-.2-.4v-.2a2.7 2.7 0 0 1-.1-.3V26v.1l.2.5a2.2 2.2 0 0 0-.1-.3v-.1a1.1 1.1 0 0 0 0 .1v.2-.1a.6.6 0 0 0 0-.1V26a.6.6 0 0 1 0 .3s.1 0 0-.2a1.8 1.8 0 0 0 0-.2v.1a1.1 1.1 0 0 1 0-.1l.1.2.1.2v-.2a1.3 1.3 0 0 0 0 .2h.1a1 1 0 0 1 0 .2c.1.1.1.1 0-.2l.2.3-.1-.3V26v.5-.2a1.1 1.1 0 0 0 .1.2v-.2l-.2-.5.1.3a3 3 0 0 0 .1.3c-.2-.6-.2-.7 0-.5 0 .3 0 .1 0 0v.5h.1l.1.3v-.4l-.2-.5c-.2-.6-.1-.5.1.2 0 .3 0 0 0 0 0-.4 0-.5.1 0l.2.7v-.1a1.5 1.5 0 0 0 0-.2v-.2l-.2-.5Z" transform="translate(-4.5 -1)"/><path class="cls-5" d="M55.3 64.7v.1a1 1 0 0 0 0 .1c0-.1 0 0 0 0h.1l-.1-.2.2.1c-.1.1-.1.1-.1 0v.1h.1l-.2-.2.2.2v.2h.1v.2h.1v.2c-.1 0-.1 0 0 0a.1.1 0 0 0 0 .1v.1s0 .1 0 0v.2a.2.2 0 0 0-.1.1.2.2 0 0 0 0 .2.1.1 0 0 1 0 .1h-.1v.1l-.1.1v.1l-.2.3a.2.2 0 0 1 0 .1.5.5 0 0 1-.2.4h-.1l-.1.2-.1.1a1.8 1.8 0 0 0-.2.2v.2c0 .1 0 0 0 0l-.2.2a.2.2 0 0 1 0 .1h-.1v.3l.1-.1.1-.2v.2c-.2.2-.2.3-.3.2v-.1l-.1.2v.2a1.4 1.4 0 0 1-.2.3l-.3.4c.1-.1.1-.1 0-.1v.1c0 .1-.1 0-.1 0a1.2 1.2 0 0 1 0-.2c.1-.1 0-.2 0 0l-.2.3a1 1 0 0 1 0 .2v.1c.2-.1.2 0 .1 0a.2.2 0 0 0 0 .1.4.4 0 0 1 .2 0l-.1.2a.4.4 0 0 0-.1.1.3.3 0 0 0 0 .2.4.4 0 0 1-.2.3l-.1.2h-.1a2 2 0 0 0-.2.5c0 .1 0 .1 0 0l-.2.2c0 .1 0 0 0 0l-.1.1v.2h-.1v.1a.1.1 0 0 1-.1 0v.2l-.2.3-.1.3-.2.2a1.4 1.4 0 0 1-.2.3.8.8 0 0 1-.2.4c-.1.2-.2.2-.2.1a1.3 1.3 0 0 0-.1.3v.1l-.1.2a1.1 1.1 0 0 1-.2.2v.2l-.2.2a.4.4 0 0 0 0 .2s0-.1 0 0v-.1h.1v.2l-.1.2-.1.1a.1.1 0 0 1 0 .1c-.2 0-.2.1-.2.2l-.1.2a1 1 0 0 1-.2.2.3.3 0 0 1-.1.2.3.3 0 0 1 0 .1l-.1.2v.2a1.5 1.5 0 0 1-.2.1s0 .1 0 0v.1l-.2.2c.1 0 .1 0 0 0h-.1a.1.1 0 0 1 0 .1H49a.4.4 0 0 1 .1 0 .2.2 0 0 0 .2 0l-.1.1v.1h.2a.2.2 0 0 0 .3.1l1 .3c.2 0 0-.2.2-.1l1.1.3.2.1a1 1 0 0 1 .1 0v.1l.2.2h-.1L52 79l.4.1a3 3 0 0 0 .4.1.5.5 0 0 1 .2 0V79a1.4 1.4 0 0 0-.3-.1s-.1 0 0 0v-.1h.2v.1h.4s0 .1 0 0h.2c.1.1.1 0 .1 0a2.1 2.1 0 0 1 .7.2h.2v.2h.2a.2.2 0 0 0 .3 0h.2s.2.1 0 .1h.1v.1l.1.1a.4.4 0 0 0 .1 0c-.1-.1 0-.1 0 0h.2l.1-.1h.2l-.2.1h.1-.1c.1.2.1.2 0 .1v.1h.3a.3.3 0 0 1 .1 0c.2 0 .2 0 0 0-.1 0-.1 0 0 0H56.6l.1.1c.1.2.4.2.4.1H57.7h-.2V80h.1l.2.1c.2 0 .4.2.3.3h.3c.1.1.1.1.1 0a1 1 0 0 1 .2.1c.1 0 .1-.1 0-.1l-.1-.1h.2a1 1 0 0 0 .2.1c-.2 0-.2 0 0 .1l.1.1h.4l.1.2c.1 0 .1 0 0 0l.5.1a.1.1 0 0 1 .1 0v-.1c0-.1 0-.1.1 0 0 0 .1 0 0 0h.1v.1H60.8a.2.2 0 0 1 .1 0h.1l.2.1a.6.6 0 0 1 .1 0v.1h.4l.1.1h.2v.1h.1a.2.2 0 0 0 0 .1c.1 0 .1 0 0 0v.1h.1a.1.1 0 0 0 0 .1.1.1 0 0 1 .1 0v.1h.2c-.1 0-.1 0 0 0v.1h.1-.1.1v.1s.1 0 0 0v.1h.1v.5-.5.5-.4.4-.3.3-.2.2-.2.2-.2.2-.1.1-.1.1a.1.1 0 0 1-.1 0c.1 0 .2 0 .1.2h-.2.3c0-.2 0-.1 0 0a.3.3 0 0 1-.1.1h-.2v.1s-.1 0 0 0h-.1c-.1 0 0 0 0 0l.1.2c-.1-.1-.1 0 0 0h-.1s-.1 0 0 0h-.1l-.3.1c0 .1 0 .1 0 0v.1h-.5a1 1 0 0 1-.2 0s0-.1-.1 0c0-.1 0 0 0 0v-.1h-.2s-.1 0 0 0h-.2V83a.2.2 0 0 1-.1 0q-.1 0 0 0h-.1a.2.2 0 0 1-.2 0V83a.3.3 0 0 1-.1 0H60l-.2-.1h-.2a.6.6 0 0 1 0-.1h-.4v-.1h-.3v-.1h-.4v-.1H57.8a.8.8 0 0 0-.2-.1h-.1l-.3-.1a.3.3 0 0 1-.2 0l-.1-.1h-.3a2.5 2.5 0 0 0-.5-.2.1.1 0 0 1-.2 0H56a.5.5 0 0 1-.3 0l-.3-.1h-.1v-.1a.3.3 0 0 1-.2 0 .8.8 0 0 0-.3 0l-.3-.2a1.6 1.6 0 0 0-.3 0l-.2-.1h-.2a1 1 0 0 0-.4-.1.3.3 0 0 1-.2-.1h-.2v-.1a.3.3 0 0 0-.2 0c-.1 0-.3-.1-.2 0h-.1l-.2-.1H52a1 1 0 0 0-.4-.2c0 .1-.2 0-.4 0l-.3-.1a.7.7 0 0 0-.3-.2H50.3l-.1-.1a1 1 0 0 1-.3 0l-.3-.1a3 3 0 0 1-.5-.2 1.4 1.4 0 0 1-.2 0 .4.4 0 0 1-.2-.1s-.1-.1-.2 0l-.5-.2a3.5 3.5 0 0 1-.7-.3s-.1 0-.1-.1l-.1-.2c-.2-.2-.2-.2-.1 0a.4.4 0 0 1-.2-.3v-.6c-.1.1-.2 0 0-.7l.3-.5.2-.3.1-.3v-.2l.2-.2a1.4 1.4 0 0 1 .1-.2.5.5 0 0 1 0-.1h.1a.3.3 0 0 1 0-.1.3.3 0 0 1 .1-.2l.2-.2v-.2a1 1 0 0 0 .2-.3l.1-.2s.1-.1 0-.1l.2-.3.1-.1a.2.2 0 0 1 0-.1h.1v-.2l.2-.2v-.1a.2.2 0 0 0 .1-.2.2.2 0 0 0 .2-.2l.2-.3v-.1l.2-.2v-.3a1.3 1.3 0 0 1 .2-.2.2.2 0 0 1 .1-.2.5.5 0 0 1 .1-.1v-.2a.1.1 0 0 0 .1 0l.1-.3.1-.1a.4.4 0 0 0 0-.2l.2-.3s0-.1 0 0l.2-.2v-.2l.2-.2.1-.2v-.2c0-.2.1-.2.2-.2 0 .1 0 0 0 0h.1v-.2c-.1 0 0-.1 0-.2a.2.2 0 0 0 .2-.2c.1-.2.2-.3 0-.2 0 .1-.1 0 0-.1l.1-.1.2-.2c-.1.1-.1.1 0 0 0-.2.1-.3 0 0 0 .1 0 .1.1 0a.2.2 0 0 0 .1-.3h.2l.1-.1c-.1 0 0 0 0 0v-.2c0 .1 0 .1.1 0V67l.2-.2.1-.2v-.1l.1-.2h.1s.1 0 0 0v-.1h.1V66l.1-.1v-.1h.1v-.1c.1 0 .1 0 0 0h.1v-.1l.1-.2h.1l.1-.3h.1l.2-.2s.2-.1.2 0v-.1h.1v-.1h.2c0-.1 0 0 0 0v.2-.2h.1v-.1h.1v-.1h.1l.1.1v.1a.4.4 0 0 0 0-.1.4.4 0 0 1 .2-.1v.1a.3.3 0 0 1 .2-.1.2.2 0 0 1 .1 0l-.2.1v.1Z" transform="translate(-4.5 -1)"/><path class="cls-5" d="M59 81.4Z" transform="translate(-4.5 -1)"/></g></g></svg>