<svg width="32" height="32" viewBox="0 0 32 32" fill="none" xmlns="http://www.w3.org/2000/svg">
<g id="Frame">
<path id="Vector" d="M23.4 24H13.6C13.4409 24 13.2883 23.9368 13.1757 23.8243C13.0632 23.7117 13 23.5591 13 23.4V13.6C13 13.4409 13.0632 13.2883 13.1757 13.1757C13.2883 13.0632 13.4409 13 13.6 13H23.4C23.5591 13 23.7117 13.0632 23.8243 13.1757C23.9368 13.2883 24 13.4409 24 13.6V23.4C24 23.5591 23.9368 23.7117 23.8243 23.8243C23.7117 23.9368 23.5591 24 23.4 24Z" stroke="white" stroke-width="1.33" stroke-linecap="square"/>
<path id="Vector_2" d="M19 13V8.6C19 8.44087 18.9368 8.28826 18.8243 8.17574C18.7117 8.06321 18.5591 8 18.4 8H8.6C8.44087 8 8.28826 8.06321 8.17574 8.17574C8.06321 8.28826 8 8.44087 8 8.6V18.4C8 18.5591 8.06321 18.7117 8.17574 18.8243C8.28826 18.9368 8.44087 19 8.6 19H13" stroke="white" stroke-width="1.33" stroke-linecap="square"/>
</g>
</svg>
