<svg width="32" height="32" viewBox="0 0 32 32" fill="none" xmlns="http://www.w3.org/2000/svg">
<g id="Frame">
<path id="Vector" d="M25 11.353V20.647C25.0001 20.7541 24.9714 20.8593 24.9171 20.9516C24.8627 21.0439 24.7847 21.12 24.691 21.172L16.291 25.838C16.202 25.8874 16.1018 25.9133 16 25.9133C15.8982 25.9133 15.798 25.8874 15.709 25.838L7.309 21.172C7.21532 21.12 7.13725 21.0439 7.08292 20.9516C7.02858 20.8593 6.99995 20.7541 7 20.647V11.353C7.00013 11.246 7.02884 11.1411 7.08317 11.0489C7.1375 10.9568 7.21547 10.8809 7.309 10.829L15.709 6.16199C15.798 6.11261 15.8982 6.0867 16 6.0867C16.1018 6.0867 16.202 6.11261 16.291 6.16199L24.691 10.829C24.7845 10.8809 24.8625 10.9568 24.9168 11.0489C24.9712 11.1411 24.9999 11.246 25 11.353Z" stroke="white" stroke-width="1.33" stroke-linecap="square"/>
<path id="Vector_2" d="M7.52734 11.294L15.7073 15.838C15.7965 15.8876 15.8968 15.9136 15.9988 15.9136C16.1009 15.9136 16.2012 15.8876 16.2903 15.838L24.4993 11.278M15.9993 25V16" stroke="white" stroke-width="1.33" stroke-linecap="square"/>
</g>
</svg>
