<svg width="20" height="20" viewBox="0 0 20 20" fill="none" xmlns="http://www.w3.org/2000/svg">
<g id="Frame">
<path id="Vector" d="M7.99503 3.28333C8.07003 2.83167 8.4617 2.5 8.92003 2.5H11.0809C11.5392 2.5 11.9309 2.83167 12.0059 3.28333L12.1834 4.35083C12.2359 4.6625 12.4442 4.9225 12.7209 5.07583C12.7825 5.10917 12.8434 5.145 12.9042 5.18167C13.1742 5.345 13.5042 5.39583 13.8 5.285L14.8142 4.905C15.022 4.82684 15.2509 4.82498 15.4599 4.89976C15.669 4.97454 15.8447 5.1211 15.9559 5.31333L17.0359 7.18583C17.1467 7.37809 17.1858 7.60344 17.1461 7.8218C17.1065 8.04017 16.9906 8.23737 16.8192 8.37833L15.9834 9.0675C15.7392 9.2675 15.6184 9.57833 15.6242 9.89417C15.6255 9.96499 15.6255 10.0358 15.6242 10.1067C15.6184 10.4217 15.7392 10.7317 15.9825 10.9317L16.82 11.6217C17.1734 11.9133 17.265 12.4167 17.0367 12.8133L15.955 14.6858C15.8441 14.878 15.6685 15.0246 15.4596 15.0996C15.2507 15.1745 15.022 15.1729 14.8142 15.095L13.8 14.715C13.5042 14.6042 13.175 14.655 12.9034 14.8183C12.8429 14.8551 12.7818 14.8906 12.72 14.925C12.4442 15.0775 12.2359 15.3375 12.1834 15.6492L12.0059 16.7158C11.9309 17.1683 11.5392 17.5 11.0809 17.5H8.9192C8.46086 17.5 8.0692 17.1683 7.9942 16.7167L7.8167 15.6492C7.76503 15.3375 7.5567 15.0775 7.28003 14.9242C7.21824 14.8901 7.15711 14.8548 7.0967 14.8183C6.82586 14.655 6.4967 14.6042 6.20003 14.715L5.18586 15.095C4.97814 15.1729 4.7495 15.1747 4.54061 15.0999C4.33172 15.0251 4.15612 14.8787 4.04503 14.6867L2.9642 12.8142C2.85331 12.6219 2.81424 12.3966 2.85391 12.1782C2.89358 11.9598 3.00944 11.7626 3.18086 11.6217L4.01753 10.9325C4.26086 10.7325 4.3817 10.4217 4.37586 10.1058C4.37456 10.035 4.37456 9.96416 4.37586 9.89333C4.3817 9.57833 4.26086 9.26833 4.01753 9.06833L3.18086 8.37833C3.00965 8.23741 2.89392 8.04036 2.85426 7.82219C2.81459 7.60401 2.85354 7.37884 2.9642 7.18667L4.04503 5.31417C4.15602 5.12178 4.33171 4.97505 4.54079 4.90011C4.74987 4.82518 4.97877 4.82691 5.1867 4.905L6.20003 5.285C6.4967 5.39583 6.82586 5.345 7.0967 5.18167C7.1567 5.145 7.21836 5.10917 7.28003 5.075C7.5567 4.9225 7.76503 4.6625 7.8167 4.35083L7.99503 3.28333Z" stroke="#02010A" stroke-width="1.33" stroke-linecap="square"/>
<path id="Vector_2" d="M12.5 10C12.5 10.663 12.2366 11.2989 11.7678 11.7678C11.2989 12.2366 10.663 12.5 10 12.5C9.33696 12.5 8.70107 12.2366 8.23223 11.7678C7.76339 11.2989 7.5 10.663 7.5 10C7.5 9.33696 7.76339 8.70107 8.23223 8.23223C8.70107 7.76339 9.33696 7.5 10 7.5C10.663 7.5 11.2989 7.76339 11.7678 8.23223C12.2366 8.70107 12.5 9.33696 12.5 10Z" stroke="#02010A" stroke-width="1.33" stroke-linecap="square"/>
</g>
</svg>
