<svg width="32" height="32" viewBox="0 0 32 32" fill="none" xmlns="http://www.w3.org/2000/svg">
<g id="Frame">
<path id="Vector" d="M16 16H23M23 16L20 19M23 16L20 13M23 10V9C23 8.46957 22.7893 7.96086 22.4142 7.58579C22.0391 7.21071 21.5304 7 21 7H11C10.4696 7 9.96086 7.21071 9.58579 7.58579C9.21071 7.96086 9 8.46957 9 9V23C9 23.5304 9.21071 24.0391 9.58579 24.4142C9.96086 24.7893 10.4696 25 11 25H21C21.5304 25 22.0391 24.7893 22.4142 24.4142C22.7893 24.0391 23 23.5304 23 23V22" stroke="#02010A" stroke-width="1.33" stroke-linecap="square"/>
</g>
</svg>
