<svg width="12" height="12" viewBox="0 0 12 12" fill="none" xmlns="http://www.w3.org/2000/svg">
<g clip-path="url(#clip0_665_326)">
<path d="M10.1667 5.99984H10.5834M6.00008 1.83317V1.4165M6.00008 10.5832V10.1665M9.33341 9.33317L8.91675 8.9165M9.33341 2.6665L8.91675 3.08317M2.66675 9.33317L3.08341 8.9165M2.66675 2.6665L3.08341 3.08317M1.41675 5.99984H1.83341M6.00008 8.49984C6.66312 8.49984 7.29901 8.23644 7.76785 7.7676C8.23669 7.29876 8.50008 6.66288 8.50008 5.99984C8.50008 5.3368 8.23669 4.70091 7.76785 4.23207C7.29901 3.76323 6.66312 3.49984 6.00008 3.49984C5.33704 3.49984 4.70116 3.76323 4.23231 4.23207C3.76347 4.70091 3.50008 5.3368 3.50008 5.99984C3.50008 6.66288 3.76347 7.29876 4.23231 7.7676C4.70116 8.23644 5.33704 8.49984 6.00008 8.49984Z" stroke="#02010A" stroke-width="1.33" stroke-linecap="round" stroke-linejoin="round"/>
</g>
<defs>
<clipPath id="clip0_665_326">
<rect width="12" height="12" fill="white"/>
</clipPath>
</defs>
</svg>
