<svg width="20" height="20" viewBox="0 0 20 20" fill="none" xmlns="http://www.w3.org/2000/svg">
<g id="Frame">
<path id="Vector" d="M15.8333 16.6667H4.16667C3.72464 16.6667 3.30072 16.4911 2.98816 16.1786C2.67559 15.866 2.5 15.4421 2.5 15V7.50004C2.5 7.05801 2.67559 6.63409 2.98816 6.32153C3.30072 6.00897 3.72464 5.83337 4.16667 5.83337H15.8333C16.2754 5.83337 16.6993 6.00897 17.0118 6.32153C17.3244 6.63409 17.5 7.05801 17.5 7.50004V15C17.5 15.4421 17.3244 15.866 17.0118 16.1786C16.6993 16.4911 16.2754 16.6667 15.8333 16.6667Z" stroke="#02010A" stroke-width="1.33" stroke-linecap="square"/>
<path id="Vector_2" d="M13.75 11.6667C13.6395 11.6667 13.5336 11.6228 13.4554 11.5447C13.3773 11.4665 13.3334 11.3605 13.3334 11.25C13.3334 11.1395 13.3773 11.0336 13.4554 10.9554C13.5336 10.8773 13.6395 10.8334 13.75 10.8334C13.8605 10.8334 13.9665 10.8773 14.0447 10.9554C14.1228 11.0336 14.1667 11.1395 14.1667 11.25C14.1667 11.3605 14.1228 11.4665 14.0447 11.5447C13.9665 11.6228 13.8605 11.6667 13.75 11.6667Z" stroke="#02010A" stroke-width="1.33" stroke-linecap="square"/>
<path id="Vector_3" d="M15 5.8333V4.66913C14.9999 4.41372 14.9412 4.16174 14.8282 3.93265C14.7153 3.70356 14.5512 3.50349 14.3487 3.34789C14.1461 3.1923 13.9105 3.08533 13.66 3.03527C13.4096 2.9852 13.151 2.99336 12.9042 3.05913L3.7375 5.5033C3.38254 5.59789 3.06878 5.8071 2.84499 6.09841C2.6212 6.38971 2.49992 6.74679 2.5 7.11413V7.49997" stroke="#02010A" stroke-width="1.33" stroke-linecap="square"/>
</g>
</svg>
