<svg width="500" height="501" viewBox="0 0 500 501" fill="none" xmlns="http://www.w3.org/2000/svg">
<g clip-path="url(#clip0_11696_181)">
<path d="M250 500.656C388.071 500.656 500 388.727 500 250.656C500 112.585 388.071 0.65625 250 0.65625C111.929 0.65625 0 112.585 0 250.656C0 388.727 111.929 500.656 250 500.656Z" fill="#008799"/>
<path d="M201.932 372.018C146.192 372.018 100.632 326.468 100.632 270.718C100.632 231.158 123.412 196.388 156.972 180.208V143.648C104.822 162.228 67.0625 211.978 67.0625 270.718C67.0625 345.048 127.602 405.588 201.932 405.588C260.673 405.588 310.423 367.828 329.003 315.678H292.443C276.263 349.248 241.492 372.018 201.932 372.018Z" fill="#FCFBFF"/>
<path d="M383.398 239.829V198.801C397.405 202.307 408.415 206.806 408.415 218.818C408.415 229.829 398.908 237.834 383.398 239.829ZM364.391 277.852H384.408V262.342C413.925 258.836 432.94 241.824 432.94 218.81C432.94 186.789 407.422 179.786 383.406 175.278V132.748C394.917 133.749 407.422 137.247 418.933 142.756V117.739C407.923 113.732 395.919 111.236 384.408 110.735V95.7266H364.391V110.735C333.872 114.241 316.359 131.253 316.359 152.765C316.359 185.287 341.377 192.791 365.392 197.299V239.829C350.885 237.826 335.375 231.824 317.361 222.316V248.836C332.871 256.34 348.881 261.349 364.391 262.342V277.852ZM365.392 173.283C351.385 170.278 340.876 165.278 340.876 152.765C340.876 141.254 349.883 134.25 365.392 132.748V173.275V173.283Z" fill="#FCFBFF"/>
<path d="M194.083 260.996H170.312L223.723 112.578H249.594L303.005 260.996H279.235L237.275 139.537H236.115L194.083 260.996ZM198.068 202.875H275.176V221.718H198.068V202.875Z" fill="#FCFBFF"/>
</g>
<defs>
<clipPath id="clip0_11696_181">
<rect width="500" height="500" fill="white" transform="translate(0 0.65625)"/>
</clipPath>
</defs>
</svg>
