<svg width="500" height="501" viewBox="0 0 500 501" fill="none" xmlns="http://www.w3.org/2000/svg">
<g clip-path="url(#clip0_11696_190)">
<path d="M250 500.656C388.071 500.656 500 388.727 500 250.656C500 112.585 388.071 0.65625 250 0.65625C111.929 0.65625 0 112.585 0 250.656C0 388.727 111.929 500.656 250 500.656Z" fill="#4EEAFF"/>
<path d="M198.268 373.198C142.528 373.198 96.9684 327.648 96.9684 271.898C96.9684 232.338 119.748 197.568 153.308 181.388V144.828C101.158 163.408 63.3984 213.158 63.3984 271.898C63.3984 346.228 123.938 406.768 198.268 406.768C257.008 406.768 306.758 369.008 325.338 316.858H288.778C272.598 350.428 237.828 373.198 198.268 373.198Z" fill="#070010"/>
<path d="M387.079 237.778V196.749C401.087 200.255 412.097 204.755 412.097 216.767C412.097 227.778 402.589 235.783 387.079 237.778ZM368.072 275.802H388.089V260.292C417.607 256.786 436.623 239.773 436.623 216.759C436.623 184.737 411.104 177.733 387.088 173.225V130.694C398.599 131.696 411.104 135.193 422.616 140.703V115.685C411.605 111.678 399.601 109.182 388.089 108.681V93.6719H368.072V108.681C337.553 112.187 320.039 129.2 320.039 150.712C320.039 183.234 345.057 190.739 369.073 195.247V237.778C354.565 235.775 339.055 229.773 321.041 220.265V246.785C336.551 254.29 352.562 259.298 368.072 260.292V275.802ZM369.073 171.23C355.066 168.225 344.556 163.225 344.556 150.712C344.556 139.2 353.563 132.196 369.073 130.694V171.222V171.23Z" fill="#070010"/>
<path d="M306.68 159.48H284.671C283.824 154.777 282.249 150.639 279.945 147.065C277.64 143.49 274.819 140.457 271.479 137.965C268.14 135.472 264.402 133.591 260.263 132.321C256.172 131.051 251.822 130.417 247.213 130.417C238.889 130.417 231.435 132.509 224.851 136.695C218.314 140.88 213.141 147.018 209.331 155.106C205.569 163.195 203.688 173.071 203.688 184.734C203.688 196.492 205.569 206.415 209.331 214.503C213.141 222.592 218.337 228.706 224.921 232.845C231.505 236.983 238.912 239.052 247.142 239.052C251.704 239.052 256.031 238.441 260.122 237.218C264.261 235.948 267.999 234.091 271.338 231.645C274.677 229.2 277.499 226.214 279.804 222.686C282.155 219.112 283.777 215.021 284.671 210.412L306.68 210.483C305.505 217.584 303.224 224.121 299.838 230.093C296.499 236.019 292.196 241.145 286.928 245.472C281.708 249.751 275.736 253.067 269.01 255.418C262.285 257.77 254.949 258.945 247.001 258.945C234.492 258.945 223.346 255.983 213.564 250.057C203.782 244.084 196.069 235.549 190.426 224.45C184.829 213.351 182.031 200.113 182.031 184.734C182.031 169.309 184.853 156.071 190.496 145.019C196.14 133.92 203.852 125.408 213.634 119.482C223.416 113.51 234.539 110.523 247.001 110.523C254.667 110.523 261.815 111.629 268.446 113.839C275.124 116.002 281.12 119.2 286.435 123.433C291.749 127.618 296.146 132.744 299.626 138.811C303.106 144.831 305.458 151.72 306.68 159.48Z" fill="#070010"/>
</g>
<defs>
<clipPath id="clip0_11696_190">
<rect width="500" height="500" fill="white" transform="translate(0 0.65625)"/>
</clipPath>
</defs>
</svg>
