<svg width="500" height="501" viewBox="0 0 500 501" fill="none" xmlns="http://www.w3.org/2000/svg">
<g clip-path="url(#clip0_11696_206)">
<path d="M250 500.656C388.071 500.656 500 388.727 500 250.656C500 112.585 388.071 0.65625 250 0.65625C111.929 0.65625 0 112.585 0 250.656C0 388.727 111.929 500.656 250 500.656Z" fill="#7005FC"/>
<path d="M243.768 385.198C188.028 385.198 142.468 339.648 142.468 283.898C142.468 244.338 165.248 209.568 198.808 193.388V156.828C146.658 175.408 108.898 225.158 108.898 283.898C108.898 358.228 169.438 418.768 243.768 418.768C302.508 418.768 352.258 381.008 370.838 328.858H334.278C318.098 362.428 283.328 385.198 243.768 385.198Z" fill="#FCFBFF"/>
<path d="M264.52 286.648V83.0078H390.801V109.457H295.246V171.504H381.753V197.854H295.246V286.648H264.52ZM234.094 251.647V231.065H325.473V251.647H234.094Z" fill="#FCFBFF"/>
<path d="M243.768 385.198C188.028 385.198 142.468 339.648 142.468 283.898C142.468 244.338 165.248 209.568 198.808 193.388V156.828C146.658 175.408 108.898 225.158 108.898 283.898C108.898 358.228 169.438 418.768 243.768 418.768C302.508 418.768 352.258 381.008 370.838 328.858H334.278C318.098 362.428 283.328 385.198 243.768 385.198Z" fill="#FCFBFF"/>
<path d="M265.375 284.828V84.8281H389.398V110.805H295.551V171.742H380.512V197.621H295.551V284.828H265.375ZM235.492 250.453V230.238H325.238V250.453H235.492Z" fill="#FCFBFF"/>
</g>
<defs>
<clipPath id="clip0_11696_206">
<rect width="500" height="500" fill="white" transform="translate(0 0.65625)"/>
</clipPath>
</defs>
</svg>
