<svg xmlns="http://www.w3.org/2000/svg" width="2084" height="2084" style="shape-rendering:geometricPrecision;text-rendering:geometricPrecision;image-rendering:optimizeQuality;fill-rule:evenodd;clip-rule:evenodd"><path style="opacity:.999" fill="#e6e2d3" d="M1002.5 120.5c264.46-7.153 494.46 77.014 690 252.5 164.46 154.044 263.96 343.211 298.5 567.5 34.08 264.62-27.92 503.62-186 717-138.63 178.46-318.13 295.29-538.5 350.5-216.96 49.34-426.629 28-629-64-185.554-88.7-329.054-222.54-430.5-401.5-112.022-207.14-145.689-426.48-101-658C150.012 679.564 248.845 506.731 402.5 366c170.881-151.173 370.881-233.006 600-245.5z"/><path style="opacity:1" fill="#df9805" d="M517.5 1126.5v4h-156c4.492-5.64 8.992-11.3 13.5-17 .424-2.83-.91-4.16-4-4-5.459.9-10.459 2.9-15 6a40.036 40.036 0 0 0-8-5c-.833.33-1.667.67-2.5 1a24.926 24.926 0 0 1-5 6.5c-4.055.23-8.055.73-12 1.5-3.99 4.04-3.99 8.04 0 12h-9a627.25 627.25 0 0 1-.5-89c1.011.84 2.178 1.17 3.5 1v-3h-4c5.932-117.918 38.599-227.752 98-329.5 3.212.565 6.379.398 9.5-.5.667-1.333.667-2.667 0-4-1.972-.805-3.472-2.139-4.5-4 18.604-31.272 39.604-60.606 63-88 10.025-13.202 21.025-25.702 33-37.5 6.725.325 11.058-3.009 13-10-.687-1.162-.853-2.328-.5-3.5 77.718-77.227 168.385-134.56 272-172-.226 59.994-.559 119.994-1 180a135.437 135.437 0 0 0-3.5 16c1.322-.17 2.489.163 3.5 1 .804 5.251.637 10.418-.5 15.5-27.61 14.3-53.61 30.967-78 50-2.026-.463-4.026-1.296-6-2.5-4.242.729-6.408 3.063-6.5 7a15.256 15.256 0 0 0 4.5 1.5c-52.673 42.65-95.84 93.15-129.5 151.5-4.84.014-7.673 2.347-8.5 7 1.478-.262 2.811.071 4 1-51.837 95.85-72.837 198.18-63 307z"/><path style="opacity:1" fill="#fef5ec" d="M726.5 507.5c3.149-.289 6.149.211 9 1.5 2.826 2.522 2.493 4.522-1 6a49.226 49.226 0 0 1-14 0c-1.035-1.507-.868-3.007.5-4.5a86.818 86.818 0 0 1 5.5-3z"/><path style="opacity:1" fill="#fef8f3" d="M698.5 531.5c3.45.073 4.783 1.906 4 5.5a502.174 502.174 0 0 0-1.5 17.5c-9.068 9.119-19.901 14.286-32.5 15.5-3.628-.79-5.628-2.957-6-6.5 4.219.521 7.886-.646 11-3.5a45.984 45.984 0 0 0 10-2c1.076-1.726 1.243-3.559.5-5.5a45.223 45.223 0 0 1-4.5-7c1.948-7.778 6.948-11.611 15-11.5 1.566-.608 2.9-1.442 4-2.5z"/><path style="opacity:1" fill="#fcf0de" d="M734.5 538.5a18.453 18.453 0 0 1 6 .5c1.035 1.507.868 3.007-.5 4.5-6.521 2.48-8.355.813-5.5-5z"/><path style="opacity:1" fill="#fef7ef" d="M611.5 541.5c1.644-.214 3.144.12 4.5 1 2.455 3.686 3.455 7.686 3 12a3.943 3.943 0 0 1-2 1c-4.912-2.343-10.078-3.343-15.5-3 1.912-4.914 5.245-8.581 10-11z"/><path style="opacity:1" fill="#fef5ec" d="M658.5 541.5c4.476.322 5.976 2.656 4.5 7-1.667 2.667-3.333 2.667-5 0-.703-2.429-.537-4.762.5-7z"/><path style="opacity:1" fill="#fdf2e4" d="M793.5 552.5c1.752-.082 2.752.751 3 2.5-1.375 3.069-3.041 3.236-5 .5a185.977 185.977 0 0 0 2-3z"/><path style="opacity:1" fill="#fdf3e6" d="M651.5 553.5c4.659-.485 5.992 1.348 4 5.5-3.24 2.363-5.574 1.697-7-2 .571-1.599 1.571-2.766 3-3.5z"/><path style="opacity:1" fill="#fef5ec" d="M674.5 575.5c3.787-.686 6.954.314 9.5 3-1.84 7.483-4.84 7.817-9 1a8.43 8.43 0 0 1-.5-4z"/><path style="opacity:1" fill="#fdf4e9" d="M748.5 578.5h3c-.667 4-3 6.333-7 7-.313-3.337 1.02-5.671 4-7z"/><path style="opacity:1" fill="#fef8f3" d="M616.5 582.5c4.212-.422 8.212.244 12 2a12.403 12.403 0 0 1 2.5 4c-.786 7.289 2.381 11.456 9.5 12.5l3 5c5.777-1.003 9.61 1.163 11.5 6.5 3.854 4.171 8.354 5.004 13.5 2.5a51.727 51.727 0 0 0 1.5-9.5c2.282-4.978 5.949-6.645 11-5a42.36 42.36 0 0 0 1.5 8.5 271.823 271.823 0 0 0 9-2.5c4.47.275 5.637 2.275 3.5 6-4.151 3.149-7.151 7.149-9 12a260.392 260.392 0 0 1-.5 21c-1.691 1.756-3.691 2.256-6 1.5-2.274-1.765-3.941-3.932-5-6.5 1.525-2.3 2.691-4.633 3.5-7-5.044-3.229-8.877-2.229-11.5 3a47.49 47.49 0 0 0 4.5 8c.83 5.673-1.67 8.339-7.5 8a19.048 19.048 0 0 1 1-6c-1.164-2.995-2.33-5.995-3.5-9-3.719-1.71-6.886-4.21-9.5-7.5-6.136-6.311-11.803-5.978-17 1-1.284.684-2.451.517-3.5-.5l-1-13a61.397 61.397 0 0 1-4-15 94.165 94.165 0 0 1-10-9c-.755-3.755-.589-7.422.5-11z"/><path style="opacity:1" fill="#fdf3e6" d="M509.5 593.5c1.548.321 2.215 1.321 2 3-2.748.098-3.414-.902-2-3zM590.5 596.5c3.575.707 3.742 1.707.5 3-1.683-.676-1.85-1.676-.5-3z"/><path style="opacity:1" fill="#fdf2e4" d="M531.5 602.5h4c.49 2.448-.343 4.115-2.5 5-2.611-1-3.111-2.667-1.5-5z"/><path style="opacity:1" fill="#fef7ef" d="M717.5 611.5c3.57.401 5.736 2.401 6.5 6 3.655 2.87 6.822 2.37 9.5-1.5a12.93 12.93 0 0 1 5-.5c1.416 2.36 1.083 4.36-1 6a59.24 59.24 0 0 0-13 6.5 80.497 80.497 0 0 0-12 3.5c-1.22-.387-1.887-1.22-2-2.5 4.518-4.858 6.852-10.691 7-17.5z"/><path style="opacity:1" fill="#fef6ee" d="M484.5 614.5c2.16-2.35 4.66-3.017 7.5-2 .499 3.652.665 7.318.5 11-4.791-1.124-7.458-4.124-8-9z"/><path style="opacity:1" fill="#fcf2e3" d="M613.5 613.5c1.175-.219 2.175.114 3 1-3.146 6.65-4.146 6.316-3-1z"/><path style="opacity:1" fill="#fdf5eb" d="M521.5 614.5c6.349.458 7.349 2.792 3 7-3.522-1.367-4.522-3.7-3-7z"/><path style="opacity:1" fill="#fdf3e6" d="M535.5 631.5c1.495-.085 2.495.581 3 2-1.228 2.571-3.228 3.905-6 4-.472-2.858.528-4.858 3-6z"/><path style="opacity:1" fill="#fef8f3" d="M481.5 640.5c1.086.12 1.753.787 2 2l-1 2c-.929-1.189-1.262-2.522-1-4z"/><path style="opacity:1" fill="#fef7f1" d="M723.5 641.5c5.658-.821 7.325 1.346 5 6.5-1.444.781-2.777.614-4-.5a11.988 11.988 0 0 1-1-6z"/><path style="opacity:1" fill="#fef9f4" d="M489.5 652.5c6.184.557 12.184 2.057 18 4.5 4.679 2.013 8.013 5.346 10 10-1.366 5.63-4.366 7.13-9 4.5l-1 1.5c1.487 2.821 3.654 4.987 6.5 6.5a22.981 22.981 0 0 1 2 5c1.011.837 2.178 1.17 3.5 1a27.68 27.68 0 0 1 3-10.5c2.599-.769 5.099-.602 7.5.5a118.11 118.11 0 0 1 11.5 19 139.582 139.582 0 0 1 9.5 6c-2.524 8.447-.524 15.78 6 22 .595 1.399.428 2.732-.5 4a68.013 68.013 0 0 0-13 5 61.99 61.99 0 0 0-4.5 10c-2.626 2.731-5.793 4.564-9.5 5.5-1.774 4.147-4.774 6.147-9 6-4.377-4.043-7.544-8.876-9.5-14.5-5.666-.168-10.332 2.165-14 7a123.68 123.68 0 0 0-8 16 9.454 9.454 0 0 1-2.5 1.5 52.631 52.631 0 0 0-13-2 33.816 33.816 0 0 0-5 6c-4.143.162-7.977 1.329-11.5 3.5-6.616-2.95-11.616-7.617-15-14-.667-1.667-.667-3.333 0-5a148.31 148.31 0 0 0 14-15c.667-2 .667-4 0-6-1.866-2.019-3.033-4.352-3.5-7a112.917 112.917 0 0 1 4-9.5c-5.383-6.856-12.383-9.523-21-8-1.017-1.049-1.184-2.216-.5-3.5 1.938-2.606 4.438-4.439 7.5-5.5a67.63 67.63 0 0 0 17.5-2.5l2.5.5c.655 1.487 1.655 2.653 3 3.5a684.906 684.906 0 0 1 5.5-21 62.744 62.744 0 0 0 8-7c-.312-8.393 3.188-14.393 10.5-18z"/><path style="opacity:1" fill="#e09b14" d="M491.5 663.5c5.593.098 8.26 3.098 8 9-3.352.508-6.352 1.842-9 4a32.367 32.367 0 0 0-4.5-3c-.667-1.333-.667-2.667 0-4a46.081 46.081 0 0 0 5.5-6z"/><path style="opacity:1" fill="#fdf5eb" d="M536.5 668.5h5c.15 3.661-1.35 4.661-4.5 3a4.934 4.934 0 0 1-.5-3z"/><path style="opacity:1" fill="#df9a0d" d="M500.5 702.5h4c.481 3.849-1.186 5.849-5 6-.175-2.121.159-4.121 1-6z"/><path style="opacity:1" fill="#e2a025" d="M531.5 711.5c4.828-.115 6.161 2.052 4 6.5-6.161.878-7.494-1.289-4-6.5z"/><path style="opacity:1" fill="#e3a32c" d="M493.5 714.5c1.844.704 2.344 2.037 1.5 4-1.734 1.951-3.901 2.951-6.5 3a4.934 4.934 0 0 1 .5-3 32.6 32.6 0 0 0 4.5-4z"/><path style="opacity:1" fill="#fef6ed" d="M427.5 720.5c1.984-.016 2.984.984 3 3-.691 3.714-2.191 7.048-4.5 10-3.333 2-6 4.667-8 8a400.472 400.472 0 0 1-7.5 14c-3.872 3.955-7.705 3.955-11.5 0-.667-1.333-.667-2.667 0-4a356.549 356.549 0 0 1 24-21 811.659 811.659 0 0 1 4.5-10z"/><path style="opacity:1" fill="#fef5ec" d="M438.5 728.5h4a24.935 24.935 0 0 1-.5 7c-1.333 1.333-2.667 1.333-4 0-.703-2.429-.537-4.762.5-7z"/><path style="opacity:1" fill="#010101" d="M957.5 728.5c37.89-3.212 74.89.955 111 12.5a42.447 42.447 0 0 1 11 5.5c-4.51 14.04-9.01 28.04-13.5 42-39.5-16.47-80.33-20.637-122.5-12.5-62.03 16.034-99.53 55.534-112.5 118.5-9.194 47.751-3.194 93.418 18 137 21.966 36.6 54.132 58.76 96.5 66.5 41.996 7.16 82.66 2.66 122-13.5 3.66 13.31 7.33 26.65 11 40-.33.67-.67 1.33-1 2-30.45 12.19-62.12 18.35-95 18.5-55.097 3.32-104.097-12.01-147-46-38.086-36.18-58.919-80.68-62.5-133.5-5.795-53.478 5.205-103.145 33-149 37.101-52.142 87.601-81.475 151.5-88zM1261.5 728.5c99.13-4.882 163.63 39.785 193.5 134 10.66 44.825 11.33 89.825 2 135-8.76 39.37-27.26 73.2-55.5 101.5-41.96 35.76-90.62 51.09-146 46-66.35-8.35-113.51-42.85-141.5-103.5-27.21-67.978-27.21-135.978 0-204 29.19-63.357 78.36-99.69 147.5-109z"/><path style="opacity:1" d="M1563.5 1138.5h-52v-399c47.65-8.553 95.65-10.053 144-4.5 26.76 3.552 50.42 13.885 71 31 19.29 18.743 30.45 41.576 33.5 68.5 6.02 62.827-19.48 106.993-76.5 132.5-38.75 13.813-78.42 17.313-119 10.5-1 53.66-1.33 107.33-1 161z"/><path style="opacity:1" fill="#fdf2e3" d="M533.5 748.5c3.85.201 4.85 2.034 3 5.5-5.269.633-6.269-1.201-3-5.5z"/><path style="opacity:1" fill="#fef6ed" d="M537.5 756.5c4.871.382 6.871 3.049 6 8-6.241.431-8.241-2.235-6-8z"/><path style="opacity:1" fill="#fef6ee" d="M522.5 769.5a8.43 8.43 0 0 1 4 .5c9.971 11.044 7.971 13.377-6 7-1.443-3.061-.776-5.561 2-7.5zM550.5 771.5c5.691.054 7.358 2.721 5 8-4.476 2.04-6.81.54-7-4.5a11.803 11.803 0 0 1 2-3.5z"/><path style="opacity:1" fill="#e6e2d3" d="M1269.5 770.5c51.29-1.827 89.46 19.506 114.5 64 18.95 36.358 26.95 75.024 24 116-2.01 34.699-11.68 67.03-29 97-32.45 46.61-76.62 63.77-132.5 51.5-35.9-11.89-61.73-35.06-77.5-69.5-18.75-44.073-23.75-89.74-15-137 6.05-38.268 23.21-70.434 51.5-96.5 18.83-14.92 40.16-23.42 64-25.5zM1585.5 773.5c19.74-.584 39.41.25 59 2.5 47.55 11.57 68.38 41.737 62.5 90.5-5.28 34.619-24.78 56.786-58.5 66.5-28.24 6.729-56.57 7.229-85 1.5-.17-52.334 0-104.668.5-157 7.15-2.019 14.31-3.352 21.5-4z"/><path style="opacity:1" fill="#fdf3e8" d="M470.5 780.5c1.624-.14 2.79.527 3.5 2 .667 2 .667 4 0 6a22.684 22.684 0 0 1-8.5 2 12.93 12.93 0 0 1 .5-5 31.447 31.447 0 0 0 4.5-5z"/><path style="opacity:1" fill="#fef7f0" d="M558.5 780.5c6.343 2.015 9.176 6.348 8.5 13-4.873 2.753-8.54 1.42-11-4-1.221-3.782-.387-6.782 2.5-9z"/><path style="opacity:1" fill="#fef8f3" d="M564.5 822.5c1.086.12 1.753.787 2 2l-1 2c-.929-1.189-1.262-2.522-1-4z"/><path style="opacity:1" fill="#fcefdd" d="M378.5 857.5c3.174.452 3.507 1.452 1 3-.886-.825-1.219-1.825-1-3z"/><path style="opacity:1" fill="#fdf3e6" d="M417.5 934.5a8.43 8.43 0 0 1 4 .5c.951.718 1.117 1.551.5 2.5-3.946 1.86-5.446.86-4.5-3zM452.5 982.5c4.852-.175 6.185 1.992 4 6.5-2.555 3.398-4.555 3.064-6-1a13.021 13.021 0 0 1 2-5.5z"/><path style="opacity:1" fill="#fcefdc" d="M470.5 988.5c4.755 1.616 5.089 3.949 1 7-3.533-1.92-3.867-4.254-1-7z"/><path style="opacity:1" fill="#fdf3e8" d="M383.5 989.5c1.676.683 2.343 2.017 2 4h-3c-.067-1.459.266-2.792 1-4z"/><path style="opacity:1" fill="#fcf1e2" d="M372.5 991.5h3v4c-3.454.233-4.454-1.1-3-4z"/><path style="opacity:1" fill="#fdf3e8" d="M342.5 993.5c2.744.572 3.577 2.238 2.5 5a22.605 22.605 0 0 1-7 4c-.5-.33-1-.67-1.5-1 1.061-3.491 3.061-6.158 6-8z"/><path style="opacity:1" fill="#fef7f0" d="M398.5 1012.5c1.149.29 1.816 1.12 2 2.5.076 2.76-1.257 3.92-4 3.5-.247-2.36.419-4.36 2-6z"/><path style="opacity:1" fill="#fef6ee" d="M418.5 1015.5c6.204-.19 7.537 2.31 4 7.5-6.087.21-7.421-2.29-4-7.5z"/><path style="opacity:1" fill="#fceedb" d="M358.5 1016.5c4.541.32 5.541 2.15 3 5.5-3.963.12-4.963-1.72-3-5.5z"/><path style="opacity:1" fill="#fef5ec" d="M392.5 1021.5c.996-.09 1.829.25 2.5 1 1.122 7.67-2.044 10.67-9.5 9-1.333-2-1.333-4 0-6 2.393-1.43 4.726-2.76 7-4z"/><path style="opacity:1" fill="#fef6ee" d="M443.5 1023.5h3v3c-3.067.38-4.067-.62-3-3z"/><path style="opacity:1" fill="#fdf3e7" d="M342.5 1026.5c3.18-.32 4.347 1.01 3.5 4-1.789 1.73-3.956 2.4-6.5 2-.039-2.59.961-4.59 3-6z"/><path style="opacity:1" fill="#fdf3e6" d="M374.5 1027.5c5.145.98 5.312 2.65.5 5-3.072-1.38-3.239-3.05-.5-5z"/><path style="opacity:1" fill="#fdf4e8" d="M483.5 1029.5c3.571-.09 4.738 1.57 3.5 5-2.839 2.91-5.006 2.58-6.5-1 .287-1.94 1.287-3.28 3-4z"/><path style="opacity:1" fill="#fdf1e3" d="M337.5 1073.5h3v4h-3v-4z"/><path style="opacity:1" fill="#fdf7f1" d="M361.5 1130.5c-.992-.17-1.658.16-2 1-2.667 1.33-5.333 1.33-8 0-1.727-2.73-4.06-4.73-7-6-4.769 1.25-9.103 3.25-13 6h-3c-3.99-3.96-3.99-7.96 0-12a88.824 88.824 0 0 1 12-1.5c2.03-1.9 3.697-4.06 5-6.5.833-.33 1.667-.67 2.5-1a40.036 40.036 0 0 1 8 5c4.541-3.1 9.541-5.1 15-6 3.09-.16 4.424 1.17 4 4a6338.29 6338.29 0 0 1-13.5 17z"/><path style="opacity:1" fill="#d69a21" d="M351.5 1131.5h-20c3.897-2.75 8.231-4.75 13-6 2.94 1.27 5.273 3.27 7 6z"/><path style="opacity:1" fill="#ae8b29" d="M517.5 1126.5c.951 1.42 1.284 3.09 1 5h-159c.342-.84 1.008-1.17 2-1h156v-4z"/><path style="opacity:1" fill="#166092" d="M319.5 1131.5h32c2.667 1.33 5.333 1.33 8 0h159a513.038 513.038 0 0 0 17 88c-10.484.67-17.318-3.99-20.5-14-.853-3.97-1.519-7.97-2-12-1.946-3.94-4.779-6.94-8.5-9-4.616 2.78-8.449 6.45-11.5 11-.667 1.33-.667 2.67 0 4a9.974 9.974 0 0 1 2.5 4.5c-4.998 6.03-3.665 9.69 4 11 .833.83 1.667 1.67 2.5 2.5-.454 7.74 1.879 14.4 7 20a89.087 89.087 0 0 1 5.5-6.5c8.104.35 16.104 1.51 24 3.5.969.81 1.802 1.81 2.5 3 12.723 39.61 29.89 77.11 51.5 112.5-.228.4-.562.57-1 .5-4.76-5.53-10.76-7.36-18-5.5-4.1 2.47-7.934 5.3-11.5 8.5-.667 1.67-.667 3.33 0 5 7.053 5.12 8.719 11.46 5 19a42.479 42.479 0 0 0 0 13c2.711 1.43 5.211 1.09 7.5-1a41.702 41.702 0 0 1 4.5-12 151.666 151.666 0 0 0 12-17 24.102 24.102 0 0 1 5.5-3c5.514 7.02 10.014 14.69 13.5 23a30.154 30.154 0 0 0 7 6 370.949 370.949 0 0 0 28 35c.483.95.649 1.95.5 3-2.591.75-4.424 2.42-5.5 5a81.468 81.468 0 0 0-5 11c-6.074 1.71-6.908 4.71-2.5 9a7.352 7.352 0 0 1-3 2c-2.603-1.06-5.27-1.23-8-.5-.951.72-1.117 1.55-.5 2.5 2.868 1.9 6.034 2.9 9.5 3a93.708 93.708 0 0 1 17-1.5 95.798 95.798 0 0 1 7.5 7.5 3.92 3.92 0 0 0 2-1l1-11c1.953-2.76 3.12-5.76 3.5-9 13.81 12.97 27.81 25.81 42 38.5 14.9 11.75 29.9 23.25 45 34.5-23.075.32-46.075-.01-69-1-.222-2.58-1.555-3.41-4-2.5-.88 1.36-1.214 2.86-1 4.5h-34c-2.604-1.03-5.271-1.03-8 0 .165-3.35-.002-6.68-.5-10-1.334-3.6-3.834-4.77-7.5-3.5-2.275 4.32-2.608 8.82-1 13.5h-2c-2.141-2.52-4.141-2.52-6 0h-15c.054-3.47-1.446-6.13-4.5-8-.958-4.28-2.791-8.11-5.5-11.5 1.543-2.33 2.043-4.83 1.5-7.5a152.141 152.141 0 0 1-12-20 49.047 49.047 0 0 1-4-13c-4.281-5.23-6.281-11.23-6-18-3.388-4.11-5.721-8.78-7-14-1.808-1.9-3.975-2.4-6.5-1.5-6.02 4.69-8.353 10.69-7 18-.644 3.3-2.144 6.14-4.5 8.5.358 7.8 2.191 15.3 5.5 22.5a3.947 3.947 0 0 1-1 2c-1.333.33-2.667.67-4 1 2.127 1.05 3.793 2.55 5 4.5-1.609 3.44-4.109 6.11-7.5 8-1.176 3.76-.01 6.59 3.5 8.5a76.43 76.43 0 0 1 15.5 3.5c.499 5.66.666 11.32.5 17h-32c-1.435-2.1-2.602-4.43-3.5-7-1.938-1.36-3.604-1.03-5 1-.678 2.1-.511 4.1.5 6h-19v-6c-3.509.31-5.176 2.31-5 6h-8c2.597-6.06 3.764-12.39 3.5-19-1.305-2.81-3.472-3.64-6.5-2.5-.951 3.06-1.284 6.22-1 9.5-6.51-2.3-13.177-4.3-20-6-2.786-3.86-4.286-8.19-4.5-13-2.167-1.5-3.667-1-4.5 1.5.777 7.94 2.11 15.77 4 23.5-.829.83-1.662.5-2.5-1-81.704-112.24-128.204-237.91-139.5-377z"/><path style="opacity:1" fill="#54524d" d="M1511.5 739.5v399h52c-17.49 1-35.16 1.33-53 1-.33-133.5 0-266.834 1-400z"/><path style="opacity:1" fill="#efeff0" d="M469.5 1141.5c5.2 1.23 6.866 4.4 5 9.5-6.722 2.73-9.555.57-8.5-6.5a29.471 29.471 0 0 1 3.5-3z"/><path style="opacity:1" fill="#e4e8eb" d="M383.5 1155.5c3.575.71 3.742 1.71.5 3-1.683-.68-1.85-1.68-.5-3z"/><path style="opacity:1" fill="#fbf7f5" d="M535.5 1219.5c1.321 4.3 2.655 8.63 4 13-.043.92-.376 1.58-1 2a118.943 118.943 0 0 0-24-3.5 89.087 89.087 0 0 0-5.5 6.5c-5.121-5.6-7.454-12.26-7-20-.833-.83-1.667-1.67-2.5-2.5-7.665-1.31-8.998-4.97-4-11a9.974 9.974 0 0 0-2.5-4.5c-.667-1.33-.667-2.67 0-4 3.051-4.55 6.884-8.22 11.5-11 3.721 2.06 6.554 5.06 8.5 9 .481 4.03 1.147 8.03 2 12 3.182 10.01 10.016 14.67 20.5 14z"/><path style="opacity:1" fill="#faf6f4" d="M395.5 1259.5c5.262-.3 10.428.03 15.5 1 .29 2.45.956 4.79 2 7a20.659 20.659 0 0 1 7 5 81.639 81.639 0 0 0 7 14c3.95 2.77 6.45 6.43 7.5 11l-1 3c-4.382-3.86-9.382-6.69-15-8.5a211.802 211.802 0 0 0-23.5-25.5c-.703-2.43-.537-4.76.5-7z"/><path style="opacity:1" fill="#f2f1f1" d="M361.5 1269.5c5.349.16 7.349 2.66 6 7.5-7.661 2.17-9.661-.33-6-7.5z"/><path style="opacity:1" fill="#f4f3f2" d="M460.5 1286.5c2.292-.26 4.459.08 6.5 1 3.02 8.13 1.52 15.3-4.5 21.5-1.612.72-3.112.55-4.5-.5-.546-3.4-.213-6.73 1-10 1.444-1.66 3.278-2.32 5.5-2 .223-2.61-.944-4.28-3.5-5a12.92 12.92 0 0 1-.5-5z"/><path style="opacity:1" fill="#faf7f5" d="M474.5 1296.5c8.327.52 16.66 1.02 25 1.5 2.251 2.02 2.584 4.35 1 7 6.05 10.48 7.05 21.31 3 32.5 1.202 2.72 3.035 5.05 5.5 7 1.514 5.97-.486 10.3-6 13-1 2.33-2 4.67-3 7-1.11 1.54-2.61 2.2-4.5 2-3.486-6.41-2.653-12.07 2.5-17a8.43 8.43 0 0 0 .5-4c-2.948.28-5.781-.06-8.5-1-.155-8.71-3.822-15.38-11-20-.743-1.94-.576-3.77.5-5.5 4.698-.35 9.364-.85 14-1.5-.546-8.71-5.213-12.54-14-11.5-2.883-2.6-4.55-5.77-5-9.5z"/><path style="opacity:1" fill="#f8f5f4" d="M556.5 1310.5c2.825-.42 4.991.58 6.5 3a25.55 25.55 0 0 1 4 9c2.333 1.67 4.667 3.33 7 5 .617.95.451 1.78-.5 2.5a50.718 50.718 0 0 1-18 1 29.776 29.776 0 0 1-4.5-2.5c-3.291-7.68-1.458-13.68 5.5-18z"/><path style="opacity:1" fill="#176092" d="M1721.5 1338.5c-11.98-.52-17.81 5.14-17.5 17 1.64 3.46 3.81 6.46 6.5 9a587.707 587.707 0 0 1-46 91c-3.02.16-6.02 0-9-.5a575.106 575.106 0 0 0-36-12 315.365 315.365 0 0 1-34-5c-2.48-2.74-5.48-4.74-9-6a219.11 219.11 0 0 1-19-6c-8.25-.86-16.41-2.03-24.5-3.5-3.66-.31-4.16.52-1.5 2.5 13.44 4.89 27.1 8.89 41 12 4.84 1.91 9.17 4.58 13 8 2.41 1.71 5.08 2.54 8 2.5.17-1.32-.16-2.49-1-3.5 2-.67 4-.67 6 0 10.4 3.73 21.07 6.4 32 8 9.75 3.71 19.75 6.54 30 8.5a487.737 487.737 0 0 1-37 55h-7c-.45-7.93-4.45-12.93-12-15-.01 1.81.49 3.48 1.5 5 2.44 3.22 4.6 6.55 6.5 10h-11c-.98-.64-1.98-1.31-3-2-.8.46-1.13 1.12-1 2h-256c72.36-49.59 129.7-112.76 172-189.5 71.32-1.58 142.66-2.74 214-3.5-1.1 5.75-3.1 11.09-6 16z"/><path style="opacity:1" fill="#faf6f4" d="M1721.5 1338.5c-2.26 7.85-5.09 15.52-8.5 23-.38 1.44-1.21 2.44-2.5 3-2.69-2.54-4.86-5.54-6.5-9-.31-11.86 5.52-17.52 17.5-17z"/><path style="opacity:1" fill="#fcf8f5" d="M591.5 1350.5c2.387 1.76 4.054 4.09 5 7a24.102 24.102 0 0 0-5.5 3 151.666 151.666 0 0 1-12 17 41.702 41.702 0 0 0-4.5 12c-2.289 2.09-4.789 2.43-7.5 1a42.479 42.479 0 0 1 0-13c3.719-7.54 2.053-13.88-5-19-.667-1.67-.667-3.33 0-5 3.566-3.2 7.4-6.03 11.5-8.5 7.24-1.86 13.24-.03 18 5.5z"/><path style="opacity:1" fill="#e7e9ec" d="M1612.5 1344.5c3.73.91 7.06 2.57 10 5-3.57.75-6.9-.08-10-2.5-1.1-.77-1.1-1.6 0-2.5z"/><path style="opacity:1" fill="#f8f5f4" d="M549.5 1352.5c3.43-.71 5.763.46 7 3.5a57.568 57.568 0 0 0-6 11c-4.211 1.53-8.544 1.87-13 1-5.791-2-6.458-5.17-2-9.5 2.72-1.61 5.72-2.44 9-2.5a29.146 29.146 0 0 0 5-3.5z"/><path style="opacity:1" fill="#f4f3f2" d="M1630.5 1354.5c3.74.37 6.74 2.04 9 5-.8 1.44-1.47 2.94-2 4.5 1.26 3.38 1.26 6.71 0 10-3.94 1.12-5.28-.05-4-3.5-2.51-3.7-2.51-7.36 0-11-1.45-1.44-2.45-3.11-3-5z"/><path style="opacity:1" fill="#faf7f5" d="M457.5 1358.5a8.394 8.394 0 0 1 4 .5 39.227 39.227 0 0 0 10.5 10.5c1.827 2.09 1.827 4.09 0 6-.727 6.99-1.393 13.99-2 21-.273 1.83-1.107 3.33-2.5 4.5a188.503 188.503 0 0 0-21.5 4.5c-2.214-.35-3.714-1.51-4.5-3.5a68.822 68.822 0 0 0 7.5-11.5 430.452 430.452 0 0 0 4-25c1.012-2.7 2.512-5.04 4.5-7z"/><path style="opacity:1" fill="#f2f1f1" d="M1513.5 1363.5c1.18-.22 2.18.11 3 1 2.65 6.7 2.48 13.36-.5 20-1.01.84-2.18 1.17-3.5 1 .87-7.4 1.2-14.73 1-22z"/><path style="opacity:1" fill="#e0e5e9" d="M492.5 1380.5h3v4c-3.454.23-4.454-1.1-3-4z"/><path style="opacity:1" fill="#edeeef" d="M507.5 1386.5c1.965.45 2.298 1.45 1 3-.886-.82-1.219-1.82-1-3zM1624.5 1391.5c1.25.83 1.91 2.17 2 4-.79 4.41-2.79 8.24-6 11.5-1.29.49-2.63.66-4 .5-.16-1.37.01-2.71.5-4 3.27-3.55 5.77-7.55 7.5-12z"/><path style="opacity:1" fill="#ecedee" d="M1581.5 1413.5c7.74.63 15.24 2.29 22.5 5a52.27 52.27 0 0 0 14.5-5c2.43 1.4 2.09 2.57-1 3.5-5.06 1.91-10.23 3.41-15.5 4.5a57.603 57.603 0 0 0-18.5-4.5c-1.47-.71-2.14-1.88-2-3.5z"/><path style="opacity:1" fill="#fcf7f5" d="M600.5 1515.5a298.93 298.93 0 0 1-4.5 25c-4.634 5.36-8.968 5.03-13-1-3.084 4.35-6.751 5.01-11 2a67.313 67.313 0 0 1-3-17c-1.209-3.78-3.376-6.78-6.5-9 .166-5.68-.001-11.34-.5-17a76.43 76.43 0 0 0-15.5-3.5c-3.51-1.91-4.676-4.74-3.5-8.5 3.391-1.89 5.891-4.56 7.5-8-1.207-1.95-2.873-3.45-5-4.5 1.333-.33 2.667-.67 4-1 .522-.56.855-1.23 1-2-3.309-7.2-5.142-14.7-5.5-22.5 2.356-2.36 3.856-5.2 4.5-8.5-1.353-7.31.98-13.31 7-18 2.525-.9 4.692-.4 6.5 1.5 1.279 5.22 3.612 9.89 7 14-.281 6.77 1.719 12.77 6 18a49.047 49.047 0 0 0 4 13 152.141 152.141 0 0 0 12 20c.543 2.67.043 5.17-1.5 7.5 2.709 3.39 4.542 7.22 5.5 11.5 3.054 1.87 4.554 4.53 4.5 8z"/><path style="opacity:1" fill="#f3f2f2" d="M1664.5 1455.5c-1.1 1.89-2.44 3.56-4 5a178.407 178.407 0 0 1-30-8.5 165.64 165.64 0 0 1-32-8c-2-.67-4-.67-6 0 .84 1.01 1.17 2.18 1 3.5-2.92.04-5.59-.79-8-2.5a43.123 43.123 0 0 0-13-8c-13.9-3.11-27.56-7.11-41-12-2.66-1.98-2.16-2.81 1.5-2.5 8.09 1.47 16.25 2.64 24.5 3.5a219.11 219.11 0 0 0 19 6c3.52 1.26 6.52 3.26 9 6 11.19 2.28 22.52 3.94 34 5 12.03 3.57 24.03 7.57 36 12 2.98.5 5.98.66 9 .5z"/><path style="opacity:1" fill="#faf7f5" d="M645.5 1424.5c2.894 1.38 5.394 3.38 7.5 6 3.073 3.56 5.906 7.23 8.5 11-.38 3.24-1.547 6.24-3.5 9l-1 11a3.92 3.92 0 0 1-2 1 95.798 95.798 0 0 0-7.5-7.5 93.708 93.708 0 0 0-17 1.5c-3.466-.1-6.632-1.1-9.5-3-.617-.95-.451-1.78.5-2.5 2.73-.73 5.397-.56 8 .5a7.352 7.352 0 0 0 3-2c-4.408-4.29-3.574-7.29 2.5-9a81.468 81.468 0 0 1 5-11c1.076-2.58 2.909-4.25 5.5-5z"/><path style="opacity:1" fill="#f9f6f4" d="M1632.5 1428.5c3.47-.61 5.47.72 6 4-3.74.9-5.74-.43-6-4z"/><path style="opacity:1" fill="#eaecee" d="M1520.5 1451.5c1.64-.21 3.14.12 4.5 1 1.29 2.85 1.79 5.85 1.5 9h4c-.54 3.44-2.54 4.61-6 3.5-4.78-3.49-6.11-7.99-4-13.5z"/><path style="opacity:1" fill="#d2dce3" d="M1508.5 1462.5c2.34 0 4.34.84 6 2.5l-1.5 1.5c-2.12-.78-3.62-2.12-4.5-4z"/><path style="opacity:1" fill="#e7eaec" d="M1605.5 1465.5h4v4c-3 .33-4.33-1-4-4z"/><path style="opacity:1" fill="#f1f0f1" d="M1471.5 1467.5c5.01 1.06 10.01 2.22 15 3.5.46.41.79.91 1 1.5-3.69 1.12-7.35.95-11-.5-2.21-1.05-3.87-2.55-5-4.5z"/><path style="opacity:1" fill="#e7eaec" d="M1641.5 1468.5c3.1.62 3.43 1.62 1 3-2.02-.63-2.35-1.63-1-3z"/><path style="opacity:1" fill="#e5e8eb" d="M1545.5 1481.5h4c.38 2.16-.28 3.83-2 5-1.72-1.17-2.38-2.84-2-5z"/><path style="opacity:1" fill="#fbf6f4" d="M490.5 1515.5c.341 3.02 1.507 5.68 3.5 8 .667 1.67.667 3.33 0 5-2.29 3.08-4.457 6.25-6.5 9.5a8.394 8.394 0 0 1-4 .5c-.489-1.5-1.155-2.83-2-4a8.78 8.78 0 0 0-1.5-5c-2.77-2.1-4.77-4.77-6-8a19.363 19.363 0 0 0-6.5-3c-2.856-2.51-4.856-5.51-6-9a167.474 167.474 0 0 1-4-23.5c.833-2.5 2.333-3 4.5-1.5.214 4.81 1.714 9.14 4.5 13 6.823 1.7 13.49 3.7 20 6-.284-3.28.049-6.44 1-9.5 3.028-1.14 5.195-.31 6.5 2.5.264 6.61-.903 12.94-3.5 19z"/><path style="opacity:1" fill="#36719d" d="M559.5 1485.5c5.235-.16 5.901 1.17 2 4-1.611-.82-2.278-2.15-2-4z"/><path style="opacity:1" fill="#f1eff0" d="M1616.5 1515.5c-1.21 1.19-2.54 1.19-4 0-1.9-3.45-4.06-6.78-6.5-10a8.765 8.765 0 0 1-1.5-5c7.55 2.07 11.55 7.07 12 15z"/><path style="opacity:1" fill="#fbf3f0" d="M640.5 1515.5c.262 1.48-.071 2.81-1 4-3.099.86-5.933 2.19-8.5 4 .278 3.64.278 7.31 0 11a15.576 15.576 0 0 1-2.5 4c4.587.84 8.587-.49 12-4 1.884 1.19 2.384 2.86 1.5 5-5.907 3.97-12.407 5.47-19.5 4.5-2.297-1.58-2.631-3.58-1-6a22.618 22.618 0 0 1-4-5.5 94.09 94.09 0 0 0 2-7.5c-1.483-3.13-2.816-6.3-4-9.5 1.859-2.52 3.859-2.52 6 0 .667 2.67 1.333 2.67 2 0-1.608-4.68-1.275-9.18 1-13.5 3.666-1.27 6.166-.1 7.5 3.5.498 3.32.665 6.65.5 10 2.729-1.03 5.396-1.03 8 0z"/><path style="opacity:1" fill="#e7eaec" d="M687.5 1504.5h3c.384 2.16-.283 3.83-2 5-.952-1.55-1.285-3.21-1-5z"/><path style="opacity:1" fill="#fbf3f0" d="M530.5 1515.5c.411 3.96-.422 7.63-2.5 11-3.813 3.09-6.313 2.26-7.5-2.5a15.083 15.083 0 0 1 3-6c-.243-.9-.577-1.74-1-2.5-1.011-1.9-1.178-3.9-.5-6 1.396-2.03 3.062-2.36 5-1 .898 2.57 2.065 4.9 3.5 7z"/><path style="opacity:1" fill="#f0e9e8" d="M503.5 1515.5c-.929 1.44-2.095 2.77-3.5 4-1.188-1.06-1.688-2.4-1.5-4-.176-3.69 1.491-5.69 5-6v6z"/><path style="opacity:1" fill="#4878a0" d="M475.5 1509.5c.996-.09 1.829.25 2.5 1 .798 1.76.631 3.43-.5 5-1.783-1.52-2.449-3.52-2-6z"/><path style="opacity:1" fill="#fcf2ef" d="M679.5 1513.5v2a60.551 60.551 0 0 1-4.5 18c-1.845 1.85-3.845 2.18-6 1a62.026 62.026 0 0 0-2.5-8.5c2.468-2.5 5.302-4.67 8.5-6.5.579-1.43.412-2.76-.5-4-.214-1.64.12-3.14 1-4.5 2.445-.91 3.778-.08 4 2.5z"/><path style="opacity:1" fill="#435275" d="M679.5 1513.5c22.925.99 45.925 1.32 69 1 .992-.17 1.658.16 2 1h-71v-2z"/><path style="opacity:1" fill="#f4eae8" d="M1601.5 1515.5c1.56 1.28 2.9 2.78 4 4.5-1.44 3.14-3.28 3.3-5.5.5-.76-1.81-1.59-3.48-2.5-5-.13-.88.2-1.54 1-2 1.02.69 2.02 1.36 3 2z"/><path style="opacity:1" fill="#c3211a" d="M490.5 1515.5h8c-.188 1.6.312 2.94 1.5 4 1.405-1.23 2.571-2.56 3.5-4h19c.423.76.757 1.6 1 2.5a15.083 15.083 0 0 0-3 6c1.187 4.76 3.687 5.59 7.5 2.5 2.078-3.37 2.911-7.04 2.5-11h32c3.124 2.22 5.291 5.22 6.5 9a67.313 67.313 0 0 0 3 17c4.249 3.01 7.916 2.35 11-2 4.032 6.03 8.366 6.36 13 1a298.93 298.93 0 0 0 4.5-25h15c1.184 3.2 2.517 6.37 4 9.5a94.09 94.09 0 0 1-2 7.5 22.618 22.618 0 0 0 4 5.5c-1.631 2.42-1.297 4.42 1 6 7.093.97 13.593-.53 19.5-4.5.884-2.14.384-3.81-1.5-5-3.413 3.51-7.413 4.84-12 4a15.576 15.576 0 0 0 2.5-4c.278-3.69.278-7.36 0-11 2.567-1.81 5.401-3.14 8.5-4 .929-1.19 1.262-2.52 1-4h34c.912 1.24 1.079 2.57.5 4-3.198 1.83-6.032 4-8.5 6.5a62.026 62.026 0 0 1 2.5 8.5c2.155 1.18 4.155.85 6-1a60.551 60.551 0 0 0 4.5-18h71a669.783 669.783 0 0 0 60 35c-3.987.15-5.487 2.15-4.5 6a26.37 26.37 0 0 0 7.5 3c.069 1.78.403 3.61 1 5.5 1.333.67 2.667.67 4 0a36.802 36.802 0 0 0 5-8.5c59.235 26.64 121.235 42.98 186 49 10.53 1.29 20.87 3.46 31 6.5 3.32.5 6.65.67 10 .5.2-1.89-.46-3.39-2-4.5-2.62-.82-5.28-1.32-8-1.5 7-.67 14-1.33 21-2 101.93-3.2 195.26-32.87 280-89h256c.91 1.52 1.74 3.19 2.5 5 2.22 2.8 4.06 2.64 5.5-.5-1.1-1.72-2.44-3.22-4-4.5h11c1.46 1.19 2.79 1.19 4 0h7c-31.44 42.11-67.44 80.11-108 114a43.753 43.753 0 0 0-4.5-7c-4.41-3.79-8.91-7.45-13.5-11-.74 3.29.09 6.29 2.5 9 3.3 2.3 6.3 4.96 9 8 .67 1 .67 2 0 3-2.4-3.11-4.9-3.45-7.5-1 1.56 2.45 3.56 4.45 6 6-42.71 35.54-89.04 65.88-139 91 .67-3.33-.67-5.33-4-6a68.874 68.874 0 0 1-14 7c-.8.46-1.13 1.12-1 2-.67 2.2-1.33 4.53-2 7a689.571 689.571 0 0 1-111 40c-2.68-.68-5.34-1.34-8-2v5c-72.13 18.18-145.47 25.68-220 22.5a267.943 267.943 0 0 1-29-2.5c1.554-3.79.221-5.79-4-6-3.348 1.69-6.681 3.36-10 5-102.564-10.8-198.231-42.3-287-94.5-1.323-.82-1.989-1.98-2-3.5 2.25-.45 3.584-1.78 4-4a115.726 115.726 0 0 0-4-13.5c-4.306-.17-5.973 1.99-5 6.5-2.448-.49-4.115.34-5 2.5a51.588 51.588 0 0 0 5.5 4.5c.483.95.649 1.95.5 3-4.112-1.22-7.779-3.22-11-6 1.896-4.31.73-7.64-3.5-10a12.92 12.92 0 0 1-.5-5c2.287.22 4.453.89 6.5 2 1.732-.23 2.566-1.23 2.5-3a45.27 45.27 0 0 0-4.5-7l-1-11a4.942 4.942 0 0 0-2.5-1c-2.941 1.11-5.108 3.11-6.5 6-.461 4.68-.295 9.35.5 14-4.823.17-6.823-2.16-6-7-1.901-.07-3.734.27-5.5 1a24.428 24.428 0 0 1-3.5-3.5c-3.588-.61-4.754.89-3.5 4.5a31.403 31.403 0 0 1 4.5 5 218.252 218.252 0 0 1-23-15.5c5.206-3.04 6.206-7.04 3-12-1-.67-2-.67-3 0-1.793 2.8-3.96 5.3-6.5 7.5-38.082-29.07-73.416-61.4-106-97 1-2.33 2-4.67 3-7a3.92 3.92 0 0 0-2-1c-1.326 1.3-2.66 2.63-4 4-6.113-6.27-11.613-12.93-16.5-20a8.394 8.394 0 0 0 4-.5c2.043-3.25 4.21-6.42 6.5-9.5.667-1.67.667-3.33 0-5-1.993-2.32-3.159-4.98-3.5-8z"/><path style="opacity:1" fill="#e28376" d="M621.5 1515.5h2c-.667 2.67-1.333 2.67-2 0z"/><path style="opacity:1" fill="#fbeae6" d="M538.5 1517.5c3.658.43 5.325 2.6 5 6.5.091 3.59-1.243 6.42-4 8.5-2.344-1.69-3.344-4.03-3-7 .09-2.84.757-5.5 2-8z"/><path style="opacity:1" fill="#fbe8e4" d="M649.5 1517.5c3.814.15 5.481 2.15 5 6-4.744.27-6.411-1.73-5-6z"/><path style="opacity:1" fill="#c8392d" d="M467.5 1518.5c2.34.59 4.507 1.59 6.5 3 1.23 3.23 3.23 5.9 6 8a8.78 8.78 0 0 1 1.5 5c-.275 2.34-1.108 2.34-2.5 0a249.924 249.924 0 0 1-11.5-16z"/><path style="opacity:1" fill="#fae3df" d="M548.5 1518.5c4.888.94 6.555 3.78 5 8.5-1.284.68-2.451.52-3.5-.5-1.252-2.51-1.752-5.18-1.5-8z"/><path style="opacity:1" fill="#fbe9e5" d="M636.5 1524.5c4.514.19 5.847 2.36 4 6.5-5.762.42-7.096-1.75-4-6.5z"/><path style="opacity:1" fill="#fae6e3" d="M1504.5 1529.5c.75-1.07 1.75-1.24 3-.5 3.66 2.66 6.99 5.66 10 9-5.53-.78-9.86-3.61-13-8.5z"/><path style="opacity:1" fill="#fbe9e5" d="M746.5 1529.5c1.322-.17 2.489.16 3.5 1 1.908 2.71 2.741 5.71 2.5 9-3.142-.3-5.309-1.97-6.5-5-.64-1.77-.473-3.43.5-5z"/><path style="opacity:1" fill="#fae2de" d="M527.5 1534.5c5 .66 6.667 3.32 5 8-4.377-1.31-6.044-3.98-5-8z"/><path style="opacity:1" fill="#fbe9e5" d="M606.5 1541.5c1.175-.22 2.175.11 3 1 1.333 4.67 1.333 9.33 0 14-2.496 2.45-5.162 2.62-8 .5a29.689 29.689 0 0 1-6-7c.558-2.06 1.891-3.22 4-3.5 2.071.79 3.738 2.12 5 4 .749-3.03 1.416-6.03 2-9zM581.5 1545.5c1.322-.17 2.489.16 3.5 1 3.794 8.54 2.127 9.88-5 4-.613-2-.113-3.66 1.5-5z"/><path style="opacity:1" fill="#f9e1dd" d="M553.5 1547.5c2.563 1.5 2.563 3.16 0 5-1.166-1.67-1.166-3.33 0-5z"/><path style="opacity:1" fill="#fae5e1" d="M529.5 1550.5c4.217-.29 6.383 1.71 6.5 6a42.095 42.095 0 0 1 1 16c-1.079 1.89-2.413 2.23-4 1 .058-7.89-1.108-15.55-3.5-23z"/><path style="opacity:1" fill="#f9dcd8" d="M571.5 1550.5c3.638-.76 5.138.57 4.5 4-3.669 1.51-5.169.18-4.5-4z"/><path style="opacity:1" fill="#fdf2ef" d="M810.5 1550.5c4.378 1.69 8.712 3.69 13 6a36.802 36.802 0 0 1-5 8.5c-1.333.67-2.667.67-4 0-.597-1.89-.931-3.72-1-5.5a26.37 26.37 0 0 1-7.5-3c-.987-3.85.513-5.85 4.5-6z"/><path style="opacity:1" fill="#f9e2de" d="M1525.5 1552.5c3.3.13 4.96 1.8 5 5-4.24.41-5.9-1.26-5-5z"/><path style="opacity:1" fill="#fae5e1" d="M1295.5 1555.5c2.13-.35 3.47.48 4 2.5-1.13 2.3-2.79 4.13-5 5.5-1-.33-1.67-1-2-2 1.01-2.03 2.01-4.03 3-6z"/><path style="opacity:1" fill="#fae5e2" d="M1311.5 1555.5c2.54 1.12 2.54 2.46 0 4-1.13-1.31-1.13-2.64 0-4z"/><path style="opacity:1" fill="#f9e2df" d="M642.5 1557.5h3v3h-3v-3z"/><path style="opacity:1" fill="#fdf2ef" d="M693.5 1559.5c5.241-.89 7.908 1.28 8 6.5-.086 4.75-2.42 6.42-7 5-4.876-3.52-5.21-7.35-1-11.5z"/><path style="opacity:1" fill="#fbe8e4" d="M1468.5 1560.5c5.98 8.6 11.98 17.27 18 26-.5.33-1 .67-1.5 1a22.953 22.953 0 0 1-8-8 72.482 72.482 0 0 0-8-14c-.49-1.63-.66-3.3-.5-5z"/><path style="opacity:1" fill="#fceeeb" d="M577.5 1562.5c1.175-.22 2.175.11 3 1-1.552 1.3-2.552.96-3-1z"/><path style="opacity:1" fill="#f8d9d4" d="M799.5 1561.5c8.882-.09 9.216 1.57 1 5-3.628-.94-3.961-2.6-1-5z"/><path style="opacity:1" fill="#f9deda" d="M823.5 1563.5h3a18.44 18.44 0 0 1-.5 6c-.71 1.47-1.876 2.14-3.5 2-.099-2.74.235-5.4 1-8z"/><path style="opacity:1" fill="#fbe9e5" d="M566.5 1564.5c4.494.66 6.161 3.33 5 8-5.916.29-7.583-2.38-5-8z"/><path style="opacity:1" fill="#fae3df" d="M668.5 1566.5c4.744-.46 5.744 1.04 3 4.5a8.394 8.394 0 0 1-4 .5c-.134-1.79.199-3.46 1-5z"/><path style="opacity:1" fill="#fcefec" d="M791.5 1565.5c2.216.7 4.049 2.04 5.5 4 .565 4.18-.269 8.01-2.5 11.5a73.616 73.616 0 0 1-12 1.5c-.262-1.48.071-2.81 1-4a60.618 60.618 0 0 0 8-4c1.077-2.97 1.077-5.97 0-9z"/><path style="opacity:1" fill="#f8ddd9" d="M584.5 1568.5h3c-.453 4.85-2.453 5.85-6 3 .84-1.23 1.84-2.23 3-3z"/><path style="opacity:1" fill="#fdf3f0" d="M718.5 1568.5c3.277-.28 6.443.05 9.5 1a467.943 467.943 0 0 1 6 23c.758 2.27.591 4.44-.5 6.5-4.088.6-6.588-1.23-7.5-5.5a352.74 352.74 0 0 0-.5-12.5 95.922 95.922 0 0 0-20.5 3.5c-2.188-.56-2.854-1.89-2-4 4.233-5.42 9.4-9.42 15.5-12z"/><path style="opacity:1" fill="#fae3df" d="M806.5 1569.5a8.394 8.394 0 0 1 4 .5c.951.72 1.117 1.55.5 2.5-4.348 3.06-5.848 2.06-4.5-3z"/><path style="opacity:1" fill="#f6d2ce" d="M593.5 1569.5c1.495-.09 2.495.58 3 2-.82 1.61-2.154 2.28-4 2-.067-1.46.266-2.79 1-4z"/><path style="opacity:1" fill="#fcf0ec" d="M1234.5 1571.5c1.81 1.42 2.47 3.42 2 6h-3c-.17-2.12.16-4.12 1-6z"/><path style="opacity:1" fill="#f9e0dc" d="M1532.5 1574.5c4.94 1.15 9.61 2.98 14 5.5-3.72-.01-7.39-.68-11-2-1.93-.42-2.93-1.59-3-3.5z"/><path style="opacity:1" fill="#fcefec" d="M1316.5 1576.5c2.29-.26 4.46.08 6.5 1 6.18 8.78 4.01 11.95-6.5 9.5-2.81-1.31-3.64-3.47-2.5-6.5.66-1.48 1.5-2.82 2.5-4z"/><path style="opacity:1" fill="#fcede9" d="M589.5 1577.5c4.518.72 5.185 2.89 2 6.5-.948.48-1.948.65-3 .5-.202-2.45.131-4.78 1-7z"/><path style="opacity:1" fill="#f9e0dc" d="M611.5 1577.5c5.524.03 6.191 1.7 2 5-2.849-.92-3.515-2.58-2-5z"/><path style="opacity:1" fill="#fcefeb" d="M680.5 1577.5a48.096 48.096 0 0 1 10.5 9c2.812 4.73 1.645 6.9-3.5 6.5a20.42 20.42 0 0 1-1.5-5.5c-1.667-.67-3.333-1.33-5-2a32.465 32.465 0 0 1-.5-8z"/><path style="opacity:1" fill="#f4cac5" d="M1416.5 1577.5c4.13-.98 8.47-1.32 13-1v3c-4.48.07-8.82-.59-13-2z"/><path style="opacity:1" fill="#f8dfdb" d="M600.5 1577.5c1.086.12 1.753.79 2 2-.804 2.46-1.804 2.46-3 0 .363-.68.696-1.35 1-2z"/><path style="opacity:1" fill="#fcefeb" d="M746.5 1578.5c3.149-.29 6.149.21 9 1.5 2.984 2.94 2.65 5.11-1 6.5-4.157-.57-7.49-2.41-10-5.5.556-1.01 1.222-1.84 2-2.5z"/><path style="opacity:1" fill="#f7d7d2" d="M628.5 1578.5c3-.33 4.333 1 4 4-2.424.31-4.757-.03-7-1 .84-1.23 1.84-2.23 3-3z"/><path style="opacity:1" fill="#f8dcd8" d="M822.5 1578.5c2.412.19 3.412 1.53 3 4-3.454.23-4.454-1.1-3-4z"/><path style="opacity:1" fill="#f8dad6" d="M1436.5 1579.5c2.86.1 5.19 1.26 7 3.5-2 .67-4 .67-6 0-.84-1.01-1.17-2.18-1-3.5z"/><path style="opacity:1" fill="#f9e2de" d="M811.5 1581.5c4.506-.97 6.672.69 6.5 5-1.133 1.71-2.633 2.21-4.5 1.5-1.729-1.79-2.396-3.96-2-6.5z"/><path style="opacity:1" fill="#fcedea" d="M535.5 1583.5h4v4c-3.94.73-5.273-.6-4-4z"/><path style="opacity:1" fill="#f8dcd8" d="M644.5 1584.5h3v3c-3.067.38-4.067-.62-3-3z"/><path style="opacity:1" fill="#fcede9" d="M1337.5 1584.5c6.52-.26 7.52 1.9 3 6.5-1.63.49-3.3.66-5 .5-.33-2.69.33-5.02 2-7z"/><path style="opacity:1" fill="#fceeea" d="M768.5 1586.5c3.615-.29 6.782.71 9.5 3-.222 7.86-3.555 9.2-10 4-.703-2.43-.537-4.76.5-7z"/><path style="opacity:1" fill="#f7d9d5" d="M665.5 1586.5c2.889.5 3.556 2 2 4.5-.948.48-1.948.65-3 .5-.134-1.79.199-3.46 1-5z"/><path style="opacity:1" fill="#fceeeb" d="M792.5 1587.5c1.322-.17 2.489.16 3.5 1 1.242 5.19.242 9.86-3 14a25.743 25.743 0 0 1-2 8c-3.111 1.77-4.944.94-5.5-2.5 1.459-7.21 3.793-14.05 7-20.5z"/><path style="opacity:1" fill="#f9deda" d="M1198.5 1588.5c4.85 1.01 6.68 4.01 5.5 9-.95 2.09-2.29 2.43-4 1-.21-2.75-1.05-5.25-2.5-7.5.24-.9.58-1.74 1-2.5z"/><path style="opacity:1" fill="#f9e0dc" d="M1235.5 1589.5c6.04 1.04 9.04 4.71 9 11h-3c-.14-3.61-1.81-6.28-5-8-.89-.82-1.22-1.82-1-3z"/><path style="opacity:1" fill="#fae4e0" d="M594.5 1591.5c2.091-.18 4.091.15 6 1 .886.82 1.219 1.82 1 3a17.845 17.845 0 0 1-8-2c.363-.68.696-1.35 1-2z"/><path style="opacity:1" fill="#fcede9" d="M627.5 1590.5c3.707.29 7.207 1.29 10.5 3 .538 4.28-1.295 6.61-5.5 7-.223 2.61.944 4.28 3.5 5 .494 1.63.66 3.3.5 5-4.183.65-7.016-1.01-8.5-5a78.38 78.38 0 0 0-.5-15z"/><path style="opacity:1" fill="#fbeae7" d="M612.5 1593.5h3c-.001 3.75-1.667 4.75-5 3a205.55 205.55 0 0 0 2-3z"/><path style="opacity:1" fill="#fae6e3" d="M558.5 1593.5h3v4c-3.454.23-4.454-1.1-3-4z"/><path style="opacity:1" fill="#fdf1ed" d="M743.5 1594.5a57.683 57.683 0 0 0 15 2.5c2.902 4.37 1.902 7.54-3 9.5-3.643-2.63-7.31-5.3-11-8a6.853 6.853 0 0 1-1-4z"/><path style="opacity:1" fill="#fdf4f0" d="M659.5 1595.5a97.7 97.7 0 0 1 14 .5c5.116 4.06 7.616 9.23 7.5 15.5-7.893 4.35-15.226 3.35-22-3-.446-2.84-.946-5.68-1.5-8.5.019-1.83.685-3.33 2-4.5z"/><path style="opacity:1" fill="#fdf3f0" d="M847.5 1595.5a79.517 79.517 0 0 1 10.5 4c3.751-.29 7.585-.45 11.5-.5 1.667-.83 3.333-1.67 5-2.5 1.134 4.14.634 8.14-1.5 12-2.403 1-4.736.66-7-1-3.827 2.59-7.994 3.43-12.5 2.5-3.531-4.23-5.531-9.06-6-14.5z"/><path style="opacity:1" fill="#fae3df" d="M1301.5 1595.5c5.25.14 6.25 2.31 3 6.5-6.33.18-7.33-1.99-3-6.5z"/><path style="opacity:1" fill="#f7dbd7" d="M1397.5 1595.5c2.4 1.38 2.56 3.05.5 5-1.79-1.52-1.96-3.19-.5-5z"/><path style="opacity:1" fill="#fdf1ed" d="M572.5 1597.5c5.892.76 8.059 4.1 6.5 10-2.5 2.04-5.167 2.37-8 1-.987-3.97-.487-7.64 1.5-11z"/><path style="opacity:1" fill="#fcf1ee" d="M643.5 1597.5c1.965.45 2.298 1.45 1 3-.886-.82-1.219-1.82-1-3z"/><path style="opacity:1" fill="#fbe6e2" d="M1231.5 1600.5c1-.09 1.83.25 2.5 1 1.42 6.3.26 11.97-3.5 17-1.4-6.13-1.07-12.13 1-18z"/><path style="opacity:1" fill="#f9e3df" d="M907.5 1603.5a8.394 8.394 0 0 1 4 .5c1.174 2.83.174 3.83-3 3-.837-1.01-1.17-2.18-1-3.5z"/><path style="opacity:1" fill="#fcedea" d="M1009.5 1605.5c6.14-.99 12.48-1.32 19-1 1.5.81 3.16 1.47 5 2 2.32-1.17 4.66-1.17 7 0 2.72.18 5.38.68 8 1.5 1.54 1.11 2.2 2.61 2 4.5-3.35.17-6.68 0-10-.5a186.658 186.658 0 0 0-31-6.5z"/><path style="opacity:1" fill="#d7847a" d="M1028.5 1604.5h33c-7 .67-14 1.33-21 2-2.34-1.17-4.68-1.17-7 0-1.84-.53-3.5-1.19-5-2z"/><path style="opacity:1" fill="#fdf4f1" d="M885.5 1606.5c3.692-.53 6.858.47 9.5 3 .733 4.96-1.433 8.13-6.5 9.5-4.521 2.18-9.187 3.51-14 4-1.061-3.84-.228-7.34 2.5-10.5a69.358 69.358 0 0 1 8.5-6z"/><path style="opacity:1" fill="#f2c8c3" d="M594.5 1607.5c1.859-.04 3.192.79 4 2.5-2.809 2.06-4.142 1.22-4-2.5z"/><path style="opacity:1" fill="#fdf1ee" d="M737.5 1609.5c4.529 0 8.029 2 10.5 6a36.61 36.61 0 0 0 .5 13.5 46.995 46.995 0 0 0 13 4c3.03.9 3.864 2.4 2.5 4.5-4.755-2.7-9.921-3.7-15.5-3-.577 3.58.423 6.58 3 9-4.301-.12-6.301 1.88-6 6-1.322.17-2.489-.16-3.5-1a39.036 39.036 0 0 0-3.5-9.5c1.376-3.69.209-6.53-3.5-8.5a23.597 23.597 0 0 1-2.5-6 279.5 279.5 0 0 1 3-6c-7.113-4.98-6.446-7.98 2-9z"/><path style="opacity:1" fill="#fceeeb" d="M608.5 1610.5c4.758.52 6.092 3.02 4 7.5-1.284.68-2.451.52-3.5-.5a24.927 24.927 0 0 1-.5-7z"/><path style="opacity:1" fill="#fcede9" d="M1515.5 1629.5a30.635 30.635 0 0 1-8 7 19.304 19.304 0 0 1-6-6c2.6-2.45 5.1-2.11 7.5 1 .67-1 .67-2 0-3-2.7-3.04-5.7-5.7-9-8-2.41-2.71-3.24-5.71-2.5-9 4.59 3.55 9.09 7.21 13.5 11 1.75 2.23 3.25 4.57 4.5 7z"/><path style="opacity:1" fill="#fbe7e3" d="M709.5 1613.5c3.757-.43 7.257.24 10.5 2 .86 2.98-.307 4.31-3.5 4-2.367-.34-4.7-.84-7-1.5-1.228-1.49-1.228-2.99 0-4.5z"/><path style="opacity:1" fill="#fbe6e2" d="M983.5 1612.5c2.984.29 4.317 1.95 4 5h-5c-.134-1.79.199-3.46 1-5z"/><path style="opacity:1" fill="#fbe9e6" d="M650.5 1614.5c3.45-.74 5.116.59 5 4-3.45.74-5.116-.59-5-4z"/><path style="opacity:1" fill="#f9dfdb" d="M1371.5 1614.5c3.02-.16 6.02 0 9 .5 3.42 1.24 3.58 2.41.5 3.5-2.82-.55-5.66-1.05-8.5-1.5-.75-.67-1.09-1.5-1-2.5z"/><path style="opacity:1" fill="#f8dcd8" d="M1127.5 1615.5c2.99.45 3.99 1.95 3 4.5-3.79.49-4.79-1.01-3-4.5z"/><path style="opacity:1" fill="#fdf2ef" d="M676.5 1617.5c4.999 1.17 9.999 2.33 15 3.5 1.399 1.06 2.399 2.39 3 4-1.978 1.98-3.978 3.98-6 6-2.201.82-4.034.32-5.5-1.5-4.821 3.12-7.488 7.46-8 13-1.396 2.03-3.062 2.36-5 1l-2.5-9.5c1.128-2.46 2.961-4.29 5.5-5.5-.374-2.27-.374-4.6 0-7a19.738 19.738 0 0 0 3.5-4z"/><path style="opacity:1" fill="#fbebe8" d="M721.5 1629.5c-7.195.34-12.028-2.66-14.5-9 3.004-.79 5.837-.12 8.5 2 2.023 2.35 4.023 4.69 6 7z"/><path style="opacity:1" fill="#fbeae6" d="M1159.5 1621.5c3.52-1.12 7.18-1.12 11 0v3c-4.11.38-7.77-.62-11-3z"/><path style="opacity:1" fill="#fae3df" d="M787.5 1621.5c.997-.03 1.664.47 2 1.5-.806 3.12-2.473 5.62-5 7.5a4.486 4.486 0 0 1-2-1.5 93.32 93.32 0 0 0 5-7.5z"/><path style="opacity:1" fill="#fcede9" d="M910.5 1625.5c3.35-.17 6.683 0 10 .5 5.333 2.67 5.333 5.33 0 8-6 .67-12 .67-18 0-1.054-1.39-1.22-2.89-.5-4.5 2.564-2.12 5.397-3.46 8.5-4z"/><path style="opacity:1" fill="#fae4e0" d="M721.5 1629.5c1.617.54 3.284.87 5 1 .262 1.48-.071 2.81-1 4-2.111-1.1-3.445-2.77-4-5z"/><path style="opacity:1" fill="#f8dad5" d="M693.5 1630.5c2.993.5 5.326 2 7 4.5 2.056.31 4.056.81 6 1.5 1.021.5 1.188 1.17.5 2-1.388 1.05-2.888 1.22-4.5.5-2.33-2.17-4.997-3.83-8-5-.837-1.01-1.17-2.18-1-3.5z"/><path style="opacity:1" fill="#fcefeb" d="M1427.5 1634.5c7.02-.78 13.52.55 19.5 4 1.41 4.25-.09 6.75-4.5 7.5-6.6 1.88-11.77.05-15.5-5.5-.68-2.1-.51-4.1.5-6z"/><path style="opacity:1" fill="#f9e1dd" d="M680.5 1635.5h3c.256 2.41-.744 4.08-3 5-1.166-1.67-1.166-3.33 0-5z"/><path style="opacity:1" fill="#fcedea" d="M812.5 1636.5c1.788-.29 3.455.05 5 1a25.442 25.442 0 0 1-4 4.5c4.667 3.33 9.333 6.67 14 10 2.982.5 5.982.66 9 .5-.096 4.19-1.763 7.53-5 10a4.942 4.942 0 0 1-2.5-1c-2.973-7.64-8.473-12.47-16.5-14.5a18.96 18.96 0 0 0-8-1.5v-6c3.442.67 6.109-.33 8-3z"/><path style="opacity:1" fill="#f9e2de" d="M783.5 1638.5c1.884.21 3.217 1.21 4 3-3.828 1.75-5.161.75-4-3z"/><path style="opacity:1" fill="#fcf0ec" d="M684.5 1640.5c1.644-.21 3.144.12 4.5 1a15.024 15.024 0 0 1 2.5 8 4.949 4.949 0 0 0-3 .5c.96 1.42 1.793 2.92 2.5 4.5.91 4.36 1.577 8.7 2 13-1.231.61-2.564.94-4 1-3.963-.89-7.796-1.73-11.5-2.5-2.395 14.57-6.562 15.07-12.5 1.5-.667-4-.667-8 0-12 .637-1.8 1.803-3.14 3.5-4a36.89 36.89 0 0 0 5 8.5c1.544 1.19 3.211 1.52 5 1 1.667-1.67 3.333-3.33 5-5-3.109-2.84-4.109-6.17-3-10 1.813.05 3.479-.12 5-.5a9.11 9.11 0 0 1-1-5z"/><path style="opacity:1" fill="#fae5e2" d="M639.5 1641.5c3.45.07 4.783 1.91 4 5.5.74 3.66-.593 5.83-4 6.5v-12z"/><path style="opacity:1" fill="#fdf2ee" d="M702.5 1643.5h7c-1.071 5.1.929 8.26 6 9.5 2 .67 4 .67 6 0 1-1.67 2-3.33 3-5 1.284-.68 2.451-.52 3.5.5 2.003 6.83-.497 9.83-7.5 9a8.43 8.43 0 0 0 .5 4 212.518 212.518 0 0 0 10.5 18c-1.687 1.07-3.354.9-5-.5l-6-6c-3.485-.33-6.818.17-10 1.5v-8c-2.681-.04-5.181.63-7.5 2a3.92 3.92 0 0 1-2-1c1.16-7.89 1.66-15.89 1.5-24z"/><path style="opacity:1" fill="#fae8e4" d="M1225.5 1658.5c-.84-.34-1.17-1.01-1-2 .19-4.86 1.02-9.52 2.5-14-.16 5.33-.66 10.67-1.5 16z"/><path style="opacity:1" fill="#fbe9e5" d="M605.5 1648.5c3.985.13 5.318 1.96 4 5.5-1.634.49-3.301.66-5 .5-.175-2.12.159-4.12 1-6z"/><path style="opacity:1" fill="#fbeae6" d="M782.5 1648.5c4-.67 5.667 1 5 5-4 .67-5.667-1-5-5z"/><path style="opacity:1" fill="#fbe4e1" d="M1179.5 1651.5c1.09.12 1.75.79 2 2-.33.67-.67 1.33-1 2-.93-1.19-1.26-2.52-1-4z"/><path style="opacity:1" fill="#fdf5f2" d="M1195.5 1651.5c5.83-1.16 8.5 1.17 8 7-6.05.93-8.72-1.4-8-7z"/><path style="opacity:1" fill="#f6d1cc" d="M754.5 1653.5h4v4c-3 .33-4.333-1-4-4z"/><path style="opacity:1" fill="#fbeae6" d="M842.5 1654.5c10.393-.07 11.393 2.77 3 8.5-2.982.5-5.982.66-9 .5-.094-3.04 1.406-4.71 4.5-5 .41-1.4.91-2.73 1.5-4z"/><path style="opacity:1" fill="#fceeea" d="M806.5 1657.5c3.756-1.57 6.923-.57 9.5 3 .966 6.04-1.367 8.04-7 6-.057-3.35-.891-6.35-2.5-9z"/><path style="opacity:1" fill="#edb1ab" d="M1224.5 1656.5c-.17.99.16 1.66 1 2 .34 2.66-.33 4.99-2 7-.83-3.16-.5-6.16 1-9z"/><path style="opacity:1" fill="#fdf1ee" d="M661.5 1694.5c-8.338-4.31-16.005-9.31-23-15a31.403 31.403 0 0 0-4.5-5c-1.254-3.61-.088-5.11 3.5-4.5 1.06 1.3 2.226 2.46 3.5 3.5a12.992 12.992 0 0 1 5.5-1c-.823 4.84 1.177 7.17 6 7a52.308 52.308 0 0 1-.5-14c1.392-2.89 3.559-4.89 6.5-6 .942.11 1.775.44 2.5 1l1 11a45.27 45.27 0 0 1 4.5 7c.066 1.77-.768 2.77-2.5 3a16.908 16.908 0 0 0-6.5-2c-.16 1.7.006 3.37.5 5 4.23 2.36 5.396 5.69 3.5 10z"/><path style="opacity:1" fill="#fae5e1" d="M893.5 1660.5h5c.359 4.49-1.474 6.15-5.5 5-.64-1.77-.473-3.43.5-5z"/><path style="opacity:1" fill="#f9e0dc" d="M769.5 1662.5c2.775.33 3.441 1.67 2 4-1.611-.82-2.278-2.15-2-4z"/><path style="opacity:1" fill="#f8dcd8" d="M1233.5 1663.5c.88-.13 1.54.2 2 1-.53 1.73-1.53 3.06-3 4-1.15-1.9-.82-3.56 1-5z"/><path style="opacity:1" fill="#fdf3ef" d="M858.5 1665.5c9.99 1.4 19.657 4.07 29 8-3.093.5-5.926 1.5-8.5 3 .584 2.2.418 4.37-.5 6.5-5.768 2.02-11.768 3.18-18 3.5.299-2.1-.034-4.1-1-6a15.103 15.103 0 0 1-4-3.5 31.352 31.352 0 0 1 5-8c-.929-1.08-1.596-2.24-2-3.5z"/><path style="opacity:1" fill="#fdf1ee" d="M822.5 1667.5h4c.17 1.32-.163 2.49-1 3.5-5.486.82-7.986 3.99-7.5 9.5-1.315 2.99-3.315 5.33-6 7-1.882-.59-2.882-1.93-3-4-2.554-9.43.946-13.93 10.5-13.5a84.427 84.427 0 0 0 3-2.5z"/><path style="opacity:1" fill="#fcede9" d="M1151.5 1667.5c2.45-.42 3.78.58 4 3-.7 3.97-1.2 7.97-1.5 12-1.01.84-2.18 1.17-3.5 1 .67-3.33-.67-5.33-4-6-4.56 2.6-8.9 2.1-13-1.5 8.92 3.07 14.92.24 18-8.5z"/><path style="opacity:1" fill="#f9e0dc" d="M784.5 1671.5c3.661-.15 4.661 1.35 3 4.5-.948.48-1.948.65-3 .5v-5z"/><path style="opacity:1" fill="#cd4338" d="M868.5 1670.5c3.45-.74 5.116.59 5 4-3.45.74-5.116-.59-5-4z"/><path style="opacity:1" fill="#fceeeb" d="M1112.5 1671.5c7.23 1.37 7.9 4.37 2 9-2.41-2.63-3.07-5.63-2-9z"/><path style="opacity:1" fill="#f9deda" d="M1235.5 1678.5c1.32-.17 2.49.16 3.5 1 .82 3.05.65 6.05-.5 9-2.48-2.86-3.48-6.19-3-10z"/><path style="opacity:1" fill="#fae3df" d="M1356.5 1681.5c3.02-.14 4.52 1.2 4.5 4-2.94 2.98-5.11 2.65-6.5-1 .44-1.24 1.11-2.24 2-3z"/><path style="opacity:1" fill="#fcece8" d="M676.5 1701.5c-1.538 2.28-2.871 1.94-4-1a4.939 4.939 0 0 0-.5-3 51.588 51.588 0 0 1-5.5-4.5c.885-2.16 2.552-2.99 5-2.5-.973-4.51.694-6.67 5-6.5 1.596 4.38 2.929 8.88 4 13.5-.416 2.22-1.75 3.55-4 4z"/><path style="opacity:1" fill="#fae6e2" d="M1174.5 1688.5c5.43-.69 6.1.48 2 3.5-1.29.49-2.63.66-4 .5.03-1.7.69-3.03 2-4z"/><path style="opacity:1" fill="#df8580" d="M1219.5 1697.5c.29-2.24-.04-4.24-1-6 .28-.79.78-1.46 1.5-2 .8 2.87.63 5.53-.5 8z"/><path style="opacity:1" fill="#fcede9" d="M845.5 1690.5c.876-.13 1.543.2 2 1l2 6a59.65 59.65 0 0 1 9 5c-4.751 1.38-9.417 1.21-14-.5-1.394-.96-2.061-2.29-2-4a74.184 74.184 0 0 0 3-7.5z"/><path style="opacity:1" fill="#f9dfdb" d="M1218.5 1691.5c.96 1.76 1.29 3.76 1 6 .23 3.31-.77 4.15-3 2.5a52.19 52.19 0 0 0 2-8.5z"/><path style="opacity:1" fill="#fae2de" d="M1173.5 1695.5c2.42-.31 4.76.03 7 1-2.49 3.3-5.49 3.8-9 1.5.88-.71 1.55-1.54 2-2.5z"/><path style="opacity:1" fill="#f6d3cf" d="M1187.5 1695.5c3.66-.15 4.66 1.35 3 4.5-3.79.49-4.79-1.01-3-4.5z"/><path style="opacity:1" fill="#fae2de" d="M1279.5 1698.5c1.48-.26 2.81.07 4 1-.82 1.61-2.15 2.28-4 2v-3z"/><path style="opacity:1" fill="#fae6e3" d="M1356.5 1709.5c3.97.58 4.97 2.74 3 6.5-2.82.7-4.49-.47-5-3.5.69-1.02 1.36-2.02 2-3z"/><path style="opacity:1" fill="#fae3df" d="M1205.5 1712.5c1-.03 1.66.47 2 1.5-.39 1.95-1.39 3.45-3 4.5-1.27-2.26-.94-4.26 1-6z"/><path style="opacity:1" fill="#fdf5f2" d="M1323.5 1713.5c1.96.45 2.3 1.45 1 3-.89-.82-1.22-1.82-1-3z"/><path style="opacity:1" fill="#f9dfdb" d="M893.5 1716.5c1.699-.16 3.366.01 5 .5 1.507.84 2.007 2 1.5 3.5-2.132 1.28-4.298 1.28-6.5 0-1.126-1.31-1.126-2.64 0-4z"/><path style="opacity:1" fill="#fbece8" d="M1210.5 1717.5c3.64-.76 5.14.57 4.5 4-4.58 1.91-6.08.58-4.5-4z"/><path style="opacity:1" fill="#f1c0bb" d="M1283.5 1715.5c1.98-.12 3.65.55 5 2-2.67 1.59-4.34.92-5-2z"/><path style="opacity:1" fill="#f9dedb" d="M1159.5 1718.5c4.45.39 4.95 2.39 1.5 6-2.48-1.59-2.98-3.59-1.5-6z"/><path style="opacity:1" fill="#fbe8e5" d="M764.5 1719.5c1.699-.16 3.366.01 5 .5 1.017 1.05 1.184 2.22.5 3.5-4.915 2.18-6.749.85-5.5-4z"/><path style="opacity:1" fill="#fdf3ef" d="M1368.5 1727.5c-6.09 3.13-12.26 6.13-18.5 9-.5-1.97-.66-3.97-.5-6-.13-.88.2-1.54 1-2 4.95-1.81 9.61-4.14 14-7 3.33.67 4.67 2.67 4 6z"/><path style="opacity:1" fill="#fbe9e6" d="M1259.5 1726.5h3v3h-3v-3z"/><path style="opacity:1" fill="#fcedea" d="M1135.5 1730.5c3-.33 4.33 1 4 4-3 .33-4.33-1-4-4z"/><path style="opacity:1" fill="#fbe6e3" d="M1174.5 1730.5c1.23.65 1.89 1.82 2 3.5-.37 2.86-.87 5.69-1.5 8.5-1.01.84-2.18 1.17-3.5 1-.13-4.68.87-9.02 3-13z"/><path style="opacity:1" fill="#fbe7e4" d="M1145.5 1732.5c2.18-.22 3.85.62 5 2.5 2.67.33 5.33.67 8 1 1.71 1.13 2.21 2.63 1.5 4.5-4.08 1.13-8.25 1.3-12.5.5-.83-2.78-1.49-5.61-2-8.5z"/><path style="opacity:1" fill="#fae4e1" d="M1132.5 1739.5c9.2 2.23 17.86 5.73 26 10.5-2 .67-4 .67-6 0-6.25-2.86-12.59-5.53-19-8-.75-.67-1.09-1.5-1-2.5z"/><path style="opacity:1" fill="#fef5f2" d="M1229.5 1744.5c3.08-.24 6.08.09 9 1 1.11 1.22 1.28 2.56.5 4-7.94 2.62-15.44 6.12-22.5 10.5-1 6.17-3.66 7-8 2.5-2.16 2.99-4.83 5.49-8 7.5-1.67.67-3.33.67-5 0-1.27-1.22-2.77-2.05-4.5-2.5a33.876 33.876 0 0 1-12 6c-4.29-2.1-8.79-2.94-13.5-2.5-7.62 4.63-13.62 10.8-18 18.5-4.79 2.22-7.95.88-9.5-4-.75-2.8-.42-5.47 1-8 6.96-2.73 12.46-7.23 16.5-13.5 1.33.08 2.66.58 4 1.5 1.44-.22 2.77-.72 4-1.5 3.47-5.12 6.47-10.45 9-16 3.6-1.15 7.27-1.98 11-2.5 3.18.53 6.18 1.53 9 3 12.57-.49 24.9-1.82 37-4z"/><path style="opacity:1" fill="#f8dbd7" d="M871.5 1763.5c2.666-.43 3.833.57 3.5 3-2.658 1.19-3.824.19-3.5-3z"/><path style="opacity:1" fill="#fae7e3" d="M848.5 1765.5c3.626-.64 5.459.69 5.5 4-4.915 2.18-6.749.85-5.5-4z"/><path style="opacity:1" fill="#fbe8e4" d="M1212.5 1768.5c4.74-.34 6.07 1.66 4 6-2.79 1.54-5.29 1.21-7.5-1 .11-2.3 1.28-3.96 3.5-5z"/><path style="opacity:1" fill="#fceeea" d="M1097.5 1775.5c6.52-.26 7.52 1.9 3 6.5-5.12-.18-6.12-2.34-3-6.5z"/><path style="opacity:1" fill="#fcf0ec" d="M1111.5 1776.5c6.99.57 13.99 1.07 21 1.5 2.09.95 2.43 2.29 1 4-7.85 3.71-15.35 3.21-22.5-1.5-.58-1.43-.41-2.76.5-4z"/><path style="opacity:1" fill="#fcebe8" d="M987.5 1790.5c5.709-.82 7.043 1.01 4 5.5-5.954 1.23-7.288-.61-4-5.5z"/></svg>