<svg width="500" height="501" viewBox="0 0 500 501" fill="none" xmlns="http://www.w3.org/2000/svg">
<g clip-path="url(#clip0_11696_187)">
<path d="M250 500.656C388.071 500.656 500 388.727 500 250.656C500 112.585 388.071 0.65625 250 0.65625C111.929 0.65625 0 112.585 0 250.656C0 388.727 111.929 500.656 250 500.656Z" fill="#82FF68"/>
<path d="M247.716 260.028C276.951 244.454 282.416 226.968 276.405 206.203H244.438V185.984H268.208C261.651 172.869 255.366 160.848 255.366 141.175C255.366 110.574 280.23 85.7109 319.574 85.7109C360.831 85.7109 386.241 110.028 386.514 151.831H356.733C357.006 125.055 341.432 112.214 319.574 112.214C298.263 112.214 284.875 123.416 284.875 141.995C284.875 158.935 292.798 172.596 299.356 185.984H361.651V206.203H307.006C310.831 225.602 304.547 245.001 288.153 259.208H388.973V285.711H247.716V260.028Z" fill="#070010"/>
<path d="M245.901 382.034C190.161 382.034 144.601 336.484 144.601 280.734C144.601 241.174 167.381 206.404 200.941 190.224V153.664C148.791 172.244 111.031 221.994 111.031 280.734C111.031 355.064 171.571 415.604 245.901 415.604C304.641 415.604 354.391 377.844 372.971 325.694H336.411C320.231 359.264 285.461 382.034 245.901 382.034Z" fill="#070010"/>
</g>
<defs>
<clipPath id="clip0_11696_187">
<rect width="500" height="500" fill="white" transform="translate(0 0.65625)"/>
</clipPath>
</defs>
</svg>
