<svg width="500" height="501" viewBox="0 0 500 501" fill="none" xmlns="http://www.w3.org/2000/svg">
<g clip-path="url(#clip0_11696_195)">
<path d="M250 500.656C388.071 500.656 500 388.727 500 250.656C500 112.585 388.071 0.65625 250 0.65625C111.929 0.65625 0 112.585 0 250.656C0 388.727 111.929 500.656 250 500.656Z" fill="#FF5FFA"/>
<path d="M245.323 383.198C189.583 383.198 144.023 337.648 144.023 281.898C144.023 242.338 166.803 207.568 200.363 191.388V154.828C148.213 173.408 110.453 223.158 110.453 281.898C110.453 356.228 170.993 416.768 245.323 416.768C304.063 416.768 353.813 379.008 372.393 326.858H335.833C319.653 360.428 284.883 383.198 245.323 383.198Z" fill="#070010"/>
<path d="M276.75 85.0156L324.602 192.828L302.629 205.23L244.328 85.0156H276.75ZM309.367 192.535L357.023 85.0156H389.445L331.145 205.23L309.367 192.535ZM331.73 179.84V285.016H301.652V179.84H331.73ZM374.113 184.234V203.961H258.293V184.234H374.113ZM374.113 222.906V242.633H258.293V222.906H374.113Z" fill="#070010"/>
</g>
<defs>
<clipPath id="clip0_11696_195">
<rect width="500" height="500" fill="white" transform="translate(0 0.65625)"/>
</clipPath>
</defs>
</svg>
