<svg width="500" height="501" viewBox="0 0 500 501" fill="none" xmlns="http://www.w3.org/2000/svg">
<g clip-path="url(#clip0_11696_178)">
<path d="M250 500.656C388.071 500.656 500 388.727 500 250.656C500 112.585 388.071 0.65625 250 0.65625C111.929 0.65625 0 112.585 0 250.656C0 388.727 111.929 500.656 250 500.656Z" fill="#B781FE"/>
<path d="M260.021 285.711V213.722H238.172V195.795H260.021V172.826H238.172V154.899H260.021V85.7109H289.152L315.763 154.899H348.816V85.7109H370.945V154.899H392.794V172.826H370.945V195.795H392.794V213.722H370.945V285.711H341.533L314.923 213.722H281.869V285.711H260.021ZM281.309 154.899H293.074L281.309 120.165H280.189L281.309 154.899ZM281.869 195.795H308.2L299.797 172.826H281.309L281.869 195.795ZM330.609 195.795H349.376L348.816 172.826H322.205L330.609 195.795ZM348.816 246.215H349.937L349.096 213.722H337.332L348.816 246.215Z" fill="#070010"/>
<path d="M242.073 382.034C186.333 382.034 140.773 336.484 140.773 280.734C140.773 241.174 163.553 206.404 197.113 190.224V153.664C144.963 172.244 107.203 221.994 107.203 280.734C107.203 355.064 167.743 415.604 242.073 415.604C300.813 415.604 350.563 377.844 369.143 325.694H332.583C316.403 359.264 281.633 382.034 242.073 382.034Z" fill="#070010"/>
</g>
<defs>
<clipPath id="clip0_11696_178">
<rect width="500" height="500" fill="white" transform="translate(0 0.65625)"/>
</clipPath>
</defs>
</svg>
