<svg width="500" height="501" viewBox="0 0 500 501" fill="none" xmlns="http://www.w3.org/2000/svg">
<g clip-path="url(#clip0_11696_211)">
<path d="M250 500.656C388.071 500.656 500 388.727 500 250.656C500 112.585 388.071 0.65625 250 0.65625C111.929 0.65625 0 112.585 0 250.656C0 388.727 111.929 500.656 250 500.656Z" fill="#8C35FD"/>
<path d="M386.001 285.012H351.801L297.422 198.992H330.675L386.001 285.012Z" fill="#FCFBFF"/>
<path d="M237.859 285.008V85.0078H309.148C324.643 85.0078 337.501 87.6771 347.723 93.0156C358.009 98.3542 365.691 105.743 370.77 115.184C375.848 124.559 378.387 135.398 378.387 147.703C378.387 159.943 375.815 170.717 370.672 180.027C365.594 189.272 357.911 196.466 347.625 201.609C337.404 206.753 324.546 209.324 309.051 209.324H255.047V183.348H306.316C316.082 183.348 324.025 181.948 330.145 179.148C336.329 176.349 340.854 172.28 343.719 166.941C346.583 161.603 348.016 155.19 348.016 147.703C348.016 140.151 346.551 133.608 343.621 128.074C340.757 122.54 336.232 118.309 330.047 115.379C323.927 112.384 315.887 110.887 305.926 110.887H268.035V285.008H237.859Z" fill="#FCFBFF"/>
<path d="M323.051 285.005L343.266 285.005L293.191 207.07L272.976 207.07L323.051 285.005Z" fill="#FCFBFF"/>
<path d="M249.417 383.198C193.677 383.198 148.117 337.648 148.117 281.898C148.117 242.338 170.897 207.568 204.457 191.388V154.828C152.307 173.408 114.547 223.158 114.547 281.898C114.547 356.228 175.087 416.768 249.417 416.768C308.157 416.768 357.907 379.008 376.487 326.858H339.927C323.747 360.428 288.977 383.198 249.417 383.198Z" fill="#FCFBFF"/>
</g>
<defs>
<clipPath id="clip0_11696_211">
<rect width="500" height="500" fill="white" transform="translate(0 0.65625)"/>
</clipPath>
</defs>
</svg>
